<?xml version="1.0" encoding="utf-8"?>
<!-- Generator: Adobe Illustrator 19.0.0, SVG Export Plug-In . SVG Version: 6.00 Build 0)  -->
<svg version="1.1" id="Capa_1" xmlns="http://www.w3.org/2000/svg" xmlns:xlink="http://www.w3.org/1999/xlink" x="0px" y="0px"
	 viewBox="-243 102.5 80 80" style="enable-background:new -243 102.5 80 80;" xml:space="preserve">
<style type="text/css">
	.st0{fill:#FFFFFF;}
</style>
<path class="st0" d="M-216.2,136.9c0.8,0.8,2.1,0.8,3,0l8.2-8.2v32.4c0,0.6,0.2,1,0.6,1.5c0.4,0.4,0.9,0.6,1.5,0.6s1.1-0.2,1.5-0.6
	c0.4-0.4,0.6-0.9,0.6-1.5v-32.4l8.2,8.2c0.8,0.8,2.1,0.8,3,0c0.8-0.8,0.8-2.1,0-3l-11.6-11.6c0-0.1-0.1-0.1-0.1-0.2
	c-0.4-0.4-0.9-0.6-1.5-0.6s-1.1,0.2-1.5,0.6c-0.1,0.1-0.1,0.1-0.1,0.2l-11.6,11.6C-217.1,134.8-217.1,136.1-216.2,136.9z"/>
</svg>
