<?xml version="1.0" encoding="utf-8"?>
<!-- Generator: Adobe Illustrator 19.0.0, SVG Export Plug-In . SVG Version: 6.00 Build 0)  -->
<svg version="1.1" id="Capa_1" xmlns="http://www.w3.org/2000/svg" xmlns:xlink="http://www.w3.org/1999/xlink" x="0px" y="0px"
	 viewBox="0 0 30 30" enable-background="new 0 0 30 30" xml:space="preserve">
<g id="XMLID_938_">
	<g id="XMLID_93_">
		<path id="XMLID_99_" fill="#FFFFFF" d="M12.3,14.1c0,0,2.6-0.2,2.6-3.3c0-3.1-2.1-4.6-4.8-4.6H1.2v17.1h8.9c0,0,5.4,0.2,5.4-5
			C15.5,18.3,15.8,14.1,12.3,14.1L12.3,14.1z M5.1,9.3h5c0,0,1.2,0,1.2,1.8c0,1.8-0.7,2-1.5,2H5.1V9.3z M9.9,20.3H5.1v-4.6h5
			c0,0,1.8,0,1.8,2.3C11.9,20.1,10.6,20.3,9.9,20.3L9.9,20.3z M9.9,20.3"/>
		<rect id="XMLID_98_" x="19.1" y="7.3" fill="#FFFFFF" width="7.1" height="2.1"/>
		<path id="XMLID_94_" fill="#FFFFFF" d="M22.8,10.6c-6.6,0-6.6,6.6-6.6,6.6s-0.5,6.5,6.6,6.5c0,0,5.9,0.3,5.9-4.6h-3
			c0,0,0.1,1.8-2.7,1.8c0,0-3,0.2-3-3h8.9C28.7,18,29.7,10.6,22.8,10.6L22.8,10.6z M25.5,15.8h-5.6c0,0,0.4-2.6,3-2.6
			C25.5,13.1,25.5,15.8,25.5,15.8L25.5,15.8z M25.5,15.8"/>
	</g>
</g>
<g id="XMLID_457_">
	<path id="XMLID_824_" fill="#FFFFFF" d="M78-24.8h10v1.6c0,5.5-4.5,10-10,10c-5.5,0-10-4.5-10-10c0-5.5,4.5-10,10-10
		c2.2,0,4.3,0.7,6.1,2.1l-1.9,2.5c-1.2-0.9-2.7-1.4-4.2-1.4c-3.8,0-6.9,3.1-6.9,6.9c0,3.8,3.1,6.9,6.9,6.9c3.3,0,6-2.3,6.7-5.3H78
		V-24.8z"/>
	<polygon id="XMLID_527_" fill="#FFFFFF" points="98.9,-24.3 96.2,-24.3 96.2,-27.1 94,-27.1 94,-24.3 91.3,-24.3 91.3,-22.1 
		94,-22.1 94,-19.4 96.2,-19.4 96.2,-22.1 98.9,-22.1 	"/>
	<path id="XMLID_458_" fill="#FFFFFF" d="M96.7-24.8"/>
</g>
<g id="XMLID_17_">
	<g id="XMLID_59_">
		<path id="XMLID_60_" fill="#FFFFFF" d="M142.8-35.1c0.7,0,1.2,0.2,1.6,0.6c0.4,0.4,0.6,0.9,0.6,1.6c0,0.6-0.2,1.2-0.6,1.6
			c-0.4,0.4-1,0.6-1.8,0.6h0c-0.7,0-1.3-0.2-1.7-0.6c-0.4-0.4-0.6-1-0.6-1.6c0-0.6,0.2-1.2,0.7-1.6C141.3-34.9,142-35.1,142.8-35.1
			L142.8-35.1z M140.4-28.9h4.6V-16h-4.6V-28.9z M161.6-23.4v7.4H157v-6.9c0-0.9-0.2-1.6-0.5-2.1c-0.4-0.5-1-0.8-1.8-0.8
			c-0.6,0-1.2,0.2-1.5,0.5c-0.4,0.3-0.7,0.7-0.8,1.1c-0.1,0.1-0.1,0.3-0.1,0.5c0,0.2,0,0.4,0,0.6v7.2h-4.6c0-2.2,0-4.2,0-6v-4.4
			c0-0.6,0-1.2,0-1.6c0-0.4,0-0.7,0-0.9h4.6v1.8l0,0.1h0v-0.1c0.1-0.2,0.3-0.5,0.5-0.7c0.2-0.2,0.5-0.5,0.8-0.7
			c0.3-0.2,0.7-0.4,1.2-0.5c0.5-0.1,1-0.2,1.6-0.2c0.8,0,1.4,0.1,2.1,0.3c0.7,0.2,1.2,0.6,1.7,1.1c0.5,0.5,0.8,1.1,1.1,1.8
			C161.5-25.2,161.6-24.4,161.6-23.4L161.6-23.4z M161.6-23.4"/>
	</g>
</g>
</svg>
