<?xml version="1.0" encoding="utf-8"?>
<!-- Generator: Adobe Illustrator 19.0.0, SVG Export Plug-In . SVG Version: 6.00 Build 0)  -->
<svg version="1.1" id="Capa_1" xmlns="http://www.w3.org/2000/svg" xmlns:xlink="http://www.w3.org/1999/xlink" x="0px" y="0px"
	 viewBox="0 0 80 80" style="enable-background:new 0 0 80 80;" xml:space="preserve">
<style type="text/css">
	.st0{fill:#4176F8;}
	.st1{opacity:0.2;}
</style>
<g id="XMLID_31_">
	<g id="XMLID_27_">
		<g id="XMLID_1881_">
			<g id="XMLID_1884_">
				<path id="XMLID_1885_" class="st0" d="M124.3,26.8c-0.4,0-0.9-0.2-1.2-0.5c-0.6-0.7-0.6-1.7,0.1-2.4c0.2-0.2,2-2.2-0.2-5.6
					c-3.2-4.8-1.2-8.3,0.3-9.6c0.7-0.6,1.8-0.5,2.4,0.2c0.6,0.7,0.5,1.8-0.2,2.4c-0.3,0.3-1.8,1.9,0.3,5.1c3.1,4.7,1.2,8.5-0.2,9.9
					C125.1,26.6,124.7,26.8,124.3,26.8z"/>
			</g>
			<g id="XMLID_1882_">
				<path id="XMLID_1883_" class="st0" d="M134.2,26.8c-0.4,0-0.9-0.2-1.2-0.5c-0.6-0.7-0.6-1.7,0.1-2.4c0.2-0.2,2-2.2-0.2-5.6
					c-3.2-4.8-1.2-8.3,0.3-9.6c0.7-0.6,1.8-0.5,2.4,0.2c0.6,0.7,0.5,1.8-0.2,2.4c-0.3,0.3-1.8,1.9,0.3,5.1c3.1,4.7,1.2,8.5-0.2,9.9
					C135.1,26.6,134.7,26.8,134.2,26.8z"/>
			</g>
		</g>
		<g id="XMLID_28_">
			<g id="XMLID_29_">
				<path id="XMLID_30_" class="st0" d="M114.8,26.8c-0.4,0-0.9-0.2-1.2-0.5c-0.6-0.7-0.6-1.7,0.1-2.4c0.2-0.2,2-2.2-0.2-5.6
					c-3.2-4.8-1.2-8.3,0.3-9.6c0.7-0.6,1.8-0.5,2.4,0.2c0.6,0.7,0.5,1.8-0.2,2.4c-0.3,0.3-1.8,1.9,0.3,5.1c3.1,4.7,1.2,8.5-0.2,9.9
					C115.7,26.6,115.3,26.8,114.8,26.8z"/>
			</g>
		</g>
	</g>
	<path id="XMLID_1874_" class="st0" d="M155.7,38.3h-0.9v-2.4c0,0,0-0.1,0-0.1c0,0,0-0.1,0-0.1c0-1.4-1.2-2.6-2.6-2.6H94.3
		c-1.1,0-2,0.7-2.4,1.7c-0.2,0.4-0.3,0.7-0.3,1.2v3.5c0,0.8,0,1.5,0.1,2.3c0.8,11.2,7.6,20.8,17.3,25.5c0.1,2.5,2.2,4.5,4.7,4.5
		c0,0,0.1,0,0.1,0c0,0,0,0,0,0h18.8c0.2,0,0.4,0,0.6-0.1c2.1-0.4,3.6-2.1,3.8-4.2c5.5-2.6,10.1-6.8,13.3-12c0.2,0.1,0.5,0.1,0.8,0.1
		h4.4c3.7,0,7.2-2.3,8.4-5.8C165.7,43.8,161.3,38.3,155.7,38.3L155.7,38.3z M149.4,39.7c-0.2,14-11.6,25.4-25.7,25.4h-1.2
		c-14.1,0-25.5-11.4-25.7-25.4v-1.5h52.5V39.7z M155.7,50.8h-3.1c1-2.5,1.6-5,2-7.8h0.9c1.7,0,3.3,1,3.8,2.6
		C160.2,48.3,158.2,50.8,155.7,50.8L155.7,50.8z"/>
</g>
<g id="XMLID_33_">
	<path id="XMLID_1766_" class="st0" d="M-69.5,39.3h53.6c0.8,0,1.5,0.3,2.1,0.9s0.9,1.3,0.9,2.1s-0.3,1.5-0.9,2.1
		c-0.6,0.6-1.3,0.9-2.1,0.9h-53.6c-0.8,0-1.5-0.3-2.1-0.9c-0.6-0.6-0.9-1.3-0.9-2.1s0.3-1.5,0.9-2.1S-70.3,39.3-69.5,39.3z"/>
	<path id="XMLID_1704_" class="st0" d="M-69.5,63.1h53.6c0.8,0,1.5,0.3,2.1,0.9c0.6,0.6,0.9,1.3,0.9,2.1s-0.3,1.5-0.9,2.1
		c-0.6,0.6-1.3,0.9-2.1,0.9h-53.6c-0.8,0-1.5-0.3-2.1-0.9c-0.6-0.6-0.9-1.3-0.9-2.1s0.3-1.5,0.9-2.1C-71,63.4-70.3,63.1-69.5,63.1z"
		/>
	<path id="XMLID_1698_" class="st0" d="M-69.5,51.2h41.7c0.8,0,1.5,0.3,2.1,0.9c0.6,0.6,0.9,1.3,0.9,2.1c0,0.8-0.3,1.5-0.9,2.1
		c-0.6,0.6-1.3,0.9-2.1,0.9h-41.7c-0.8,0-1.5-0.3-2.1-0.9c-0.6-0.6-0.9-1.3-0.9-2.1c0-0.8,0.3-1.5,0.9-2.1
		C-71,51.5-70.3,51.2-69.5,51.2z"/>
	<circle id="XMLID_32_" class="st0" cx="-61.4" cy="22" r="11.1"/>
</g>
<g id="XMLID_34_">
	<g id="XMLID_35_">
		<g id="XMLID_40_" class="st1">
			<g id="XMLID_1886_">
				<path id="XMLID_1920_" class="st0" d="M71.4,34l-2.8,30.3H11.4L8.6,34H71.4 M73.1,29.1H7c-3.4,0-3.5,1.6-3.3,3.6l3,32.8
					c0.2,2,0.7,3.6,4,3.6h58.7c3.4,0,3.8-1.6,4-3.6l3-32.8C76.6,30.7,76.4,29.1,73.1,29.1L73.1,29.1z"/>
			</g>
			<g id="XMLID_41_">
				<path id="XMLID_42_" class="st0" d="M70.6,21.1c-0.4-1.6-2.4-2.9-4.4-2.9H41.4c-2,0-4.8-1.2-6.3-2.6l-2.2-2.1
					c-1.4-1.4-4.3-2.6-6.3-2.6H14.8c-2,0-3.8,1.6-4.1,3.6L9.7,24h61.7L70.6,21.1z"/>
			</g>
		</g>
		<g id="XMLID_1879_">
			<path id="XMLID_1880_" class="st0" d="M71.4,33.9l-2.8,30.3H11.4L8.6,33.9H71.4 M73,29H6.9c-3.4,0-3.5,1.6-3.3,3.6l3,32.8
				c0.2,2,0.7,3.6,4,3.6h58.7c3.4,0,3.8-1.6,4-3.6l3-32.8C76.6,30.7,76.4,29,73,29L73,29z"/>
		</g>
		<g id="XMLID_36_">
			<path id="XMLID_37_" class="st0" d="M70.6,21c-0.4-1.6-2.4-2.9-4.4-2.9H41.4c-2,0-4.8-1.2-6.3-2.6l-2.2-2.1
				c-1.4-1.4-4.3-2.6-6.3-2.6H14.8c-2,0-3.9,1.6-4.1,3.6l-1.1,9.5h61.7L70.6,21z"/>
		</g>
	</g>
</g>
</svg>
