<?xml version="1.0" encoding="utf-8"?>
<!-- Generator: Adobe Illustrator 19.0.0, SVG Export Plug-In . SVG Version: 6.00 Build 0)  -->
<svg version="1.1" id="Capa_1" xmlns="http://www.w3.org/2000/svg" xmlns:xlink="http://www.w3.org/1999/xlink" x="0px" y="0px"
	 viewBox="0 0 80 80" style="enable-background:new 0 0 80 80;" xml:space="preserve">
<style type="text/css">
	.st0{fill:#ffffff;stroke:#ffffff;stroke-width:0.7;stroke-miterlimit:10;}
	.st1{fill:#ffffff;}
	.st2{opacity:0.2;}
</style>
<g id="XMLID_31_">
	<g id="XMLID_27_">
		<g id="XMLID_1881_">
			<g id="XMLID_1884_">
				<path id="XMLID_1885_" class="st0" d="M115.7,30.7c-0.3,0-0.6-0.1-0.9-0.4c-0.4-0.5-0.4-1.2,0-1.7c0.1-0.1,1.4-1.5-0.2-3.9
					c-2.2-3.3-0.8-5.8,0.2-6.7c0.5-0.4,1.2-0.3,1.7,0.2c0.4,0.5,0.3,1.2-0.2,1.7c-0.2,0.2-1.3,1.3,0.2,3.6c2.2,3.3,0.8,6-0.2,6.9
					C116.3,30.6,116,30.7,115.7,30.7z"/>
			</g>
			<g id="XMLID_1882_">
				<path id="XMLID_1883_" class="st0" d="M122.7,30.7c-0.3,0-0.6-0.1-0.9-0.4c-0.4-0.5-0.4-1.2,0-1.7c0.1-0.1,1.4-1.5-0.2-3.9
					c-2.2-3.3-0.8-5.8,0.2-6.7c0.5-0.4,1.2-0.3,1.7,0.2c0.4,0.5,0.3,1.2-0.2,1.7c-0.2,0.2-1.3,1.3,0.2,3.6c2.2,3.3,0.8,6-0.2,6.9
					C123.3,30.6,123,30.7,122.7,30.7z"/>
			</g>
		</g>
		<g id="XMLID_28_">
			<g id="XMLID_29_">
				<path id="XMLID_30_" class="st0" d="M109.1,30.7c-0.3,0-0.6-0.1-0.9-0.4c-0.4-0.5-0.4-1.2,0-1.7c0.1-0.1,1.4-1.5-0.2-3.9
					c-2.2-3.3-0.8-5.8,0.2-6.7c0.5-0.4,1.2-0.3,1.7,0.2c0.4,0.5,0.3,1.2-0.2,1.7c-0.2,0.2-1.3,1.3,0.2,3.6c2.2,3.3,0.8,6-0.2,6.9
					C109.7,30.6,109.4,30.7,109.1,30.7z"/>
			</g>
		</g>
	</g>
	<path id="XMLID_1874_" class="st1" d="M137.7,38.8h-0.6v-1.7c0,0,0-0.1,0-0.1c0,0,0-0.1,0-0.1c0-1-0.8-1.8-1.8-1.8H94.7
		c-0.8,0-1.4,0.5-1.7,1.2c-0.1,0.2-0.2,0.5-0.2,0.8v2.5c0,0.5,0,1.1,0.1,1.6C93.5,49,98.2,55.7,105,59c0.1,1.8,1.5,3.2,3.3,3.2
		c0,0,0,0,0.1,0c0,0,0,0,0,0h13.2c0.1,0,0.3,0,0.4-0.1c1.4-0.3,2.6-1.5,2.7-3c3.9-1.8,7.1-4.8,9.3-8.4c0.2,0.1,0.4,0.1,0.5,0.1h3.1
		c2.6,0,5.1-1.6,5.9-4.1C144.7,42.6,141.6,38.8,137.7,38.8L137.7,38.8z M133.3,39.8c-0.1,9.8-8.1,17.8-18,17.8h-0.8
		c-9.8,0-17.9-7.9-18-17.8v-1h36.8V39.8z M137.7,47.5h-2.2c0.7-1.7,1.2-3.5,1.4-5.4l0.7,0c1.2,0,2.3,0.7,2.7,1.8
		C140.9,45.8,139.5,47.5,137.7,47.5L137.7,47.5z"/>
</g>
<g id="XMLID_33_">
	<path id="XMLID_1766_" class="st1" d="M-51.5,39.5H-14c0.6,0,1.1,0.2,1.5,0.6c0.4,0.4,0.6,0.9,0.6,1.5c0,0.6-0.2,1.1-0.6,1.5
		c-0.4,0.4-0.9,0.6-1.5,0.6h-37.5c-0.6,0-1.1-0.2-1.5-0.6c-0.4-0.4-0.6-0.9-0.6-1.5c0-0.6,0.2-1.1,0.6-1.5
		C-52.6,39.7-52.1,39.5-51.5,39.5z"/>
	<path id="XMLID_1704_" class="st1" d="M-51.5,56.2H-14c0.6,0,1.1,0.2,1.5,0.6s0.6,0.9,0.6,1.5c0,0.6-0.2,1.1-0.6,1.5
		s-0.9,0.6-1.5,0.6h-37.5c-0.6,0-1.1-0.2-1.5-0.6s-0.6-0.9-0.6-1.5c0-0.6,0.2-1.1,0.6-1.5S-52.1,56.2-51.5,56.2z"/>
	<path id="XMLID_1698_" class="st1" d="M-51.5,47.8h29.2c0.6,0,1.1,0.2,1.5,0.6c0.4,0.4,0.6,0.9,0.6,1.5c0,0.6-0.2,1.1-0.6,1.5
		c-0.4,0.4-0.9,0.6-1.5,0.6h-29.2c-0.6,0-1.1-0.2-1.5-0.6s-0.6-0.9-0.6-1.5c0-0.6,0.2-1.1,0.6-1.5S-52.1,47.8-51.5,47.8z"/>
	<circle id="XMLID_32_" class="st1" cx="-45.9" cy="27.4" r="7.7"/>
</g>
<g id="XMLID_40_" class="st2">
	<g id="XMLID_1886_">
		<path id="XMLID_1920_" class="st1" d="M62.7,35.8L60.8,57h-40l-1.9-21.2H62.7 M63.9,32.4H17.6c-2.3,0-2.5,1.1-2.3,2.5l2.1,23
			c0.1,1.4,0.5,2.5,2.8,2.5h41.1c2.4,0,2.7-1.1,2.8-2.5l2.1-23C66.3,33.5,66.2,32.4,63.9,32.4L63.9,32.4z"/>
	</g>
	<g id="XMLID_41_">
		<path id="XMLID_42_" class="st1" d="M62.2,26.8c-0.3-1.1-1.7-2-3.1-2H41.7c-1.4,0-3.4-0.8-4.4-1.8l-1.5-1.5c-1-1-3-1.8-4.4-1.8
			h-8.3c-1.4,0-2.7,1.1-2.8,2.5l-0.7,6.6h43.2L62.2,26.8z"/>
	</g>
</g>
<g id="XMLID_1879_">
	<path id="XMLID_1880_" class="st1" d="M62.7,35.7L60.8,57h-40l-1.9-21.2H62.7 M63.9,32.3H17.6c-2.3,0-2.5,1.1-2.3,2.5l2.1,23
		c0.1,1.4,0.5,2.5,2.8,2.5h41.1c2.4,0,2.7-1.1,2.8-2.5l2.1-23C66.3,33.5,66.2,32.3,63.9,32.3L63.9,32.3z"/>
</g>
<g id="XMLID_36_">
	<path id="XMLID_37_" class="st1" d="M62.2,26.7c-0.3-1.1-1.7-2-3.1-2H41.7c-1.4,0-3.4-0.8-4.4-1.8l-1.5-1.5c-1-1-3-1.8-4.4-1.8
		h-8.3c-1.4,0-2.7,1.1-2.9,2.6l-0.7,6.6h43.2L62.2,26.7z"/>
</g>
</svg>
