<?xml version="1.0" encoding="utf-8"?>
<!-- Generator: Adobe Illustrator 19.0.0, SVG Export Plug-In . SVG Version: 6.00 Build 0)  -->
<svg version="1.1" id="Capa_1" xmlns="http://www.w3.org/2000/svg" xmlns:xlink="http://www.w3.org/1999/xlink" x="0px" y="0px"
	 viewBox="0 0 80 80" style="enable-background:new 0 0 80 80;" xml:space="preserve">
<style type="text/css">
	.st0{fill:#ffffff;stroke:#ffffff;stroke-width:0.7;stroke-miterlimit:10;}
	.st1{fill:#ffffff;}
	.st2{opacity:0.2;}
</style>
<g id="XMLID_31_">
	<g id="XMLID_27_">
		<g id="XMLID_1881_">
			<g id="XMLID_1884_">
				<path id="XMLID_1885_" class="st0" d="M37.4,30.7c-0.3,0-0.6-0.1-0.9-0.4c-0.4-0.5-0.4-1.2,0-1.7c0.1-0.1,1.4-1.5-0.2-3.9
					c-2.2-3.3-0.8-5.8,0.2-6.7c0.5-0.4,1.2-0.3,1.7,0.2c0.4,0.5,0.3,1.2-0.2,1.7c-0.2,0.2-1.3,1.3,0.2,3.6c2.2,3.3,0.8,6-0.2,6.9
					C38,30.6,37.7,30.7,37.4,30.7z"/>
			</g>
			<g id="XMLID_1882_">
				<path id="XMLID_1883_" class="st0" d="M44.4,30.7c-0.3,0-0.6-0.1-0.9-0.4c-0.4-0.5-0.4-1.2,0-1.7c0.1-0.1,1.4-1.5-0.2-3.9
					c-2.2-3.3-0.8-5.8,0.2-6.7c0.5-0.4,1.2-0.3,1.7,0.2c0.4,0.5,0.3,1.2-0.2,1.7c-0.2,0.2-1.3,1.3,0.2,3.6c2.2,3.3,0.8,6-0.2,6.9
					C45,30.6,44.7,30.7,44.4,30.7z"/>
			</g>
		</g>
		<g id="XMLID_28_">
			<g id="XMLID_29_">
				<path id="XMLID_30_" class="st0" d="M30.9,30.7c-0.3,0-0.6-0.1-0.9-0.4c-0.4-0.5-0.4-1.2,0-1.7c0.1-0.1,1.4-1.5-0.2-3.9
					c-2.2-3.3-0.8-5.8,0.2-6.7c0.5-0.4,1.2-0.3,1.7,0.2c0.4,0.5,0.3,1.2-0.2,1.7c-0.2,0.2-1.3,1.3,0.2,3.6c2.2,3.3,0.8,6-0.2,6.9
					C31.4,30.6,31.1,30.7,30.9,30.7z"/>
			</g>
		</g>
	</g>
	<path id="XMLID_1874_" class="st1" d="M59.4,38.8h-0.6v-1.7c0,0,0-0.1,0-0.1c0,0,0-0.1,0-0.1c0-1-0.8-1.8-1.8-1.8H16.4
		c-0.8,0-1.4,0.5-1.7,1.2c-0.1,0.2-0.2,0.5-0.2,0.8v2.5c0,0.5,0,1.1,0.1,1.6C15.2,49,20,55.7,26.7,59c0.1,1.8,1.5,3.2,3.3,3.2
		c0,0,0,0,0.1,0c0,0,0,0,0,0h13.2c0.1,0,0.3,0,0.4-0.1c1.4-0.3,2.6-1.5,2.7-3c3.9-1.8,7.1-4.8,9.3-8.4c0.2,0.1,0.4,0.1,0.5,0.1h3.1
		c2.6,0,5.1-1.6,5.9-4.1C66.5,42.6,63.4,38.8,59.4,38.8L59.4,38.8z M55.1,39.8c-0.1,9.8-8.1,17.8-18,17.8h-0.8
		c-9.8,0-17.9-7.9-18-17.8v-1h36.8V39.8z M59.4,47.5h-2.2c0.7-1.7,1.2-3.5,1.4-5.4l0.7,0c1.2,0,2.3,0.7,2.7,1.8
		C62.6,45.8,61.2,47.5,59.4,47.5L59.4,47.5z"/>
</g>
<g id="XMLID_33_">
	<path id="XMLID_1766_" class="st1" d="M-51.1,39.5h37.5c0.6,0,1.1,0.2,1.5,0.6c0.4,0.4,0.6,0.9,0.6,1.5c0,0.6-0.2,1.1-0.6,1.5
		c-0.4,0.4-0.9,0.6-1.5,0.6h-37.5c-0.6,0-1.1-0.2-1.5-0.6c-0.4-0.4-0.6-0.9-0.6-1.5c0-0.6,0.2-1.1,0.6-1.5
		C-52.1,39.7-51.7,39.5-51.1,39.5z"/>
	<path id="XMLID_1704_" class="st1" d="M-51.1,56.2h37.5c0.6,0,1.1,0.2,1.5,0.6c0.4,0.4,0.6,0.9,0.6,1.5c0,0.6-0.2,1.1-0.6,1.5
		c-0.4,0.4-0.9,0.6-1.5,0.6h-37.5c-0.6,0-1.1-0.2-1.5-0.6c-0.4-0.4-0.6-0.9-0.6-1.5c0-0.6,0.2-1.1,0.6-1.5
		C-52.1,56.4-51.7,56.2-51.1,56.2z"/>
	<path id="XMLID_1698_" class="st1" d="M-51.1,47.8h29.2c0.6,0,1.1,0.2,1.5,0.6c0.4,0.4,0.6,0.9,0.6,1.5c0,0.6-0.2,1.1-0.6,1.5
		c-0.4,0.4-0.9,0.6-1.5,0.6h-29.2c-0.6,0-1.1-0.2-1.5-0.6c-0.4-0.4-0.6-0.9-0.6-1.5c0-0.6,0.2-1.1,0.6-1.5
		C-52.1,48-51.7,47.8-51.1,47.8z"/>
	<circle id="XMLID_32_" class="st1" cx="-45.4" cy="27.4" r="7.7"/>
</g>
<g id="XMLID_34_">
	<g id="XMLID_40_" class="st2">
		<g id="XMLID_1886_">
			<path id="XMLID_1920_" class="st1" d="M-15-15.1l-1.9,21.2h-40l-1.9-21.2H-15 M-13.8-18.5h-46.3c-2.3,0-2.5,1.1-2.3,2.5l2.1,23
				c0.1,1.4,0.5,2.5,2.8,2.5h41.1c2.4,0,2.7-1.1,2.8-2.5l2.1-23C-11.3-17.4-11.5-18.5-13.8-18.5L-13.8-18.5z"/>
		</g>
		<g id="XMLID_41_">
			<path id="XMLID_42_" class="st1" d="M-15.5-24.1c-0.3-1.1-1.7-2-3.1-2H-36c-1.4,0-3.4-0.8-4.4-1.8l-1.5-1.5c-1-1-3-1.8-4.4-1.8
				h-8.3c-1.4,0-2.7,1.1-2.8,2.5l-0.7,6.6H-15L-15.5-24.1z"/>
		</g>
	</g>
	<g id="XMLID_1879_">
		<path id="XMLID_1880_" class="st1" d="M-15-15.1l-1.9,21.2h-40l-1.9-21.2H-15 M-13.8-18.5h-46.3c-2.3,0-2.5,1.1-2.3,2.5l2.1,23
			c0.1,1.4,0.5,2.5,2.8,2.5h41.1c2.4,0,2.7-1.1,2.8-2.5l2.1-23C-11.3-17.4-11.5-18.5-13.8-18.5L-13.8-18.5z"/>
	</g>
	<g id="XMLID_36_">
		<path id="XMLID_37_" class="st1" d="M-15.5-24.2c-0.3-1.1-1.7-2-3.1-2H-36c-1.4,0-3.4-0.8-4.4-1.8l-1.5-1.5c-1-1-3-1.8-4.4-1.8
			h-8.3c-1.4,0-2.7,1.1-2.9,2.6l-0.7,6.6H-15L-15.5-24.2z"/>
	</g>
</g>
</svg>
