<?xml version="1.0" encoding="utf-8"?>
<!-- Generator: Adobe Illustrator 19.0.0, SVG Export Plug-In . SVG Version: 6.00 Build 0)  -->
<svg version="1.1" id="Capa_1" xmlns="http://www.w3.org/2000/svg" xmlns:xlink="http://www.w3.org/1999/xlink" x="0px" y="0px"
	 viewBox="0 0 80 80" style="enable-background:new 0 0 80 80;" xml:space="preserve">
<style type="text/css">
	.st0{fill:#4176F8;}
</style>
<g id="XMLID_31_">
	<g id="XMLID_27_">
		<g id="XMLID_1881_">
			<g id="XMLID_1884_">
				<path id="XMLID_1885_" class="st0" d="M124.3,26.8c-0.4,0-0.9-0.2-1.2-0.5c-0.6-0.7-0.6-1.7,0.1-2.4c0.2-0.2,2-2.2-0.2-5.6
					c-3.2-4.8-1.2-8.3,0.3-9.6c0.7-0.6,1.8-0.5,2.4,0.2c0.6,0.7,0.5,1.8-0.2,2.4c-0.3,0.3-1.8,1.9,0.3,5.1c3.1,4.7,1.2,8.5-0.2,9.9
					C125.1,26.6,124.7,26.8,124.3,26.8z"/>
			</g>
			<g id="XMLID_1882_">
				<path id="XMLID_1883_" class="st0" d="M134.2,26.8c-0.4,0-0.9-0.2-1.2-0.5c-0.6-0.7-0.6-1.7,0.1-2.4c0.2-0.2,2-2.2-0.2-5.6
					c-3.2-4.8-1.2-8.3,0.3-9.6c0.7-0.6,1.8-0.5,2.4,0.2c0.6,0.7,0.5,1.8-0.2,2.4c-0.3,0.3-1.8,1.9,0.3,5.1c3.1,4.7,1.2,8.5-0.2,9.9
					C135.1,26.6,134.7,26.8,134.2,26.8z"/>
			</g>
		</g>
		<g id="XMLID_28_">
			<g id="XMLID_29_">
				<path id="XMLID_30_" class="st0" d="M114.8,26.8c-0.4,0-0.9-0.2-1.2-0.5c-0.6-0.7-0.6-1.7,0.1-2.4c0.2-0.2,2-2.2-0.2-5.6
					c-3.2-4.8-1.2-8.3,0.3-9.6c0.7-0.6,1.8-0.5,2.4,0.2c0.6,0.7,0.5,1.8-0.2,2.4c-0.3,0.3-1.8,1.9,0.3,5.1c3.1,4.7,1.2,8.5-0.2,9.9
					C115.7,26.6,115.3,26.8,114.8,26.8z"/>
			</g>
		</g>
	</g>
	<path id="XMLID_1874_" class="st0" d="M155.7,38.3h-0.9v-2.4c0,0,0-0.1,0-0.1c0,0,0-0.1,0-0.1c0-1.4-1.2-2.6-2.6-2.6H94.3
		c-1.1,0-2,0.7-2.4,1.7c-0.2,0.4-0.3,0.7-0.3,1.2v3.5c0,0.8,0,1.5,0.1,2.3c0.8,11.2,7.6,20.8,17.3,25.5c0.1,2.5,2.2,4.5,4.7,4.5
		c0,0,0.1,0,0.1,0c0,0,0,0,0,0h18.8c0.2,0,0.4,0,0.6-0.1c2.1-0.4,3.6-2.1,3.8-4.2c5.5-2.6,10.1-6.8,13.3-12c0.2,0.1,0.5,0.1,0.8,0.1
		h4.4c3.7,0,7.2-2.3,8.4-5.8C165.7,43.8,161.3,38.3,155.7,38.3L155.7,38.3z M149.4,39.7c-0.2,14-11.6,25.4-25.7,25.4h-1.2
		c-14.1,0-25.5-11.4-25.7-25.4v-1.5h52.5V39.7z M155.7,50.8h-3.1c1-2.5,1.6-5,2-7.8h0.9c1.7,0,3.3,1,3.8,2.6
		C160.2,48.3,158.2,50.8,155.7,50.8L155.7,50.8z"/>
</g>
<g id="XMLID_33_">
	<path id="XMLID_1766_" class="st0" d="M13.2,39.3h53.6c0.8,0,1.5,0.3,2.1,0.9s0.9,1.3,0.9,2.1s-0.3,1.5-0.9,2.1
		c-0.6,0.6-1.3,0.9-2.1,0.9H13.2c-0.8,0-1.5-0.3-2.1-0.9c-0.6-0.6-0.9-1.3-0.9-2.1s0.3-1.5,0.9-2.1S12.4,39.3,13.2,39.3z"/>
	<path id="XMLID_1704_" class="st0" d="M13.2,63.1h53.6c0.8,0,1.5,0.3,2.1,0.9c0.6,0.6,0.9,1.3,0.9,2.1s-0.3,1.5-0.9,2.1
		c-0.6,0.6-1.3,0.9-2.1,0.9H13.2c-0.8,0-1.5-0.3-2.1-0.9c-0.6-0.6-0.9-1.3-0.9-2.1s0.3-1.5,0.9-2.1C11.7,63.4,12.4,63.1,13.2,63.1z"
		/>
	<path id="XMLID_1698_" class="st0" d="M13.2,51.2h41.7c0.8,0,1.5,0.3,2.1,0.9c0.6,0.6,0.9,1.3,0.9,2.1c0,0.8-0.3,1.5-0.9,2.1
		c-0.6,0.6-1.3,0.9-2.1,0.9H13.2c-0.8,0-1.5-0.3-2.1-0.9c-0.6-0.6-0.9-1.3-0.9-2.1c0-0.8,0.3-1.5,0.9-2.1
		C11.7,51.5,12.4,51.2,13.2,51.2z"/>
	<circle id="XMLID_32_" class="st0" cx="21.3" cy="22" r="11.1"/>
</g>
</svg>
