<?xml version="1.0" encoding="utf-8"?>
<!-- Generator: Adobe Illustrator 19.0.0, SVG Export Plug-In . SVG Version: 6.00 Build 0)  -->
<svg version="1.1" id="Capa_1" xmlns="http://www.w3.org/2000/svg" xmlns:xlink="http://www.w3.org/1999/xlink" x="0px" y="0px"
	 viewBox="0 0 30 30" enable-background="new 0 0 30 30" xml:space="preserve">
<g id="XMLID_1662_">
	<g id="XMLID_44_">
		<path id="XMLID_45_" fill="#FFFFFF" d="M19.9,3.4h-1.3c-3.5,0-6.4,2.8-6.4,6.4v2.7h-2.2c-0.2,0-0.4,0.2-0.4,0.4V16
			c0,0.2,0.2,0.4,0.4,0.4h2.2v9.8c0,0.2,0.2,0.4,0.4,0.4h3.2c0.2,0,0.4-0.2,0.4-0.4v-9.8h3.2c0.2,0,0.4-0.2,0.4-0.4v-3.2
			c0-0.2-0.2-0.4-0.4-0.4h-3.2V9.7c0-1.3,1-2.3,2.3-2.3h1.3c0.2,0,0.4-0.2,0.4-0.4V3.8C20.3,3.5,20.1,3.4,19.9,3.4L19.9,3.4z
			 M19.9,3.4"/>
	</g>
</g>
<g id="XMLID_1572_">
	<path id="XMLID_1644_" fill="#FFFFFF" d="M-93.8-30.4c-0.9,0.4-1.8,0.6-2.8,0.8c1-0.6,1.8-1.5,2.1-2.7c-0.9,0.6-2,1-3.1,1.2
		c-0.9-0.9-2.1-1.5-3.5-1.5c-2.7,0-4.8,2.2-4.8,4.8c0,0.4,0,0.7,0.1,1.1c-4-0.2-7.6-2.1-10-5.1c-0.4,0.7-0.7,1.5-0.7,2.4
		c0,1.7,0.9,3.2,2.2,4c-0.8,0-1.5-0.2-2.2-0.6v0.1c0,2.3,1.7,4.3,3.9,4.8c-0.4,0.1-0.8,0.2-1.3,0.2c-0.3,0-0.6,0-0.9-0.1
		c0.6,1.9,2.4,3.3,4.5,3.4c-1.7,1.3-3.7,2.1-6,2.1c-0.4,0-0.8,0-1.2-0.1c2.1,1.4,4.7,2.2,7.4,2.2c8.9,0,13.8-7.4,13.8-13.8l0-0.6
		C-95.2-28.5-94.4-29.4-93.8-30.4L-93.8-30.4z M-93.8-30.4"/>
</g>
<g id="XMLID_938_">
	<g id="XMLID_105_">
		<path id="XMLID_111_" fill="#FFFFFF" d="M14.1-24c0,0,2.6-0.2,2.6-3.3c0-3.1-2.1-4.6-4.8-4.6H3v17.1h8.9c0,0,5.4,0.2,5.4-5
			C17.3-19.7,17.5-24,14.1-24L14.1-24z M6.9-28.7h5c0,0,1.2,0,1.2,1.8c0,1.8-0.7,2-1.5,2H6.9V-28.7z M11.6-17.7H6.9v-4.6h5
			c0,0,1.8,0,1.8,2.3C13.7-18,12.3-17.7,11.6-17.7L11.6-17.7z M11.6-17.7"/>
		<rect id="XMLID_110_" x="20.9" y="-30.8" fill="#FFFFFF" width="7.1" height="2.1"/>
		<path id="XMLID_106_" fill="#FFFFFF" d="M24.5-27.4c-6.6,0-6.6,6.6-6.6,6.6s-0.5,6.5,6.6,6.5c0,0,5.9,0.3,5.9-4.6h-3
			c0,0,0.1,1.8-2.7,1.8c0,0-3,0.2-3-3h8.9C30.5-20,31.5-27.4,24.5-27.4L24.5-27.4z M27.2-22.3h-5.6c0,0,0.4-2.6,3-2.6
			C27.2-24.9,27.2-22.3,27.2-22.3L27.2-22.3z M27.2-22.3"/>
	</g>
</g>
<g id="XMLID_457_">
	<path id="XMLID_824_" fill="#FFFFFF" d="M78-24.8h10v1.6c0,5.5-4.5,10-10,10c-5.5,0-10-4.5-10-10c0-5.5,4.5-10,10-10
		c2.2,0,4.3,0.7,6.1,2.1l-1.9,2.5c-1.2-0.9-2.7-1.4-4.2-1.4c-3.8,0-6.9,3.1-6.9,6.9c0,3.8,3.1,6.9,6.9,6.9c3.3,0,6-2.3,6.7-5.3H78
		V-24.8z"/>
	<polygon id="XMLID_527_" fill="#FFFFFF" points="98.9,-24.3 96.2,-24.3 96.2,-27.1 94,-27.1 94,-24.3 91.3,-24.3 91.3,-22.1 
		94,-22.1 94,-19.4 96.2,-19.4 96.2,-22.1 98.9,-22.1 	"/>
	<path id="XMLID_458_" fill="#FFFFFF" d="M96.7-24.8"/>
</g>
<g id="XMLID_17_">
	<g id="XMLID_59_">
		<path id="XMLID_60_" fill="#FFFFFF" d="M142.8-35.1c0.7,0,1.2,0.2,1.6,0.6c0.4,0.4,0.6,0.9,0.6,1.6c0,0.6-0.2,1.2-0.6,1.6
			c-0.4,0.4-1,0.6-1.8,0.6h0c-0.7,0-1.3-0.2-1.7-0.6c-0.4-0.4-0.6-1-0.6-1.6c0-0.6,0.2-1.2,0.7-1.6C141.3-34.9,142-35.1,142.8-35.1
			L142.8-35.1z M140.4-28.9h4.6V-16h-4.6V-28.9z M161.6-23.4v7.4H157v-6.9c0-0.9-0.2-1.6-0.5-2.1c-0.4-0.5-1-0.8-1.8-0.8
			c-0.6,0-1.2,0.2-1.5,0.5c-0.4,0.3-0.7,0.7-0.8,1.1c-0.1,0.1-0.1,0.3-0.1,0.5c0,0.2,0,0.4,0,0.6v7.2h-4.6c0-2.2,0-4.2,0-6v-4.4
			c0-0.6,0-1.2,0-1.6c0-0.4,0-0.7,0-0.9h4.6v1.8l0,0.1h0v-0.1c0.1-0.2,0.3-0.5,0.5-0.7c0.2-0.2,0.5-0.5,0.8-0.7
			c0.3-0.2,0.7-0.4,1.2-0.5c0.5-0.1,1-0.2,1.6-0.2c0.8,0,1.4,0.1,2.1,0.3c0.7,0.2,1.2,0.6,1.7,1.1c0.5,0.5,0.8,1.1,1.1,1.8
			C161.5-25.2,161.6-24.4,161.6-23.4L161.6-23.4z M161.6-23.4"/>
	</g>
</g>
<g id="XMLID_1_">
	<path id="XMLID_2_" fill="#FFFFFF" d="M-41.3-24.3c0-1.9-1.6-3.5-3.5-3.5c-1.9,0-3.5,1.6-3.5,3.5s1.6,3.5,3.5,3.5
		C-42.8-20.8-41.3-22.4-41.3-24.3z M-39.4-24.3c0,3-2.4,5.3-5.3,5.3c-3,0-5.3-2.4-5.3-5.3s2.4-5.3,5.3-5.3
		C-41.8-29.6-39.4-27.2-39.4-24.3z M-37.9-29.8c0,0.7-0.6,1.2-1.2,1.2c-0.7,0-1.2-0.6-1.2-1.2c0-0.7,0.6-1.2,1.2-1.2
		C-38.5-31.1-37.9-30.5-37.9-29.8z M-44.7-32.8c-1.5,0-4.8-0.1-6.1,0.4c-0.5,0.2-0.8,0.4-1.2,0.8c-0.4,0.4-0.6,0.7-0.8,1.2
		c-0.5,1.4-0.4,4.6-0.4,6.1s-0.1,4.8,0.4,6.1c0.2,0.5,0.4,0.8,0.8,1.2c0.4,0.4,0.7,0.6,1.2,0.8c1.4,0.5,4.6,0.4,6.1,0.4
		s4.8,0.1,6.1-0.4c0.5-0.2,0.8-0.4,1.2-0.8c0.4-0.4,0.6-0.7,0.8-1.2c0.5-1.4,0.4-4.6,0.4-6.1s0.1-4.8-0.4-6.1
		c-0.2-0.5-0.4-0.8-0.8-1.2s-0.7-0.6-1.2-0.8C-40-33-43.2-32.8-44.7-32.8z M-34.3-24.3c0,1.4,0,2.9-0.1,4.3
		c-0.1,1.7-0.5,3.1-1.7,4.4c-1.2,1.2-2.7,1.6-4.4,1.7c-1.4,0.1-2.9,0.1-4.3,0.1s-2.9,0-4.3-0.1c-1.7-0.1-3.1-0.5-4.4-1.7
		c-1.2-1.2-1.6-2.7-1.7-4.4c-0.1-1.4-0.1-2.9-0.1-4.3s0-2.9,0.1-4.3c0.1-1.7,0.5-3.1,1.7-4.4c1.2-1.2,2.7-1.6,4.4-1.7
		c1.4-0.1,2.9-0.1,4.3-0.1s2.9,0,4.3,0.1c1.7,0.1,3.1,0.5,4.4,1.7c1.2,1.2,1.6,2.7,1.7,4.4C-34.3-27.1-34.3-25.7-34.3-24.3z"/>
</g>
</svg>
