<?xml version="1.0" encoding="utf-8"?>
<!-- Generator: Adobe Illustrator 19.0.0, SVG Export Plug-In . SVG Version: 6.00 Build 0)  -->
<svg version="1.1" id="Capa_1" xmlns="http://www.w3.org/2000/svg" xmlns:xlink="http://www.w3.org/1999/xlink" x="0px" y="0px"
	 viewBox="-243 102.5 80 80" style="enable-background:new -243 102.5 80 80;" xml:space="preserve">
<style type="text/css">
	.st0{fill:#4176F8;stroke:#4176F8;stroke-width:0.7;stroke-miterlimit:10;}
	.st1{fill:#4176F8;}
	.st2{opacity:0.2;}
	.st3{fill:#FFFFFF;}
</style>
<g id="XMLID_31_">
	<g id="XMLID_27_">
		<g id="XMLID_1881_">
			<g id="XMLID_1884_">
				<path id="XMLID_1885_" class="st0" d="M12.2,133.2c-0.3,0-0.6-0.1-0.9-0.4c-0.4-0.5-0.4-1.2,0-1.7c0.1-0.1,1.4-1.5-0.2-3.9
					c-2.2-3.3-0.8-5.8,0.2-6.7c0.5-0.4,1.2-0.3,1.7,0.2c0.4,0.5,0.3,1.2-0.2,1.7c-0.2,0.2-1.3,1.3,0.2,3.6c2.2,3.3,0.8,6-0.2,6.9
					C12.8,133.1,12.5,133.2,12.2,133.2z"/>
			</g>
			<g id="XMLID_1882_">
				<path id="XMLID_1883_" class="st0" d="M19.2,133.2c-0.3,0-0.6-0.1-0.9-0.4c-0.4-0.5-0.4-1.2,0-1.7c0.1-0.1,1.4-1.5-0.2-3.9
					c-2.2-3.3-0.8-5.8,0.2-6.7c0.5-0.4,1.2-0.3,1.7,0.2c0.4,0.5,0.3,1.2-0.2,1.7c-0.2,0.2-1.3,1.3,0.2,3.6c2.2,3.3,0.8,6-0.2,6.9
					C19.8,133.1,19.5,133.2,19.2,133.2z"/>
			</g>
		</g>
		<g id="XMLID_28_">
			<g id="XMLID_29_">
				<path id="XMLID_30_" class="st0" d="M5.6,133.2c-0.3,0-0.6-0.1-0.9-0.4c-0.4-0.5-0.4-1.2,0-1.7c0.1-0.1,1.4-1.5-0.2-3.9
					c-2.2-3.3-0.8-5.8,0.2-6.7c0.5-0.4,1.2-0.3,1.7,0.2c0.4,0.5,0.3,1.2-0.2,1.7C6,122.6,5,123.7,6.5,126c2.2,3.3,0.8,6-0.2,6.9
					C6.1,133.1,5.9,133.2,5.6,133.2z"/>
			</g>
		</g>
	</g>
	<path id="XMLID_1874_" class="st1" d="M34.2,141.3h-0.6v-1.7v-0.1v-0.1c0-1-0.8-1.8-1.8-1.8H-8.9c-0.8,0-1.4,0.5-1.7,1.2
		c-0.1,0.2-0.2,0.5-0.2,0.8v2.5c0,0.5,0,1.1,0.1,1.6c0.6,7.8,5.4,14.5,12.1,17.8c0.1,1.8,1.5,3.2,3.3,3.2c0,0,0,0,0.1,0l0,0H18
		c0.1,0,0.3,0,0.4-0.1c1.4-0.3,2.6-1.5,2.7-3c3.9-1.8,7.1-4.8,9.3-8.4c0.2,0.1,0.4,0.1,0.5,0.1H34c2.6,0,5.1-1.6,5.9-4.1
		C41.2,145.1,38.2,141.3,34.2,141.3L34.2,141.3z M29.8,142.3c-0.1,9.8-8.1,17.8-18,17.8H11c-9.8,0-17.9-7.9-18-17.8v-1h36.8V142.3z
		 M34.2,150H32c0.7-1.7,1.2-3.5,1.4-5.4h0.7c1.2,0,2.3,0.7,2.7,1.8C37.3,148.3,36,150,34.2,150L34.2,150z"/>
</g>
<g>
	<path id="XMLID_1766_" class="st1" d="M-155,41h37.5c0.6,0,1.1,0.2,1.5,0.6c0.4,0.4,0.6,0.9,0.6,1.5s-0.2,1.1-0.6,1.5
		s-0.9,0.6-1.5,0.6H-155c-0.6,0-1.1-0.2-1.5-0.6c-0.4-0.4-0.6-0.9-0.6-1.5s0.2-1.1,0.6-1.5C-156,41.2-155.6,41-155,41z"/>
	<path id="XMLID_1704_" class="st1" d="M-155,57.7h37.5c0.6,0,1.1,0.2,1.5,0.6c0.4,0.4,0.6,0.9,0.6,1.5s-0.2,1.1-0.6,1.5
		s-0.9,0.6-1.5,0.6H-155c-0.6,0-1.1-0.2-1.5-0.6c-0.4-0.4-0.6-0.9-0.6-1.5s0.2-1.1,0.6-1.5C-156,57.9-155.6,57.7-155,57.7z"/>
	<path id="XMLID_1698_" class="st1" d="M-155,49.3h29.2c0.6,0,1.1,0.2,1.5,0.6c0.4,0.4,0.6,0.9,0.6,1.5s-0.2,1.1-0.6,1.5
		c-0.4,0.4-0.9,0.6-1.5,0.6H-155c-0.6,0-1.1-0.2-1.5-0.6c-0.4-0.4-0.6-0.9-0.6-1.5s0.2-1.1,0.6-1.5C-156,49.5-155.6,49.3-155,49.3z"
		/>
	<circle id="XMLID_32_" class="st1" cx="-149.3" cy="28.9" r="7.7"/>
</g>
<g id="XMLID_34_">
	<g id="XMLID_40_" class="st2">
		<g id="XMLID_1886_">
			<path id="XMLID_1920_" class="st1" d="M-258,87.4l-1.9,21.2h-40l-1.9-21.2H-258 M-256.8,84h-46.3c-2.3,0-2.5,1.1-2.3,2.5l2.1,23
				c0.1,1.4,0.5,2.5,2.8,2.5h41.1c2.4,0,2.7-1.1,2.8-2.5l2.1-23C-254.3,85.1-254.5,84-256.8,84L-256.8,84z"/>
		</g>
		<g id="XMLID_41_">
			<path id="XMLID_42_" class="st1" d="M-258.5,78.4c-0.3-1.1-1.7-2-3.1-2H-279c-1.4,0-3.4-0.8-4.4-1.8l-1.5-1.5c-1-1-3-1.8-4.4-1.8
				h-8.3c-1.4,0-2.7,1.1-2.8,2.5l-0.7,6.6h43.1L-258.5,78.4z"/>
		</g>
	</g>
	<g id="XMLID_1879_">
		<path id="XMLID_1880_" class="st1" d="M-258,87.4l-1.9,21.2h-40l-1.9-21.2H-258 M-256.8,84h-46.3c-2.3,0-2.5,1.1-2.3,2.5l2.1,23
			c0.1,1.4,0.5,2.5,2.8,2.5h41.1c2.4,0,2.7-1.1,2.8-2.5l2.1-23C-254.3,85.1-254.5,84-256.8,84L-256.8,84z"/>
	</g>
	<g id="XMLID_36_">
		<path id="XMLID_37_" class="st1" d="M-258.5,78.3c-0.3-1.1-1.7-2-3.1-2H-279c-1.4,0-3.4-0.8-4.4-1.8l-1.5-1.5c-1-1-3-1.8-4.4-1.8
			h-8.3c-1.4,0-2.7,1.1-2.9,2.6l-0.7,6.6h43.2L-258.5,78.3z"/>
	</g>
</g>
<path class="st3" d="M-222.7,41.4c0.8,0.8,2.1,0.8,3,0l8.2-8.2v32.4c0,0.6,0.2,1,0.6,1.5c0.4,0.4,0.9,0.6,1.5,0.6s1.1-0.2,1.5-0.6
	c0.4-0.4,0.6-0.9,0.6-1.5V33.3l8.2,8.2c0.8,0.8,2.1,0.8,3,0c0.8-0.8,0.8-2.1,0-3l-11.6-11.6c0-0.1-0.1-0.1-0.1-0.2
	c-0.4-0.4-0.9-0.6-1.5-0.6s-1.1,0.2-1.5,0.6c-0.1,0.1-0.1,0.1-0.1,0.2l-11.6,11.6C-223.6,39.3-223.6,40.6-222.7,41.4z"/>
<g>
	<path id="XMLID_7495_" class="st3" d="M-119.1,95.3c-4.8,0-8.7,3.9-8.7,8.7v6.1c0,4.8,3.9,8.7,8.7,8.7c4.8,0,8.7-3.9,8.7-8.7V104
		C-110.4,99.2-114.3,95.3-119.1,95.3z"/>
	<g id="XMLID_7457_">
		<path class="st3" d="M-128.3,124.8c1.9,2,3.7,2.4,6.1,2.4c0.3,0,0.7,0,1.1,0l0.3,0c0.5,0,1.1,0,1.7,0c0.6,0,1.2,0,1.7,0l0.3,0
			c0.4,0,0.7,0,1,0c2.4,0,4.2-0.4,6.1-2.4c1.4,0.5,4.9,1.7,4.9,2.5v11.1c0,0.1-0.1,0.1-0.1,0.1H-133c-0.1,0-0.1-0.1-0.1-0.1l0-11.1
			C-132.9,126.7-131.3,125.8-128.3,124.8 M-111,121.1l-0.2,0.3c-1.8,2.3-2.8,2.6-4.9,2.6c-0.4,0-0.8,0-1.3,0c-0.5,0-1.1,0-1.7,0
			s-1.2,0-1.7,0c-0.5,0-0.9,0-1.3,0c-2.1,0-3.1-0.3-4.9-2.6l-0.2-0.3l-0.3,0.1c-0.3,0.1-0.6,0.2-1,0.3c-3,1-7.7,2.5-7.7,5.7v11.1
			c0,1.8,1.5,3.3,3.3,3.3h27.7c1.8,0,3.3-1.5,3.3-3.3v-11.1c0-3.1-3.8-4.4-7.2-5.5c-0.5-0.2-1-0.3-1.5-0.5L-111,121.1L-111,121.1z"
			/>
	</g>
</g>
<path class="st3" d="M-279.7,139.7l-5-10.7c-0.1-0.3-0.4-0.5-0.7-0.7l-19.8-8.1c-0.3-0.1-0.6-0.1-0.9,0l-21.5,8.2
	c-0.2,0.1-0.5,0.3-0.6,0.5l-5,7.2c-0.3,0.4-0.3,0.9-0.1,1.4c0.3,0.4,0.7,0.7,1.2,0.6l3.7-0.3v17.4c0,0.5,0.3,1,0.8,1.2l20.6,8.2
	c0.2,0.1,0.3,0.1,0.5,0.1s0.3,0,0.5-0.1l20.5-8.2c0.5-0.2,0.8-0.7,0.8-1.2v-12l4.3-1.9c0.3-0.1,0.6-0.4,0.7-0.7
	S-279.5,140.1-279.7,139.7z M-304.8,136.1v-12.4l15.4,6.3L-304.8,136.1z M-304.9,142.9l2.5,6.6c0.1,0.3,0.4,0.6,0.7,0.7
	c0.3,0.1,0.7,0.1,1,0l13.1-5.6v9.5l-17.3,6.8V142.9z M-308,139.3v21.6l-17.3-6.8v-21.6L-308,139.3z"/>
<path class="st3" d="M-169.6,139.3c0-1.1-0.9-2-2-2h-3l-4.4-10.9c-0.4-1.1-1.7-1.6-2.7-1.2c-0.5,0.2-0.9,0.6-1.2,1.1
	c-0.2,0.5-0.2,1.1,0,1.6l3.8,9.4h-15.3c-1.8,0-3.5,0.8-4.6,2.1c-1.2,1.3-1.7,3-1.5,4.7l0.1,1.1c-1.7-0.5-3.5-0.5-5.1,0l0.1-1.1
	c0.2-1.8-0.4-3.4-1.5-4.7c-1.2-1.3-2.8-2.1-4.7-2.1l-15.1,0l3.8-9.4c0.2-0.5,0.2-1.1,0-1.6c-0.2-0.5-0.6-0.9-1.2-1.1
	c-0.5-0.2-1.1-0.2-1.6,0c-0.5,0.2-0.9,0.6-1.1,1.2l-4.4,10.9h-3.1c-1.1,0-2,0.9-2,2s0.9,2,2,2h0.1c-0.4,0.9-0.5,1.9-0.4,2.9
	c0.2,2.5,0.5,4.9,0.7,7.5c0.3,3.6,3.4,7.1,6.7,7.7c4.8,0.8,9.8,0.8,14.6,0c3.3-0.6,6.4-4.1,6.7-7.7l0.2-1.8c1.8-1.3,4.2-1.3,5.9-0.1
	l0.2,1.9c0.3,3.6,3.4,7.1,6.7,7.7c2.4,0.4,4.8,0.6,7.3,0.6c2.4,0,4.9-0.2,7.3-0.6c3.3-0.6,6.3-4,6.7-7.7c0.2-2.5,0.4-5,0.7-7.5
	c0.1-1,0-2-0.4-2.9h0.1C-170.5,141.2-169.6,140.4-169.6,139.3z M-175.2,143.7c-0.2,2.5-0.5,5-0.7,7.5c-0.2,1.8-1.8,3.9-3.4,4.2
	c-4.3,0.7-8.9,0.7-13.2,0c-1.6-0.3-3.3-2.3-3.5-4.2c-0.2-2.5-0.4-5-0.7-7.5c-0.1-0.7,0.1-1.3,0.5-1.7c0.4-0.5,1-0.8,1.7-0.8h16.9
	c0.7,0,1.3,0.3,1.8,0.8C-175.3,142.5-175.1,143.1-175.2,143.7z M-209.4,143.7c-0.2,2.5-0.5,5-0.7,7.5c-0.2,1.8-1.9,3.9-3.4,4.2
	c-4.4,0.7-8.9,0.7-13.2,0c-1.6-0.3-3.3-2.3-3.5-4.2c-0.2-2.5-0.4-5-0.7-7.5c-0.1-0.7,0.1-1.3,0.5-1.7c0.4-0.5,1.1-0.8,1.7-0.8h16.8
	c0.7,0,1.3,0.3,1.8,0.8C-209.5,142.5-209.3,143.1-209.4,143.7z"/>
</svg>
