<?xml version="1.0" encoding="utf-8"?>
<!-- Generator: Adobe Illustrator 19.0.0, SVG Export Plug-In . SVG Version: 6.00 Build 0)  -->
<svg version="1.1" id="Capa_1" xmlns="http://www.w3.org/2000/svg" xmlns:xlink="http://www.w3.org/1999/xlink" x="0px" y="0px"
	 viewBox="0 0 30 30" enable-background="new 0 0 30 30" xml:space="preserve">
<g id="XMLID_8_">
	<path id="XMLID_9_" fill="#FFFFFF" d="M18.8,16.5c0.4,0,0.8,0.2,1.1,0.6c0.3,0.4,0.5,0.9,0.5,1.5c0,0.6-0.2,1.1-0.5,1.5
		c-0.3,0.4-0.6,0.6-1.1,0.6c-0.4,0-0.8-0.2-1.1-0.6c-0.3-0.4-0.5-0.9-0.5-1.5c0-0.6,0.2-1.1,0.5-1.5C18,16.7,18.3,16.5,18.8,16.5z
		 M24.1,11c1.2,1.3,1.7,2.8,1.7,4.6c0,1.2-0.1,2.2-0.4,3.1c-0.3,0.9-0.6,1.7-1,2.3c-0.4,0.6-0.9,1.1-1.5,1.5c-0.6,0.4-1.1,0.8-1.6,1
		c-0.5,0.2-1.1,0.4-1.7,0.5c-0.6,0.1-1.1,0.2-1.5,0.2c-0.3,0-0.7,0-1.1,0c-0.1,0-0.4,0-0.8,0c-0.5,0-0.9,0-1.2,0c-0.3,0-0.7,0-1.2,0
		c-0.5,0-0.8,0-0.8,0c-0.4,0-0.7,0-1.1,0c-0.3,0-0.8-0.1-1.5-0.2c-0.7-0.1-1.2-0.3-1.7-0.5c-0.5-0.2-1.1-0.5-1.6-1
		C6.5,22,6,21.5,5.6,20.9c-0.4-0.6-0.7-1.3-1-2.3c-0.3-0.9-0.4-2-0.4-3.1c0-1.8,0.6-3.3,1.7-4.6c-0.1-0.1-0.1-0.7,0-1.9
		C6,7.9,6.3,6.8,6.7,5.8C8.1,6,9.9,6.8,12,8.3C12.8,8.1,13.7,8,15,8c1.3,0,2.3,0.1,3,0.3c1-0.7,1.9-1.2,2.8-1.6
		c0.9-0.4,1.6-0.6,2-0.7l0.6-0.1c0.4,1,0.7,2.1,0.8,3.3C24.2,10.3,24.2,10.9,24.1,11z M15,23.1c2.6,0,4.6-0.3,5.9-0.9
		c1.3-0.6,2-1.9,2-3.9c0-1.1-0.4-2.1-1.3-2.8c-0.4-0.4-0.9-0.7-1.5-0.8s-1.5-0.1-2.7,0c-1.2,0.1-2,0.1-2.4,0.1c-0.6,0-1.2,0-2-0.1
		c-0.8-0.1-1.4-0.1-1.9-0.1c-0.5,0-0.9,0-1.5,0.2c-0.5,0.1-1,0.3-1.3,0.7c-0.8,0.7-1.2,1.7-1.2,2.8c0,1.9,0.7,3.2,2,3.9
		C10.4,22.8,12.3,23.1,15,23.1C15,23.1,15,23.1,15,23.1z M11.3,16.5c0.4,0,0.8,0.2,1.1,0.6c0.3,0.4,0.5,0.9,0.5,1.5
		c0,0.6-0.2,1.1-0.5,1.5c-0.3,0.4-0.6,0.6-1.1,0.6c-0.4,0-0.8-0.2-1.1-0.6c-0.3-0.4-0.5-0.9-0.5-1.5c0-0.6,0.2-1.1,0.5-1.5
		C10.5,16.7,10.9,16.5,11.3,16.5z"/>
</g>
</svg>
