<?xml version="1.0" encoding="utf-8"?>
<!-- Generator: Adobe Illustrator 19.0.0, SVG Export Plug-In . SVG Version: 6.00 Build 0)  -->
<svg version="1.1" id="Capa_1" xmlns="http://www.w3.org/2000/svg" xmlns:xlink="http://www.w3.org/1999/xlink" x="0px" y="0px"
	 viewBox="0 0 30 30" enable-background="new 0 0 30 30" xml:space="preserve">
<g id="XMLID_17_">
	<g id="XMLID_47_">
		<path id="XMLID_48_" fill="#FFFFFF" d="M6.9,5.5c0.7,0,1.2,0.2,1.6,0.6C8.8,6.5,9,7,9.1,7.7c0,0.6-0.2,1.2-0.6,1.6
			C8,9.7,7.4,9.9,6.7,9.9h0c-0.7,0-1.3-0.2-1.7-0.6c-0.4-0.4-0.6-1-0.6-1.6C4.3,7,4.5,6.5,5,6.1C5.4,5.7,6.1,5.5,6.9,5.5L6.9,5.5z
			 M4.6,11.7h4.6v12.9H4.6V11.7z M25.7,17.2v7.4h-4.6v-6.9c0-0.9-0.2-1.6-0.5-2.1c-0.4-0.5-1-0.8-1.8-0.8c-0.6,0-1.2,0.2-1.5,0.5
			c-0.4,0.3-0.7,0.7-0.8,1.1c-0.1,0.1-0.1,0.3-0.1,0.5c0,0.2,0,0.4,0,0.6v7.2h-4.6c0-2.2,0-4.2,0-6v-4.4c0-0.6,0-1.2,0-1.6
			c0-0.4,0-0.7,0-0.9h4.6v1.8l0,0.1h0v-0.1c0.1-0.2,0.3-0.5,0.5-0.7c0.2-0.2,0.5-0.5,0.8-0.7c0.3-0.2,0.7-0.4,1.2-0.5
			c0.5-0.1,1-0.2,1.6-0.2c0.8,0,1.4,0.1,2.1,0.3c0.7,0.2,1.2,0.6,1.7,1.1c0.5,0.5,0.8,1.1,1.1,1.8C25.6,15.3,25.7,16.2,25.7,17.2
			L25.7,17.2z M25.7,17.2"/>
	</g>
</g>
</svg>
