<?xml version="1.0" encoding="utf-8"?>
<!-- Generator: Adobe Illustrator 19.0.0, SVG Export Plug-In . SVG Version: 6.00 Build 0)  -->
<svg version="1.1" id="Capa_1" xmlns="http://www.w3.org/2000/svg" xmlns:xlink="http://www.w3.org/1999/xlink" x="0px" y="0px"
	 viewBox="760 -390 1920 1080" style="enable-background:new 760 -390 1920 1080;" xml:space="preserve">
<style type="text/css">
	.st0{opacity:0.5;}
	.st1{fill:none;}
	.st2{opacity:0.1;fill:#FFFFFF;}
	.st3{opacity:0.8;fill:url(#XMLID_25_);}
	.st4{opacity:0.8;}
	.st5{opacity:0.3;}
	.st6{fill:#FFFFFF;stroke:#FFFFFF;stroke-width:0.5;stroke-miterlimit:10;}
	.st7{fill:#FFFFFF;}
	.st8{opacity:0.2;}
	.st9{fill:#FFFFFF;stroke:#FFFFFF;stroke-width:0.75;stroke-miterlimit:10;}
	.st10{fill:none;stroke:#FFFFFF;stroke-width:3;stroke-miterlimit:10;}
	.st11{fill:none;stroke:#FFFFFF;stroke-width:3;stroke-linecap:round;stroke-linejoin:round;stroke-miterlimit:10;}
	.st12{fill:#FFFFFF;stroke:#FFFFFF;stroke-miterlimit:10;}
	.st13{opacity:0.3;fill:#FFFFFF;}
	.st14{opacity:0.3;fill:#FFFFFF;stroke:#FFFFFF;stroke-width:0.25;stroke-miterlimit:10;}
	.st15{opacity:0.3;fill:#FFFFFF;stroke:#FFFFFF;stroke-width:0.5;stroke-miterlimit:10;}
	.st16{fill:#FFFFFF;stroke:#FFFFFF;stroke-width:0.25;stroke-miterlimit:10;}
	.st17{fill:none;stroke:#FFFFFF;stroke-width:2;stroke-linecap:round;stroke-linejoin:round;stroke-miterlimit:10;}
</style>
<pattern  x="760" y="690" width="240" height="540" patternUnits="userSpaceOnUse" id="Unnamed_Pattern_2" viewBox="0.1 -540.5 240 540" style="overflow:visible;">
	<g id="XMLID_23_">
		<g id="XMLID_4225_" class="st0">
			<polygon id="XMLID_4234_" class="st1" points="0.1,-0.5 240.1,-0.5 240.1,-540.5 0.1,-540.5 			"/>
			<g id="XMLID_1188_">
				<polygon id="XMLID_1191_" class="st2" points="0,-270.5 0,-541 240.2,-541 				"/>
				<polygon id="XMLID_1190_" class="st2" points="240.2,-270.5 240.2,-541 0,-541 				"/>
				<polygon id="XMLID_1189_" class="st2" points="120.1,-541 0,-405.7 120.1,-270.5 240.2,-405.7 				"/>
			</g>
			<g id="XMLID_1184_">
				<polygon id="XMLID_1187_" class="st2" points="240.2,-270.5 240.2,0 0,0 				"/>
				<polygon id="XMLID_1186_" class="st2" points="0,-270.5 0,0 240.2,0 				"/>
				<polygon id="XMLID_1185_" class="st2" points="120.1,0 240.2,-135.2 120.1,-270.5 0,-135.2 				"/>
			</g>
		</g>
	</g>
</pattern>
<pattern  id="XMLID_25_" xlink:href="#Unnamed_Pattern_2" patternTransform="matrix(1.0021 0 0 1.0021 445.9942 160.5203)">
</pattern>
<rect id="XMLID_2573_" x="758" y="-391.1" class="st3" width="1924" height="1082.3"/>
<g class="st4">
	<g id="XMLID_2567_" class="st5">
		<path id="XMLID_2570_" class="st6" d="M2165.4,379h0.2c1.8,0,3.2-0.7,4.2-1.8c2.3-2.6,1.9-7.1,1.9-7.5c-0.2-3.2-1.7-4.7-2.9-5.5
			c-0.9-0.5-2-0.8-3.2-0.8h-0.1c-0.7,0-2,0.1-3.2,0.8c-1.3,0.7-2.8,2.3-3,5.5c0,0.4-0.4,4.9,1.9,7.5
			C2162.2,378.4,2163.7,379,2165.4,379L2165.4,379z M2160.9,369.8C2160.9,369.8,2160.9,369.8,2160.9,369.8c0.2-4.4,3.3-4.8,4.6-4.8
			h0.1c1.6,0,4.4,0.7,4.6,4.8c0,0,0,0,0,0c0,0,0.4,4.1-1.5,6.3c-0.8,0.9-1.8,1.3-3.1,1.3h-0.1c-1.3,0-2.3-0.4-3.1-1.3
			C2160.5,374,2160.9,369.8,2160.9,369.8L2160.9,369.8z"/>
		<path id="XMLID_2568_" class="st6" d="M2177.9,386.4L2177.9,386.4c0-0.1,0-0.1,0-0.2c0-1.2-0.1-4-2.7-4.9c0,0,0,0-0.1,0
			c-2.7-0.7-5-2.3-5-2.3c-0.4-0.3-0.9-0.2-1.1,0.2c-0.3,0.4-0.2,0.9,0.2,1.1c0.1,0.1,2.5,1.7,5.5,2.5c1.4,0.5,1.6,2,1.6,3.4
			c0,0.1,0,0.1,0,0.2c0,0.5,0,1.4-0.1,1.9c-1,0.6-4.8,2.5-10.6,2.5c-5.8,0-9.6-1.9-10.6-2.5c-0.1-0.5-0.1-1.3-0.1-1.9
			c0,0,0-0.1,0-0.2c0-1.4,0.2-2.9,1.6-3.4c3-0.8,5.4-2.4,5.5-2.5c0.4-0.3,0.5-0.8,0.2-1.1c-0.3-0.4-0.8-0.5-1.1-0.2
			c0,0-2.3,1.6-5,2.3c0,0,0,0-0.1,0c-2.6,0.9-2.7,3.7-2.7,4.9c0,0.1,0,0.1,0,0.2v0c0,0.3,0,1.9,0.3,2.7c0.1,0.2,0.2,0.3,0.3,0.4
			c0.2,0.1,4.5,2.9,11.8,2.9c7.2,0,11.6-2.8,11.8-2.9c0.1-0.1,0.3-0.2,0.3-0.4C2177.9,388.4,2177.9,386.8,2177.9,386.4L2177.9,386.4
			z"/>
	</g>
	<g id="XMLID_2561_" class="st5">
		<path id="XMLID_2564_" class="st6" d="M1937.7,371.5h-16.3c-1.5,0-2.7-1.2-2.7-2.7c0-1.5,1.2-2.7,2.7-2.7h16.3
			c0.4,0,0.7-0.3,0.7-0.7c0-0.4-0.3-0.7-0.7-0.7h-16.3c-2.3,0-4.2,1.9-4.2,4.2V387c0,2.3,1.9,4.2,4.2,4.2h16.3
			c0.4,0,0.7-0.3,0.7-0.7v-18.3C1938.4,371.8,1938.1,371.5,1937.7,371.5L1937.7,371.5z M1936.9,389.8h-15.5c-1.5,0-2.7-1.2-2.7-2.7
			v-15.1c0.7,0.6,1.7,1,2.7,1h15.5V389.8z"/>
		<path id="XMLID_2562_" class="st6" d="M1921.6,368.1c-0.4,0-0.7,0.3-0.7,0.7c0,0.4,0.3,0.7,0.7,0.7h13.7c0.4,0,0.7-0.3,0.7-0.7
			c0-0.4-0.3-0.7-0.7-0.7H1921.6z"/>
	</g>
	<g id="XMLID_2550_" class="st5">
		<g id="XMLID_2559_">
			<path id="XMLID_2560_" class="st6" d="M2527.6-24.3c-3.8,0-6.9-3.1-6.9-6.9s3.1-6.9,6.9-6.9c1,0,1.9,0.2,2.8,0.6
				c0.4,0.2,0.5,0.6,0.4,1c-0.2,0.4-0.6,0.5-1,0.4c-0.7-0.3-1.5-0.5-2.2-0.5c-3,0-5.5,2.5-5.5,5.5s2.5,5.5,5.5,5.5
				c3,0,5.5-2.5,5.5-5.5c0-0.8-0.2-1.7-0.6-2.4c-0.2-0.4,0-0.8,0.3-1c0.4-0.2,0.8,0,1,0.3c0.5,1,0.7,2,0.7,3
				C2534.5-27.4,2531.4-24.3,2527.6-24.3z"/>
		</g>
		<g id="XMLID_2557_">
			<path id="XMLID_2558_" class="st6" d="M2527.6-17.8c-7.4,0-13.5-6-13.5-13.5s6-13.5,13.5-13.5c1.9,0,3.7,0.4,5.5,1.2
				c0.4,0.2,0.5,0.6,0.4,1c-0.2,0.4-0.6,0.5-1,0.4c-1.5-0.7-3.2-1-4.9-1c-6.6,0-12,5.4-12,12s5.4,12,12,12s12-5.4,12-12
				c0-1.7-0.3-3.3-1-4.9c-0.2-0.4,0-0.8,0.4-1c0.4-0.2,0.8,0,1,0.4c0.8,1.7,1.2,3.6,1.2,5.5C2541-23.9,2535-17.8,2527.6-17.8z"/>
		</g>
		<g id="XMLID_2553_">
			<path id="XMLID_2554_" class="st6" d="M2536.3-35.9c-0.1,0-0.1,0-0.2,0l-2.6-0.7c-0.3-0.1-0.4-0.3-0.5-0.5l-0.7-2.6
				c-0.1-0.2,0-0.5,0.2-0.7l6.8-6.8c0.2-0.2,0.5-0.3,0.7-0.2c0.2,0.1,0.4,0.3,0.5,0.5l0.6,2.2l2.2,0.6c0.2,0.1,0.4,0.3,0.5,0.5
				c0.1,0.2,0,0.5-0.2,0.7l-6.8,6.8C2536.7-36,2536.5-35.9,2536.3-35.9z M2534.3-37.9l1.8,0.5l5.6-5.6l-1.4-0.4
				c-0.3-0.1-0.4-0.3-0.5-0.5l-0.4-1.4l-5.6,5.6L2534.3-37.9z"/>
		</g>
		<g id="XMLID_2551_">
			<path id="XMLID_2552_" class="st6" d="M2527.6-30.5c-0.2,0-0.4-0.1-0.5-0.2c-0.3-0.3-0.3-0.7,0-1l6.2-6.2c0.3-0.3,0.7-0.3,1,0
				c0.3,0.3,0.3,0.7,0,1l-6.2,6.2C2528-30.6,2527.8-30.5,2527.6-30.5z"/>
		</g>
	</g>
	<g id="XMLID_2537_" class="st5">
		<g id="XMLID_2545_">
			<g id="XMLID_2548_">
				<path id="XMLID_2549_" class="st7" d="M1083.9-312.8c-0.2,0-0.4-0.1-0.5-0.2c-0.3-0.3-0.2-0.7,0-1c0.1-0.1,0.8-0.9-0.1-2.3
					c-1.3-1.9-0.5-3.4,0.1-3.9c0.3-0.2,0.7-0.2,1,0.1c0.2,0.3,0.2,0.7-0.1,0.9c-0.1,0.1-0.7,0.8,0.1,2.1c1.3,1.9,0.5,3.4-0.1,4
					C1084.2-312.9,1084-312.8,1083.9-312.8z"/>
			</g>
			<g id="XMLID_2546_">
				<path id="XMLID_2547_" class="st7" d="M1087.9-312.8c-0.2,0-0.4-0.1-0.5-0.2c-0.3-0.3-0.2-0.7,0-1c0.1-0.1,0.8-0.9-0.1-2.3
					c-1.3-1.9-0.5-3.4,0.1-3.9c0.3-0.2,0.7-0.2,1,0.1c0.2,0.3,0.2,0.7-0.1,0.9c-0.1,0.1-0.7,0.8,0.1,2.1c1.3,1.9,0.5,3.4-0.1,4
					C1088.2-312.9,1088-312.8,1087.9-312.8z"/>
			</g>
		</g>
		<path id="XMLID_2543_" class="st7" d="M1073.5-292.2C1073.5-292.2,1073.5-292.2,1073.5-292.2c0,0,0.1,0,0.1,0H1073.5z"/>
		<path id="XMLID_2539_" class="st7" d="M1097.8-308.2h-0.4v-1c0,0,0,0,0,0c0,0,0,0,0-0.1c0-0.6-0.5-1-1-1h-23.3
			c-0.4,0-0.8,0.3-1,0.7c-0.1,0.1-0.1,0.3-0.1,0.5v1.4c0,0.3,0,0.6,0,0.9c0.3,4.5,3.1,8.4,6.9,10.3c0,1,0.9,1.8,1.9,1.8c0,0,0,0,0,0
			c0,0,0,0,0,0h7.6c0.1,0,0.2,0,0.3,0c0.8-0.2,1.5-0.8,1.5-1.7c2.2-1.1,4.1-2.7,5.3-4.8c0.1,0,0.2,0.1,0.3,0.1h1.8
			c1.5,0,2.9-0.9,3.4-2.3C1101.9-306,1100.1-308.2,1097.8-308.2L1097.8-308.2z M1095.3-307.6c-0.1,5.6-4.7,10.2-10.3,10.2h-0.5
			c-5.7,0-10.3-4.6-10.3-10.2v-0.6h21.2V-307.6z M1097.8-303.2h-1.2c0.4-1,0.7-2,0.8-3.1h0.4c0.7,0,1.3,0.4,1.5,1
			C1099.6-304.1,1098.8-303.2,1097.8-303.2L1097.8-303.2z"/>
		<path id="XMLID_2538_" class="st7" d="M1072.7-292c0,0-0.1,0-0.1,0c0,1,0.9,1.9,1.9,1.9h20.5c1,0,1.9-0.8,1.9-1.9
			c-0.1,0-0.1,0-0.2,0"/>
	</g>
	<g id="XMLID_2519_" class="st5">
		<g id="XMLID_2520_">
			<g id="XMLID_2527_" class="st8">
				<g id="XMLID_2532_">
					<path id="XMLID_2534_" class="st7" d="M1339-307.4l-1.1,11.5h-21.7l-1.1-11.5H1339 M1339.7-309.3h-25c-1.3,0-1.3,0.6-1.3,1.4
						l1.1,12.4c0.1,0.8,0.2,1.4,1.5,1.4h22.2c1.3,0,1.4-0.6,1.5-1.4l1.1-12.4C1341-308.7,1340.9-309.3,1339.7-309.3L1339.7-309.3z"
						/>
				</g>
				<g id="XMLID_2528_">
					<path id="XMLID_2531_" class="st7" d="M1338.7-312.3c-0.2-0.6-0.9-1.1-1.7-1.1h-9.4c-0.8,0-1.8-0.4-2.4-1l-0.8-0.8
						c-0.5-0.5-1.6-1-2.4-1h-4.5c-0.8,0-1.4,0.6-1.5,1.4l-0.4,3.6h23.4L1338.7-312.3z"/>
				</g>
			</g>
			<g id="XMLID_2523_">
				<path id="XMLID_2524_" class="st7" d="M1339-307.5L1338-296h-21.7l-1.1-11.5H1339 M1339.7-309.3h-25c-1.3,0-1.3,0.6-1.3,1.4
					l1.1,12.4c0.1,0.8,0.2,1.4,1.5,1.4h22.2c1.3,0,1.4-0.6,1.5-1.4l1.1-12.4C1341-308.7,1340.9-309.3,1339.7-309.3L1339.7-309.3z"/>
			</g>
			<g id="XMLID_2521_">
				<path id="XMLID_2522_" class="st7" d="M1338.7-312.3c-0.2-0.6-0.9-1.1-1.7-1.1h-9.4c-0.8,0-1.8-0.4-2.4-1l-0.8-0.8
					c-0.5-0.5-1.6-1-2.4-1h-4.5c-0.8,0-1.5,0.6-1.5,1.4l-0.4,3.6h23.4L1338.7-312.3z"/>
			</g>
		</g>
	</g>
	<g id="XMLID_2504_" class="st5">
		<g id="XMLID_2505_">
			<g id="XMLID_2512_" class="st8">
				<g id="XMLID_2515_">
					<path id="XMLID_2516_" class="st7" d="M2060-307.4l-1.1,11.5h-21.7l-1.1-11.5H2060 M2060.7-309.3h-25c-1.3,0-1.3,0.6-1.3,1.4
						l1.1,12.4c0.1,0.8,0.2,1.4,1.5,1.4h22.2c1.3,0,1.4-0.6,1.5-1.4l1.1-12.4C2062-308.7,2061.9-309.3,2060.7-309.3L2060.7-309.3z"
						/>
				</g>
				<g id="XMLID_2513_">
					<path id="XMLID_2514_" class="st7" d="M2059.8-312.3c-0.2-0.6-0.9-1.1-1.7-1.1h-9.4c-0.8,0-1.8-0.4-2.4-1l-0.8-0.8
						c-0.5-0.5-1.6-1-2.4-1h-4.5c-0.8,0-1.5,0.6-1.5,1.4l-0.4,3.6h23.4L2059.8-312.3z"/>
				</g>
			</g>
			<g id="XMLID_2508_">
				<path id="XMLID_2509_" class="st7" d="M2060-307.5L2059-296h-21.7l-1.1-11.5H2060 M2060.7-309.3h-25c-1.3,0-1.3,0.6-1.3,1.4
					l1.1,12.4c0.1,0.8,0.2,1.4,1.5,1.4h22.2c1.3,0,1.4-0.6,1.5-1.4l1.1-12.4C2062-308.7,2061.9-309.3,2060.7-309.3L2060.7-309.3z"/>
			</g>
			<g id="XMLID_2506_">
				<path id="XMLID_2507_" class="st7" d="M2059.8-312.3c-0.2-0.6-0.9-1.1-1.7-1.1h-9.4c-0.8,0-1.8-0.4-2.4-1l-0.8-0.8
					c-0.5-0.5-1.6-1-2.4-1h-4.5c-0.8,0-1.5,0.6-1.5,1.4l-0.4,3.6h23.4L2059.8-312.3z"/>
			</g>
		</g>
	</g>
	<g id="XMLID_2496_" class="st5">
		<path id="XMLID_2497_" class="st9" d="M1581.3-307.1c-0.9,0-1.7,0.3-2.3,0.9l-8.1-6.7c0.5-0.8,0.8-1.7,0.8-2.7
			c0-2.7-2.2-4.9-4.9-4.9s-4.9,2.2-4.9,4.9c0,1,0.3,1.9,0.8,2.7l-8.1,6.7c-0.6-0.6-1.4-0.9-2.3-0.9c-1.9,0-3.5,1.6-3.5,3.5
			c0,1.9,1.6,3.5,3.5,3.5c0.9,0,1.7-0.3,2.3-0.9l9.7,7.3c-0.2,0.4-0.3,0.8-0.3,1.2c0,1.5,1.2,2.7,2.7,2.7s2.7-1.2,2.7-2.7
			c0-0.4-0.1-0.8-0.3-1.2l9.6-7.4c0.6,0.6,1.5,1,2.4,1c1.9,0,3.5-1.6,3.5-3.5C1584.8-305.5,1583.2-307.1,1581.3-307.1z
			 M1566.8-295.2c-0.7,0-1.3,0.3-1.8,0.7l-9.7-7.3c0.3-0.5,0.5-1.1,0.5-1.8c0-0.7-0.2-1.3-0.5-1.8l8.1-6.7c0.9,0.9,2.1,1.4,3.4,1.4
			s2.5-0.5,3.4-1.4l8.1,6.7c-0.3,0.5-0.5,1.1-0.5,1.8c0,0.6,0.2,1.2,0.4,1.7l-9.6,7.4C1568.1-294.9,1567.5-295.2,1566.8-295.2z
			 M1566.8-319.5c2.1,0,3.8,1.7,3.8,3.8s-1.7,3.8-3.8,3.8s-3.8-1.7-3.8-3.8S1564.7-319.5,1566.8-319.5z M1552.3-301.2
			c-1.4,0-2.5-1.1-2.5-2.5c0-1.4,1.1-2.5,2.5-2.5s2.5,1.1,2.5,2.5C1554.7-302.3,1553.6-301.2,1552.3-301.2z M1566.8-290.8
			c-0.9,0-1.7-0.7-1.7-1.7c0-0.9,0.7-1.7,1.7-1.7c0.9,0,1.7,0.7,1.7,1.7C1568.4-291.6,1567.7-290.8,1566.8-290.8z M1581.3-301.2
			c-1.4,0-2.5-1.1-2.5-2.5c0-1.4,1.1-2.5,2.5-2.5s2.5,1.1,2.5,2.5C1583.7-302.3,1582.6-301.2,1581.3-301.2z"/>
	</g>
	<g id="XMLID_2489_" class="st5">
		<path id="XMLID_2491_" class="st9" d="M1817.2-317.1c-0.2-1.9-1.9-3.5-3.8-3.5h-11.7c-2.1,0-3.8,1.7-3.9,3.9v23.1
			c0,2.1,1.7,3.9,3.9,3.9h11.7c2,0,3.6-1.5,3.8-3.5V-317.1z M1816-293.6c0,1.5-1.2,2.7-2.7,2.7h-11.7c-1.5,0-2.7-1.2-2.7-2.7v-1.6
			h17.1V-293.6z M1816-296.4h-17.1V-314h17.1V-296.4z M1816-315.1h-17.1v-1.5c0-1.5,1.2-2.7,2.7-2.7h11.7c1.5,0,2.7,1.2,2.7,2.7
			V-315.1z"/>
		<circle id="XMLID_2490_" class="st9" cx="1807.5" cy="-293.2" r="0.8"/>
	</g>
	<g id="XMLID_2482_" class="st5">
		<g id="XMLID_2486_">
			<circle id="XMLID_2488_" class="st10" cx="2291.9" cy="-308.2" r="10.7"/>
			<line id="XMLID_2487_" class="st11" x1="2284.4" y1="-300.7" x2="2275.1" y2="-291.4"/>
		</g>
		<g id="XMLID_2483_">
			<line id="XMLID_2485_" class="st11" x1="2291.9" y1="-312.9" x2="2291.9" y2="-303.5"/>
			<line id="XMLID_2484_" class="st11" x1="2296.6" y1="-308.2" x2="2287.2" y2="-308.2"/>
		</g>
	</g>
	<g id="XMLID_2461_" class="st5">
		<g id="XMLID_2478_">
			<path id="XMLID_2479_" class="st9" d="M2522.7-302.8c-1.7,0-3.2-1.4-3.2-3.2c0-1.7,1.4-3.2,3.2-3.2s3.2,1.4,3.2,3.2
				C2525.9-304.2,2524.5-302.8,2522.7-302.8z M2522.7-307.5c-0.9,0-1.6,0.7-1.6,1.6c0,0.9,0.7,1.6,1.6,1.6s1.6-0.7,1.6-1.6
				C2524.3-306.8,2523.6-307.5,2522.7-307.5z"/>
		</g>
		<g id="XMLID_2474_">
			<path id="XMLID_2475_" class="st9" d="M2533.4-297.3c-1.7,0-3.2-1.4-3.2-3.2c0-1.7,1.4-3.2,3.2-3.2c1.7,0,3.2,1.4,3.2,3.2
				C2536.6-298.7,2535.1-297.3,2533.4-297.3z M2533.4-302c-0.9,0-1.6,0.7-1.6,1.6c0,0.9,0.7,1.6,1.6,1.6c0.9,0,1.6-0.7,1.6-1.6
				C2535-301.3,2534.3-302,2533.4-302z"/>
		</g>
		<g id="XMLID_2470_">
			<path id="XMLID_2471_" class="st9" d="M2542.4-310.2c-1.7,0-3.2-1.4-3.2-3.2s1.4-3.2,3.2-3.2c1.7,0,3.2,1.4,3.2,3.2
				S2544.2-310.2,2542.4-310.2z M2542.4-315c-0.9,0-1.6,0.7-1.6,1.6s0.7,1.6,1.6,1.6c0.9,0,1.6-0.7,1.6-1.6S2543.3-315,2542.4-315z"
				/>
		</g>
		<g id="XMLID_2468_">
			
				<rect id="XMLID_2469_" x="2526" y="-304" transform="matrix(0.8871 0.4616 -0.4616 0.8871 145.4754 -1201.1647)" class="st9" width="4" height="1.6"/>
		</g>
		<g id="XMLID_2466_">
			
				<rect id="XMLID_2467_" x="2537.1" y="-310.8" transform="matrix(0.8201 0.5722 -0.5722 0.8201 280.8771 -1507.2253)" class="st9" width="1.6" height="7.9"/>
		</g>
		<g id="XMLID_2464_">
			
				<rect id="XMLID_2465_" x="2515.9" y="-304.9" transform="matrix(0.5474 0.8369 -0.8369 0.5474 886.4129 -2242.9377)" class="st9" width="1.6" height="5.8"/>
		</g>
		<g id="XMLID_2462_">
			<path id="XMLID_2463_" class="st9" d="M2544.7-292h-28.8c-1.3,0-2.4-1.1-2.4-2.4v-23.1c0-0.4,0.4-0.8,0.8-0.8
				c0.4,0,0.8,0.4,0.8,0.8v23.1c0,0.4,0.4,0.8,0.8,0.8h28.8c0.4,0,0.8,0.4,0.8,0.8S2545.1-292,2544.7-292z"/>
		</g>
	</g>
	<g id="XMLID_2455_" class="st5">
		<path id="XMLID_2456_" class="st9" d="M1217.2,93.2c-2.3-2.3-5.9-2.3-8.2,0l-15,15c-0.1,0.1-0.2,0.3-0.2,0.4l-1.1,8.2
			c0,0.2,0.1,0.5,0.2,0.6c0.1,0.1,0.3,0.2,0.5,0.2c0,0,0.1,0,0.1,0l5-0.7c0.4-0.1,0.7-0.4,0.6-0.8c-0.1-0.4-0.4-0.7-0.8-0.6l-4,0.5
			l0.8-5.7l6,6c0.1,0.1,0.3,0.2,0.5,0.2s0.4-0.1,0.5-0.2l15-15c1.1-1.1,1.7-2.5,1.7-4.1C1218.9,95.7,1218.2,94.3,1217.2,93.2
			L1217.2,93.2z M1209.3,95l2.5,2.5l-13.7,13.7l-2.5-2.5L1209.3,95z M1201.6,114.7l-2.5-2.5l13.7-13.7l2.5,2.5L1201.6,114.7z
			 M1216.4,100l-6-6c0.8-0.6,1.7-1,2.7-1c1.1,0,2.2,0.4,3,1.3c0.8,0.8,1.3,1.9,1.3,3C1217.3,98.3,1217,99.2,1216.4,100L1216.4,100z"
			/>
	</g>
	<g id="XMLID_2450_" class="st5">
		<path id="XMLID_2451_" class="st9" d="M2424.3,104.7c0-3.8-1.5-7.3-4.1-10c-2.7-2.7-6.2-4.1-10-4.1c-3.8,0-7.3,1.5-10,4.1
			c-2.7,2.7-4.1,6.2-4.1,10v6.7c0,3.8,3.1,6.9,6.9,6.9c0.5,0,0.8-0.4,0.8-0.8v-12.1c0-0.5-0.4-0.8-0.8-0.8c-2.1,0-4,0.9-5.2,2.4
			v-2.3c0-6.9,5.6-12.5,12.5-12.5c6.9,0,12.5,5.6,12.5,12.5c0,0.1,0,0.1,0,0.2c0,0.1,0,0.1,0,0.2v2.3c-1.3-1.5-3.1-2.4-5.2-2.4
			c-0.5,0-0.8,0.4-0.8,0.8v12.1c0,0.5,0.4,0.8,0.8,0.8c3.8,0,6.9-3.1,6.9-6.9V105c0-0.1,0-0.1,0-0.2
			C2424.3,104.8,2424.3,104.8,2424.3,104.7L2424.3,104.7z M2402.1,106.2v10.3c-2.5-0.4-4.4-2.6-4.4-5.2
			C2397.7,108.8,2399.6,106.6,2402.1,106.2L2402.1,106.2z M2418.2,116.9v-10.3c2.5,0.4,4.4,2.6,4.4,5.2
			C2422.6,114.3,2420.7,116.5,2418.2,116.9L2418.2,116.9z"/>
	</g>
	<g id="XMLID_2445_" class="st5">
		<path id="XMLID_2448_" class="st12" d="M967.2,102.6c-0.3,0.3-0.3,0.8,0,1.2c1.3,1.3,1.3,3.5,0,4.9l-7.1,7.1
			c-1.3,1.3-3.5,1.3-4.9,0l-1.1-1.1c-1.3-1.3-1.3-3.5,0-4.9l7.1-7.1c0.3-0.3,0.3-0.8,0-1.2c-0.3-0.3-0.8-0.3-1.2,0l-7.1,7.1
			c-1,1-1.5,2.2-1.5,3.6c0,1.4,0.5,2.6,1.5,3.6l1.1,1.1c1,1,2.3,1.5,3.6,1.5c1.3,0,2.6-0.5,3.6-1.5l7.1-7.1c2-2,2-5.2,0-7.2
			C968,102.3,967.5,102.3,967.2,102.6L967.2,102.6z"/>
		<path id="XMLID_2446_" class="st12" d="M979.6,93.3l-1.1-1.1c-2-2-5.2-2-7.2,0l-7.1,7.1c-2,2-2,5.2,0,7.2c0.3,0.3,0.8,0.3,1.2,0
			c0.3-0.3,0.3-0.8,0-1.2c-1.3-1.3-1.3-3.5,0-4.9l7.1-7.1c1.3-1.3,3.5-1.3,4.9,0l1.1,1.1c1.3,1.3,1.3,3.5,0,4.9l-7.1,7.1
			c-0.3,0.3-0.3,0.8,0,1.2c0.2,0.2,0.4,0.2,0.6,0.2c0.2,0,0.4-0.1,0.6-0.2l7.1-7.1c1-1,1.5-2.2,1.5-3.6
			C981.1,95.6,980.6,94.3,979.6,93.3L979.6,93.3z"/>
	</g>
	<g id="XMLID_2440_" class="st5">
		<path id="XMLID_2441_" class="st9" d="M2178.1,91.7h-21.6c-1.9,0-3.5,1.6-3.5,3.5v13.7c0,1.9,1.6,3.5,3.5,3.5h10v3.4h-5
			c-0.4,0-0.8,0.4-0.8,0.8s0.4,0.8,0.8,0.8h11.6c0.4,0,0.8-0.4,0.8-0.8s-0.4-0.8-0.8-0.8h-5v-3.4h10c1.9,0,3.5-1.6,3.5-3.5V95.2
			C2181.6,93.3,2180.1,91.7,2178.1,91.7L2178.1,91.7z M2156.5,93.3h21.6c1.1,0,1.9,0.9,1.9,1.9v11.4h-25.4V95.2
			C2154.6,94.2,2155.5,93.3,2156.5,93.3L2156.5,93.3z M2178.1,110.9h-21.6c-1.1,0-1.9-0.9-1.9-1.9v-0.6h25.4v0.6
			C2180,110,2179.2,110.9,2178.1,110.9L2178.1,110.9z"/>
	</g>
	<g id="XMLID_2434_" class="st5">
		<path id="XMLID_2435_" class="st6" d="M2300.1,230.5v-5.8c0-0.3-0.1-0.5-0.4-0.7c-0.2-0.2-0.5-0.2-0.8-0.1l-17.4,5.5
			c-0.4,0.1-0.6,0.4-0.6,0.8v17c-0.9-0.6-2.1-1-3.3-1c-1.3,0-2.5,0.4-3.5,1.1c-1,0.8-1.6,1.8-1.6,2.9c0,1.1,0.6,2.1,1.6,2.9
			c0.9,0.7,2.2,1.1,3.5,1.1s2.5-0.4,3.5-1.1c1-0.8,1.6-1.8,1.6-2.9v-13.6l15.7-5v10c-0.9-0.6-2.1-1-3.3-1c-1.3,0-2.5,0.4-3.5,1.1
			c-1,0.8-1.6,1.8-1.6,2.9c0,1.1,0.6,2.1,1.6,2.9c0.9,0.7,2.2,1.1,3.5,1.1c1.3,0,2.5-0.4,3.5-1.1c1-0.8,1.6-1.8,1.6-2.9V230.5z
			 M2277.7,252.5c-1.8,0-3.3-1-3.3-2.3c0-1.2,1.5-2.3,3.3-2.3c1.8,0,3.3,1,3.3,2.3C2281,251.5,2279.5,252.5,2277.7,252.5
			L2277.7,252.5z M2282.7,234.8v-4l15.7-5v4L2282.7,234.8z M2295.1,246.9c-1.8,0-3.3-1-3.3-2.3c0-1.2,1.5-2.3,3.3-2.3
			c1.8,0,3.3,1,3.3,2.3C2298.4,245.9,2296.9,246.9,2295.1,246.9L2295.1,246.9z"/>
	</g>
	<g id="XMLID_2429_" class="st5">
		<path id="XMLID_2430_" class="st6" d="M2660.4,91.1c-0.2-0.2-0.6-0.3-0.9-0.2l-25.8,11.3c-0.3,0.1-0.5,0.4-0.5,0.7
			c0,0.3,0.1,0.6,0.4,0.7l9,5.1l5.3,9.1c0.1,0.2,0.4,0.4,0.7,0.4h0c0.3,0,0.6-0.2,0.7-0.5l11.2-25.8
			C2660.7,91.7,2660.7,91.3,2660.4,91.1L2660.4,91.1z M2656.3,94.1l-13.2,13.1l-7.3-4.1L2656.3,94.1z M2648.6,115.7l-4.4-7.4
			l13.3-13.2L2648.6,115.7z"/>
	</g>
	<g id="XMLID_2417_" class="st5">
		<path id="XMLID_2424_" class="st7" d="M2176.6,633.9h-0.7v-1.6c0-2.3-1.9-4.1-4.1-4.1h-8.7c-2.3,0-4.1,1.9-4.1,4.1v1.6h-0.7
			c-2.3,0-4.1,1.9-4.1,4.1v6.7c0,2.3,1.9,4.1,4.1,4.1h0.7v5.3c0,1.1,0.9,2.1,2.1,2.1h12.8c1.1,0,2.1-0.9,2.1-2.1v-5.3h0.7
			c2.3,0,4.1-1.9,4.1-4.1v-6.7C2180.7,635.8,2178.8,633.9,2176.6,633.9L2176.6,633.9z M2160.4,632.3c0-1.4,1.2-2.6,2.6-2.6h8.7
			c1.4,0,2.6,1.2,2.6,2.6v1.6h-13.8V632.3z M2174.3,654.2c0,0.3-0.2,0.5-0.5,0.5h-12.8c-0.3,0-0.5-0.2-0.5-0.5v-8.7h13.8V654.2z
			 M2179.1,644.8c0,1.4-1.2,2.6-2.6,2.6h-0.7v-1.8h1c0.4,0,0.8-0.3,0.8-0.8c0-0.4-0.3-0.8-0.8-0.8h-19.2c-0.4,0-0.8,0.3-0.8,0.8
			c0,0.4,0.3,0.8,0.8,0.8h1.2v1.8h-0.7c-1.4,0-2.6-1.2-2.6-2.6v-6.7c0-1.4,1.2-2.6,2.6-2.6h18.4c1.4,0,2.6,1.2,2.6,2.6V644.8z"/>
		<path id="XMLID_2422_" class="st7" d="M2162.3,649.3h10c0.4,0,0.8-0.3,0.8-0.8s-0.3-0.8-0.8-0.8h-10c-0.4,0-0.8,0.3-0.8,0.8
			S2161.9,649.3,2162.3,649.3L2162.3,649.3z"/>
		<path id="XMLID_2420_" class="st7" d="M2172.4,651h-10c-0.4,0-0.8,0.3-0.8,0.8c0,0.4,0.3,0.8,0.8,0.8h10c0.4,0,0.8-0.3,0.8-0.8
			C2173.2,651.3,2172.8,651,2172.4,651L2172.4,651z"/>
		<path id="XMLID_2418_" class="st7" d="M2176.5,637h-1.6c-0.4,0-0.8,0.3-0.8,0.8c0,0.4,0.3,0.8,0.8,0.8h1.6c0.4,0,0.8-0.3,0.8-0.8
			C2177.3,637.3,2177,637,2176.5,637L2176.5,637z"/>
	</g>
	<g id="XMLID_2405_" class="st5">
		<path id="XMLID_2412_" class="st7" d="M1697,94.2h-0.7v-1.6c0-2.3-1.9-4.1-4.1-4.1h-8.7c-2.3,0-4.1,1.9-4.1,4.1v1.6h-0.7
			c-2.3,0-4.1,1.9-4.1,4.1v6.7c0,2.3,1.9,4.1,4.1,4.1h0.7v5.3c0,1.1,0.9,2.1,2.1,2.1h12.8c1.1,0,2.1-0.9,2.1-2.1v-5.3h0.7
			c2.3,0,4.1-1.9,4.1-4.1v-6.7C1701.1,96.1,1699.3,94.2,1697,94.2L1697,94.2z M1680.8,92.6c0-1.4,1.2-2.6,2.6-2.6h8.7
			c1.4,0,2.6,1.2,2.6,2.6v1.6h-13.8V92.6z M1694.7,114.5c0,0.3-0.2,0.5-0.5,0.5h-12.8c-0.3,0-0.5-0.2-0.5-0.5v-8.7h13.8V114.5z
			 M1699.5,105.1c0,1.4-1.2,2.6-2.6,2.6h-0.7v-1.8h1c0.4,0,0.8-0.3,0.8-0.8s-0.3-0.8-0.8-0.8h-19.2c-0.4,0-0.8,0.3-0.8,0.8
			s0.3,0.8,0.8,0.8h1.2v1.8h-0.7c-1.4,0-2.6-1.2-2.6-2.6v-6.7c0-1.4,1.2-2.6,2.6-2.6h18.4c1.4,0,2.6,1.2,2.6,2.6V105.1z"/>
		<path id="XMLID_2410_" class="st7" d="M1682.7,109.7h10c0.4,0,0.8-0.3,0.8-0.8s-0.3-0.8-0.8-0.8h-10c-0.4,0-0.8,0.3-0.8,0.8
			S1682.3,109.7,1682.7,109.7L1682.7,109.7z"/>
		<path id="XMLID_2408_" class="st7" d="M1692.8,111.3h-10c-0.4,0-0.8,0.3-0.8,0.8s0.3,0.8,0.8,0.8h10c0.4,0,0.8-0.3,0.8-0.8
			S1693.2,111.3,1692.8,111.3L1692.8,111.3z"/>
		<path id="XMLID_2406_" class="st7" d="M1697,97.3h-1.6c-0.4,0-0.8,0.3-0.8,0.8c0,0.4,0.3,0.8,0.8,0.8h1.6c0.4,0,0.8-0.3,0.8-0.8
			C1697.7,97.7,1697.4,97.3,1697,97.3L1697,97.3z"/>
	</g>
	<g id="XMLID_2400_" class="st5">
		<path id="XMLID_2403_" class="st12" d="M2642.8-172c4.2-3.8,10.5-3.9,14.8-0.4l-3.4,0.1c-0.4,0-0.8,0.4-0.8,0.8
			c0,0.4,0.4,0.8,0.8,0.8h0l5.2-0.2c0.4,0,0.8-0.4,0.8-0.8v-0.1l-0.2-5.1c0-0.4-0.4-0.8-0.8-0.8c-0.4,0-0.8,0.4-0.8,0.8l0.1,3.2
			c-2.1-1.7-4.7-2.7-7.5-2.9c-3.5-0.2-6.8,1-9.3,3.3c-3.5,3.2-5,8-3.9,12.7c0.1,0.4,0.4,0.6,0.8,0.6c0.1,0,0.1,0,0.2,0
			c0.4-0.1,0.7-0.5,0.6-1C2638.4-165,2639.7-169.2,2642.8-172L2642.8-172z"/>
		<path id="XMLID_2401_" class="st12" d="M2663.2-166.3c-0.1-0.4-0.5-0.7-1-0.6c-0.4,0.1-0.7,0.5-0.6,1c1,4.1-0.3,8.3-3.4,11.1
			c-2.2,2-4.9,2.9-7.6,2.9c-2.6,0-5.2-0.9-7.3-2.6l3.4-0.3c0.4,0,0.8-0.4,0.7-0.9c0-0.4-0.4-0.8-0.9-0.7l-5.2,0.5
			c-0.4,0-0.8,0.4-0.7,0.9l0.5,5.2c0,0.4,0.4,0.7,0.8,0.7c0,0,0,0,0.1,0c0.4,0,0.8-0.4,0.7-0.9l-0.3-3.2c2.1,1.7,4.7,2.7,7.5,2.9
			c0.2,0,0.4,0,0.7,0c3.2,0,6.3-1.2,8.7-3.3C2662.8-156.8,2664.3-161.7,2663.2-166.3L2663.2-166.3z"/>
	</g>
	<g id="XMLID_2394_" class="st5">
		<path id="XMLID_2395_" class="st6" d="M1813.5-28.8c-1.6,0-2.9,0.7-3.8,1.9l-7.4-4.2c0.2-0.5,0.3-1,0.3-1.6c0-0.6-0.1-1.1-0.3-1.6
			l7.4-4.2c0.9,1.2,2.3,1.9,3.8,1.9c2.7,0,4.8-2.2,4.8-4.8s-2.2-4.8-4.8-4.8c-2.7,0-4.8,2.2-4.8,4.8c0,0.6,0.1,1.1,0.3,1.6l-7.4,4.2
			c-0.9-1.2-2.3-1.9-3.8-1.9c-2.7,0-4.8,2.2-4.8,4.8s2.2,4.8,4.8,4.8c1.6,0,3-0.7,3.8-1.9l7.4,4.2c-0.2,0.5-0.3,1.1-0.3,1.6
			c0,2.7,2.2,4.8,4.8,4.8c2.7,0,4.8-2.2,4.8-4.8S1816.2-28.8,1813.5-28.8L1813.5-28.8z M1813.5-44.6c1.8,0,3.3,1.5,3.3,3.3
			c0,1.8-1.5,3.3-3.3,3.3c-1.8,0-3.3-1.5-3.3-3.3C1810.2-43.2,1811.7-44.6,1813.5-44.6L1813.5-44.6z M1797.7-29.3
			c-1.8,0-3.3-1.5-3.3-3.3c0-1.8,1.5-3.3,3.3-3.3c1.8,0,3.3,1.5,3.3,3.3C1801-30.8,1799.5-29.3,1797.7-29.3L1797.7-29.3z
			 M1813.5-20.6c-1.8,0-3.3-1.5-3.3-3.3c0-1.8,1.5-3.3,3.3-3.3c1.8,0,3.3,1.5,3.3,3.3C1816.8-22.1,1815.3-20.6,1813.5-20.6
			L1813.5-20.6z"/>
	</g>
	<g id="XMLID_2387_" class="st5">
		<path id="XMLID_2392_" class="st6" d="M2645.2,652.5c-0.4-0.3-0.9-0.2-1.2,0.2c-1.4,1.8-3.5,2.9-5.8,2.9h-2.3
			c-0.5,0-0.8,0.4-0.8,0.8s0.4,0.8,0.8,0.8h2.3c1.4,0,2.8-0.3,4-1c1.2-0.6,2.3-1.5,3.1-2.6C2645.6,653.3,2645.5,652.8,2645.2,652.5
			L2645.2,652.5z"/>
		<path id="XMLID_2390_" class="st6" d="M2647.5,640.9c0.2,0.1,0.3,0.2,0.5,0.2c0.2,0,0.5-0.1,0.7-0.3c1.4-1.8,3.5-2.8,5.7-2.8h4.8
			l-2.6,2.6c-0.3,0.3-0.3,0.8,0,1.2c0.2,0.2,0.4,0.2,0.6,0.2c0.2,0,0.4-0.1,0.6-0.2l4-4c0.3-0.3,0.3-0.8,0-1.2l-4-4
			c-0.3-0.3-0.8-0.3-1.2,0c-0.3,0.3-0.3,0.8,0,1.2l2.6,2.6h-4.8c-2.8,0-5.3,1.3-7,3.4C2647.1,640.1,2647.1,640.6,2647.5,640.9
			L2647.5,640.9z"/>
		<path id="XMLID_2388_" class="st6" d="M2657.8,651.8c-0.3-0.3-0.8-0.3-1.2,0c-0.3,0.3-0.3,0.8,0,1.2l2.6,2.6h-4.8
			c-4,0-7.2-3.2-7.2-7.2v-3.2c0-4.9-4-8.9-8.9-8.9h-2.3c-0.5,0-0.8,0.4-0.8,0.8s0.4,0.8,0.8,0.8h2.3c4,0,7.2,3.2,7.2,7.2v3.2
			c0,4.9,4,8.9,8.9,8.9h4.8l-2.6,2.6c-0.3,0.3-0.3,0.8,0,1.2c0.2,0.2,0.4,0.2,0.6,0.2c0.2,0,0.4-0.1,0.6-0.2l4-4
			c0.3-0.3,0.3-0.8,0-1.2L2657.8,651.8z"/>
	</g>
	<g id="XMLID_2382_" class="st5">
		<path id="XMLID_2385_" class="st6" d="M2298.9-39c-0.3-1.8-1.2-3.5-2.6-4.8c-1.6-1.4-3.6-2.2-5.7-2.2c-1.6,0-3.2,0.5-4.6,1.3
			c-1.1,0.7-2.1,1.7-2.7,2.9c-0.3-0.1-0.6-0.1-0.9-0.1c-2.5,0-4.6,2.1-4.6,4.6c0,0.3,0,0.6,0.1,1c-1.6,1.2-2.6,3.1-2.6,5.2
			c0,1.7,0.6,3.3,1.7,4.5c1.2,1.3,2.7,2.1,4.3,2.2h5.2c0.4,0,0.8-0.4,0.8-0.8c0-0.4-0.4-0.8-0.8-0.8h-5.1c-2.4-0.1-4.5-2.5-4.5-5.1
			c0-1.7,0.9-3.3,2.4-4.1c0.3-0.2,0.5-0.6,0.4-1c-0.1-0.3-0.2-0.7-0.2-1c0-1.7,1.3-3,3-3c0.4,0,0.7,0.1,1,0.2c0.4,0.1,0.8,0,1-0.4
			c1.1-2.4,3.5-3.9,6.2-3.9c3.5,0,6.4,2.6,6.8,6.2c0,0.4,0.3,0.7,0.7,0.7c2.7,0.5,4.7,2.9,4.7,5.7c0,3-2.3,5.6-5.2,5.8h-4.4
			c-0.4,0-0.8,0.4-0.8,0.8c0,0.4,0.4,0.8,0.8,0.8h4.5c1.8-0.1,3.5-1,4.8-2.4c1.3-1.4,2-3.2,2-5C2304.3-35.2,2302-38.2,2298.9-39
			L2298.9-39z"/>
		<path id="XMLID_2383_" class="st6" d="M2294.6-30.4c0.3-0.3,0.3-0.8,0-1.1l-4.3-4.3c-0.1-0.1-0.4-0.2-0.6-0.2
			c-0.2,0-0.4,0.1-0.6,0.2l-4.3,4.3c-0.3,0.3-0.3,0.8,0,1.1c0.2,0.2,0.4,0.2,0.6,0.2s0.4-0.1,0.6-0.2l2.9-2.9V-20
			c0,0.4,0.4,0.8,0.8,0.8s0.8-0.4,0.8-0.8v-13.3l2.9,2.9C2293.8-30.1,2294.3-30.1,2294.6-30.4L2294.6-30.4z"/>
	</g>
	<path id="XMLID_2375_" class="st13" d="M2065.4-38.3l-1.7-1.7c-0.3-0.3-0.7-0.4-1.1-0.4c-0.4,0-0.8,0.2-1.1,0.4l-0.2,0.2
		c-2.2-1.5-4.8-2.2-7.5-2.3h0c-1.7,0-3.3,0.3-4.8,0.9l2.9-2.9c0.4,0.2,0.8,0.3,1.2,0.3c0.7,0,1.4-0.3,2-0.8c0.5-0.5,0.8-1.2,0.8-2
		c0-0.7-0.3-1.4-0.8-2c-0.5-0.5-1.2-0.8-2-0.8c-0.7,0-1.4,0.3-2,0.8c-0.5,0.5-0.8,1.2-0.8,2c0,0.4,0.1,0.8,0.3,1.2l-5.3,5.3
		l-0.2-0.2c-0.3-0.3-0.7-0.4-1.1-0.4c-0.4,0-0.8,0.2-1.1,0.4l-1.7,1.7c-0.3,0.3-0.4,0.7-0.4,1.1c0,0.4,0.2,0.8,0.4,1.1l0.2,0.2
		l-5.3,5.3c-0.4-0.2-0.8-0.3-1.2-0.3c-0.7,0-1.4,0.3-2,0.8c-1.1,1.1-1.1,2.9,0,3.9c0.5,0.5,1.2,0.8,2,0.8s1.4-0.3,2-0.8
		c0.9-0.9,1-2.1,0.5-3.2l2.9-2.9c-0.6,1.5-0.9,3.2-0.9,4.8c0,2.7,0.8,5.3,2.3,7.5l-0.3,0.3c-0.6,0.6-0.6,1.5,0,2.1l1.7,1.7
		c0.3,0.3,0.7,0.4,1.1,0.4c0.4,0,0.8-0.2,1.1-0.4l1.7-1.7c0.6-0.6,0.6-1.5,0-2.1l-1.7-1.7c-0.3-0.3-0.7-0.4-1.1-0.4
		c-0.4,0-0.8,0.2-1.1,0.4l0,0c-2.4-3.9-2.3-9,0.3-12.8c0.2,0.1,0.4,0.1,0.5,0.1c0.4,0,0.8-0.2,1.1-0.4l1.7-1.7
		c0.4-0.4,0.5-1.1,0.3-1.6c3.8-2.6,8.9-2.7,12.8-0.3l-0.1,0.1c-0.6,0.6-0.6,1.5,0,2.1l1.7,1.7c0.3,0.3,0.7,0.4,1.1,0.4
		c0.4,0,0.8-0.2,1.1-0.4l1.7-1.7C2066-36.8,2066-37.7,2065.4-38.3L2065.4-38.3z M2045.6-19l-1.2,1.2l-1.2-1.2l1.2-1.2L2045.6-19z
		 M2052.5-47.3c0.2-0.2,0.4-0.3,0.7-0.3c0.2,0,0.5,0.1,0.7,0.3c0.2,0.2,0.3,0.4,0.3,0.7c0,0.2-0.1,0.5-0.3,0.7
		c-0.2,0.2-0.4,0.3-0.7,0.3c-0.2,0-0.5-0.1-0.7-0.3c-0.2-0.2-0.3-0.4-0.3-0.7C2052.3-46.9,2052.4-47.1,2052.5-47.3L2052.5-47.3z
		 M2035.8-27.9c-0.2,0.2-0.4,0.3-0.7,0.3s-0.5-0.1-0.7-0.3c-0.4-0.4-0.4-0.9,0-1.3c0.2-0.2,0.4-0.3,0.7-0.3s0.5,0.1,0.7,0.3
		C2036.1-28.8,2036.1-28.2,2035.8-27.9L2035.8-27.9z M2044.2-36.4l-1.2-1.2l1.2-1.2l1.2,1.2L2044.2-36.4z M2062.7-36.1l-1.2-1.2
		l1.2-1.2l1.2,1.2L2062.7-36.1z"/>
	<path id="XMLID_2373_" class="st13" d="M1678.9-175l-0.9,4.3h17.4l-0.5,2.8h-17.5l-0.8,4.3h17.4l-1,4.9l-7,2.3l-6.1-2.3l0.4-2.1
		h-4.3l-1,5.1l10.1,3.9l11.6-3.9l3.8-19.3H1678.9z"/>
	<g id="XMLID_2370_" class="st5">
		<path id="XMLID_2371_" class="st7" d="M1332-31.8l-0.5,5.3l-4.5,1.2l0,0l-4.5-1.2l-0.3-3.3h-4.1l0.6,6.4l8.4,2.3h0l0,0l8.4-2.3
			l1.1-12.5h-14.9l-0.4-4.2h15.6l0.4-4.1h-20.4l1.1,12.3H1332z"/>
	</g>
	<path id="XMLID_2368_" class="st14" d="M1558.8-36v-4.4c0-0.6,0.5-1.1,1.1-1.1c0.6,0,1.1-0.5,1.1-1.1c0-0.6-0.5-1.1-1.1-1.1
		c-1.8,0-3.3,1.5-3.3,3.3v4.4c0,1.2-1,2.2-2.2,2.2c-0.6,0-1.1,0.5-1.1,1.1c0,0.6,0.5,1.1,1.1,1.1c1.2,0,2.2,1,2.2,2.2v4.4
		c0,1.8,1.5,3.3,3.3,3.3c0.6,0,1.1-0.5,1.1-1.1c0-0.6-0.5-1.1-1.1-1.1c-0.6,0-1.1-0.5-1.1-1.1v-4.4c0-1.3-0.6-2.5-1.5-3.3
		C1558.2-33.4,1558.8-34.6,1558.8-36L1558.8-36z"/>
	<path id="XMLID_2366_" class="st14" d="M1581-33.7c-1.2,0-2.2-1-2.2-2.2v-4.4c0-1.8-1.5-3.3-3.3-3.3c-0.6,0-1.1,0.5-1.1,1.1
		c0,0.6,0.5,1.1,1.1,1.1c0.6,0,1.1,0.5,1.1,1.1v4.4c0,1.3,0.6,2.5,1.5,3.3c-0.9,0.8-1.5,2-1.5,3.3v4.4c0,0.6-0.5,1.1-1.1,1.1
		c-0.6,0-1.1,0.5-1.1,1.1c0,0.6,0.5,1.1,1.1,1.1c1.8,0,3.3-1.5,3.3-3.3v-4.4c0-1.2,1-2.2,2.2-2.2c0.6,0,1.1-0.5,1.1-1.1
		C1582.1-33.2,1581.6-33.7,1581-33.7L1581-33.7z"/>
	<g id="XMLID_2359_" class="st5">
		<g>
			<path id="XMLID_39_" class="st7" d="M2422.9,373.1c-0.9,0.4-2,0.7-3,0.8c1.1-0.6,1.9-1.7,2.3-2.9c-1,0.6-2.1,1-3.3,1.3
				c-1-1-2.3-1.7-3.8-1.7c-2.9,0-5.2,2.3-5.2,5.2c0,0.4,0,0.8,0.1,1.2c-4.4-0.2-8.2-2.3-10.8-5.5c-0.5,0.8-0.7,1.7-0.7,2.6
				c0,1.8,0.9,3.4,2.3,4.4c-0.9,0-1.7-0.3-2.4-0.7v0.1c0,2.5,1.8,4.7,4.2,5.1c-0.4,0.1-0.9,0.2-1.4,0.2c-0.3,0-0.7,0-1-0.1
				c0.7,2.1,2.6,3.6,4.9,3.6c-1.8,1.4-4.1,2.2-6.5,2.2c-0.4,0-0.8,0-1.2-0.1c2.3,1.5,5.1,2.4,8,2.4c9.6,0,14.9-8,14.9-14.9l0-0.7
				C2421.3,375.1,2422.2,374.2,2422.9,373.1L2422.9,373.1z"/>
		</g>
	</g>
	<g id="XMLID_2354_" class="st5">
		<path id="XMLID_2356_" class="st7" d="M1436.5,370.2h19.8c0.3,0,0.6,0.1,0.8,0.3c0.2,0.2,0.3,0.5,0.3,0.8s-0.1,0.6-0.3,0.8
			c-0.2,0.2-0.5,0.3-0.8,0.3h-19.8c-0.3,0-0.6-0.1-0.8-0.3c-0.2-0.2-0.3-0.5-0.3-0.8s0.1-0.6,0.3-0.8
			C1435.9,370.3,1436.2,370.2,1436.5,370.2z M1436.5,383.4h19.8c0.3,0,0.6,0.1,0.8,0.3c0.2,0.2,0.3,0.5,0.3,0.8s-0.1,0.6-0.3,0.8
			c-0.2,0.2-0.5,0.3-0.8,0.3h-19.8c-0.3,0-0.6-0.1-0.8-0.3c-0.2-0.2-0.3-0.5-0.3-0.8s0.1-0.6,0.3-0.8
			C1435.9,383.5,1436.2,383.4,1436.5,383.4z M1436.5,376.8h19.8c0.3,0,0.6,0.1,0.8,0.3c0.2,0.2,0.3,0.5,0.3,0.8s-0.1,0.6-0.3,0.8
			c-0.2,0.2-0.5,0.3-0.8,0.3h-19.8c-0.3,0-0.6-0.1-0.8-0.3c-0.2-0.2-0.3-0.5-0.3-0.8s0.1-0.6,0.3-0.8
			C1435.9,376.9,1436.2,376.8,1436.5,376.8z"/>
	</g>
	<g id="XMLID_2347_" class="st5">
		<path id="XMLID_2349_" class="st7" d="M1077.3,227.4h16.8c0.9,0,1.6,0.3,2.2,0.9c0.6,0.6,0.9,1.4,0.9,2.2v16.8
			c0,0.9-0.3,1.6-0.9,2.2c-0.6,0.6-1.4,0.9-2.2,0.9h-16.8c-0.9,0-1.6-0.3-2.2-0.9c-0.6-0.6-0.9-1.4-0.9-2.2v-16.8
			c0-0.9,0.3-1.6,0.9-2.2C1075.7,227.7,1076.4,227.4,1077.3,227.4z M1095.2,244.7l-5.3-5.3l-9,9h13.2c0.3,0,0.5-0.1,0.7-0.3
			c0.2-0.2,0.3-0.5,0.3-0.7V244.7z M1094.1,229.5h-16.8c-0.3,0-0.5,0.1-0.7,0.3c-0.2,0.2-0.3,0.5-0.3,0.7v16.8
			c0,0.3,0.1,0.5,0.3,0.7c0.2,0.2,0.5,0.3,0.7,0.3h0.6l12-12l5.3,5.3v-11.1c0-0.3-0.1-0.5-0.3-0.7
			C1094.6,229.6,1094.4,229.5,1094.1,229.5z M1081.5,231.6c0.9,0,1.6,0.3,2.2,0.9c0.6,0.6,0.9,1.4,0.9,2.2c0,0.9-0.3,1.6-0.9,2.2
			c-0.6,0.6-1.4,0.9-2.2,0.9s-1.6-0.3-2.2-0.9c-0.6-0.6-0.9-1.4-0.9-2.2c0-0.9,0.3-1.6,0.9-2.2
			C1079.9,231.9,1080.6,231.6,1081.5,231.6z M1081.5,233.7c-0.3,0-0.5,0.1-0.7,0.3c-0.2,0.2-0.3,0.5-0.3,0.7s0.1,0.5,0.3,0.7
			c0.2,0.2,0.5,0.3,0.7,0.3s0.5-0.1,0.7-0.3c0.2-0.2,0.3-0.5,0.3-0.7s-0.1-0.5-0.3-0.7C1082,233.8,1081.8,233.7,1081.5,233.7z"/>
	</g>
	<g id="XMLID_2341_" class="st5">
		<path id="XMLID_2343_" class="st7" d="M1560.5,226.4h16.8c0.9,0,1.6,0.3,2.2,0.9c0.6,0.6,0.9,1.4,0.9,2.2v16.8
			c0,0.9-0.3,1.6-0.9,2.2c-0.6,0.6-1.4,0.9-2.2,0.9h-16.8c-0.9,0-1.6-0.3-2.2-0.9c-0.6-0.6-0.9-1.4-0.9-2.2v-16.8
			c0-0.9,0.3-1.6,0.9-2.2C1558.9,226.7,1559.7,226.4,1560.5,226.4z M1564.7,247.4v-12.6h-5.3v11.6c0,0.3,0.1,0.5,0.3,0.7
			c0.2,0.2,0.5,0.3,0.7,0.3H1564.7z M1578.4,246.4v-11.6h-11.6v12.6h10.5c0.3,0,0.5-0.1,0.7-0.3
			C1578.3,246.9,1578.4,246.6,1578.4,246.4z M1577.4,228.5h-16.8c-0.3,0-0.5,0.1-0.7,0.3c-0.2,0.2-0.3,0.5-0.3,0.7v3.2h18.9v-3.2
			c0-0.3-0.1-0.5-0.3-0.7C1577.9,228.6,1577.7,228.5,1577.4,228.5z"/>
	</g>
	<g id="XMLID_2328_" class="st5">
		<g id="XMLID_2336_">
			<g id="XMLID_2339_">
				<path id="XMLID_2340_" class="st7" d="M2166.7-173.1c-0.2,0-0.4-0.1-0.5-0.2c-0.3-0.3-0.2-0.7,0-1c0.1-0.1,0.8-0.9-0.1-2.3
					c-1.3-1.9-0.5-3.4,0.1-3.9c0.3-0.2,0.7-0.2,1,0.1c0.2,0.3,0.2,0.7-0.1,0.9c-0.1,0.1-0.7,0.8,0.1,2.1c1.3,1.9,0.5,3.4-0.1,4
					C2167.1-173.1,2166.9-173.1,2166.7-173.1z"/>
			</g>
			<g id="XMLID_2337_">
				<path id="XMLID_2338_" class="st7" d="M2170.7-173.1c-0.2,0-0.4-0.1-0.5-0.2c-0.3-0.3-0.2-0.7,0-1c0.1-0.1,0.8-0.9-0.1-2.3
					c-1.3-1.9-0.5-3.4,0.1-3.9c0.3-0.2,0.7-0.2,1,0.1c0.2,0.3,0.2,0.7-0.1,0.9c-0.1,0.1-0.7,0.8,0.1,2.1c1.3,1.9,0.5,3.4-0.1,4
					C2171.1-173.1,2170.9-173.1,2170.7-173.1z"/>
			</g>
		</g>
		<path id="XMLID_2334_" class="st7" d="M2156.3-152.4C2156.3-152.4,2156.3-152.4,2156.3-152.4c0,0,0.1,0,0.1,0H2156.3z"/>
		<path id="XMLID_2330_" class="st7" d="M2180.7-168.4h-0.4v-1c0,0,0,0,0,0c0,0,0,0,0-0.1c0-0.6-0.5-1-1-1H2156
			c-0.4,0-0.8,0.3-1,0.7c-0.1,0.1-0.1,0.3-0.1,0.5v1.4c0,0.3,0,0.6,0,0.9c0.3,4.5,3.1,8.4,6.9,10.3c0,1,0.9,1.8,1.9,1.8c0,0,0,0,0,0
			c0,0,0,0,0,0h7.6c0.1,0,0.2,0,0.3,0c0.8-0.2,1.5-0.8,1.5-1.7c2.2-1.1,4.1-2.7,5.3-4.8c0.1,0,0.2,0.1,0.3,0.1l1.8,0
			c1.5,0,2.9-0.9,3.4-2.3C2184.7-166.2,2183-168.4,2180.7-168.4L2180.7-168.4z M2178.2-167.9c-0.1,5.6-4.7,10.2-10.3,10.2h-0.5
			c-5.7,0-10.3-4.6-10.3-10.2v-0.6h21.2V-167.9z M2180.7-163.4h-1.2c0.4-1,0.7-2,0.8-3.1h0.4c0.7,0,1.3,0.4,1.5,1
			C2182.5-164.4,2181.7-163.4,2180.7-163.4L2180.7-163.4z"/>
		<path id="XMLID_2329_" class="st7" d="M2155.6-152.2c0,0-0.1,0-0.1,0c0,1,0.9,1.9,1.9,1.9h20.5c1,0,1.9-0.8,1.9-1.9
			c-0.1,0-0.1,0-0.2,0"/>
	</g>
	<g id="XMLID_2316_" class="st5">
		<g id="XMLID_2323_">
			<g id="XMLID_2324_">
				<path id="XMLID_2325_" class="st6" d="M1092.4-13.8l-8.1-6.1h-6.5c-2.4,0-4.4-2-4.4-4.4v-12c0-2.4,2-4.4,4.4-4.4h20.5
					c2.4,0,4.4,2,4.4,4.4v12c0,2.4-2,4.4-4.4,4.4h-5.9V-13.8z M1077.8-38.7c-1.3,0-2.4,1.1-2.4,2.4v12c0,1.3,1.1,2.4,2.4,2.4h7.2
					l5.5,4.2v-4.2h7.8c1.3,0,2.4-1.1,2.4-2.4v-12c0-1.3-1.1-2.4-2.4-2.4H1077.8z"/>
			</g>
		</g>
		<g id="XMLID_2321_">
			<circle id="XMLID_2322_" class="st7" cx="1082.3" cy="-30" r="1.4"/>
		</g>
		<g id="XMLID_2319_">
			<circle id="XMLID_2320_" class="st7" cx="1088" cy="-30" r="1.4"/>
		</g>
		<g id="XMLID_2317_">
			<circle id="XMLID_2318_" class="st7" cx="1093.7" cy="-30" r="1.4"/>
		</g>
	</g>
	<path id="XMLID_2311_" class="st15" d="M1464.1-166.7l-3.5-7.6l-13.4-5.5l-14.6,5.5l-3.8,5.5l3.8-0.3v12.4l14.1,5.6l14-5.6v-8.5
		L1464.1-166.7z M1447.2-168.9v-9.7l12.1,4.9L1447.2-168.9z M1446.1-152.4l-12.5-4.9v-15.4l12.5,4.9V-152.4z M1459.6-157.3
		l-12.5,4.9v-15.4l2.7,7.3l9.8-4.2V-157.3z"/>
	<g id="XMLID_2303_" class="st5">
		<g id="XMLID_2306_">
			<path id="XMLID_2307_" class="st9" d="M981.6-172.6h-2.3v-4.6c0-0.7-0.6-1.3-1.3-1.3h-26.6c-0.7,0-1.3,0.6-1.3,1.3v19.9
				c0,0.7,0.6,1.3,1.3,1.3h5.1v2.4c0,0.7,0.6,1.3,1.3,1.3h23.8c0.7,0,1.3-0.6,1.3-1.3v-17.7C983-172,982.4-172.6,981.6-172.6z
				 M951.2-157.3v-19.9c0-0.1,0.1-0.2,0.2-0.2H978c0.1,0,0.2,0.1,0.2,0.2v19.9c0,0.1-0.1,0.2-0.2,0.2h-26.6
				C951.3-157.2,951.2-157.2,951.2-157.3z M981.8-153.6c0,0.1-0.1,0.2-0.2,0.2h-23.8c-0.1,0-0.2-0.1-0.2-0.2v-2.4H978
				c0.7,0,1.3-0.6,1.3-1.3v-14.1h2.3c0.1,0,0.2,0.1,0.2,0.2V-153.6z"/>
		</g>
		<g id="XMLID_2304_">
			<path id="XMLID_2305_" class="st6" d="M970.7-163.3h-1.5v-8.6c0-0.3-0.3-0.6-0.6-0.6c-0.3,0-0.6,0.3-0.6,0.6v8.6h-1.4v-6.3
				c0-0.3-0.3-0.6-0.6-0.6c-0.3,0-0.6,0.3-0.6,0.6v6.3h-1.4v-4.3c0-0.3-0.3-0.6-0.6-0.6c-0.3,0-0.6,0.3-0.6,0.6v4.3h-1.4v-3.2
				c0-0.3-0.3-0.6-0.6-0.6s-0.6,0.3-0.6,0.6v3.2h-1.7c-0.3,0-0.6,0.3-0.6,0.6s0.3,0.6,0.6,0.6h11.9c0.3,0,0.6-0.3,0.6-0.6
				S971-163.3,970.7-163.3z"/>
		</g>
	</g>
	<g id="XMLID_2282_" class="st5">
		<g id="XMLID_2297_">
			<g id="XMLID_2298_">
				<g id="XMLID_2299_">
					<path id="XMLID_2300_" class="st9" d="M2416.2-154.4H2403c-0.2,0-0.3-0.1-0.4-0.2c-0.1-0.1-0.2-0.3-0.1-0.4
						c0-0.1,0.5-6.3-3.7-9.1c-0.1-0.1-0.2-0.2-0.2-0.4c0-0.2,0-0.3,0.1-0.4c0.1-0.1,6.2-6.9,10.5-15.4c0.1-0.2,0.3-0.3,0.5-0.3
						s0.4,0.1,0.5,0.3c4.3,8.5,10.4,15.3,10.5,15.4c0.1,0.1,0.2,0.3,0.1,0.4c0,0.2-0.1,0.3-0.2,0.4c-4.2,2.8-3.7,9-3.7,9.1
						c0,0.2,0,0.3-0.1,0.4C2416.5-154.5,2416.3-154.4,2416.2-154.4z M2403.6-155.5h12.1c0-1.7,0.2-6.4,3.7-9.2
						c-1.4-1.6-6.1-7.3-9.7-14.2c-3.6,6.9-8.3,12.6-9.7,14.2C2403.3-161.9,2403.6-157.2,2403.6-155.5z"/>
				</g>
			</g>
		</g>
		<g id="XMLID_2293_">
			<g id="XMLID_2294_">
				<g id="XMLID_2295_">
					<path id="XMLID_2296_" class="st9" d="M2416.2-150.1h-13.3c-0.3,0-0.6-0.2-0.6-0.6c0-0.3,0.2-0.6,0.6-0.6h13.3
						c0.3,0,0.6,0.2,0.6,0.6C2416.8-150.4,2416.5-150.1,2416.2-150.1z"/>
				</g>
			</g>
		</g>
		<g id="XMLID_2289_">
			<g id="XMLID_2290_">
				<g id="XMLID_2291_">
					<path id="XMLID_2292_" class="st9" d="M2409.6-165.6c-0.3,0-0.6-0.2-0.6-0.6v-13.3c0-0.3,0.2-0.6,0.6-0.6
						c0.3,0,0.6,0.2,0.6,0.6v13.3C2410.1-165.8,2409.9-165.6,2409.6-165.6z"/>
				</g>
			</g>
		</g>
		<g id="XMLID_2283_">
			<g id="XMLID_2284_">
				<g id="XMLID_2285_">
					<path id="XMLID_2286_" class="st9" d="M2409.6-161.5c-1.4,0-2.6-1.1-2.6-2.6c0-1.4,1.1-2.6,2.6-2.6s2.6,1.2,2.6,2.6
						C2412.1-162.7,2411-161.5,2409.6-161.5z M2409.6-165.5c-0.8,0-1.5,0.7-1.5,1.5c0,0.8,0.7,1.5,1.5,1.5s1.5-0.7,1.5-1.5
						C2411-164.9,2410.4-165.5,2409.6-165.5z"/>
				</g>
			</g>
		</g>
	</g>
	<g id="XMLID_2276_" class="st5">
		<path id="XMLID_2278_" class="st7" d="M1192.3-170.7l14.8-7.4l14.8,7.4l-14.8,7.4L1192.3-170.7z M1207.1-155.5l12.1-6l2.8,1.4
			l-14.8,7.4l-14.8-7.4l2.8-1.4L1207.1-155.5z M1207.1-160.8l12.1-6l2.8,1.4l-14.8,7.4l-14.8-7.4l2.8-1.4L1207.1-160.8z
			 M1216.5-170.7l-9.3-4.7l-9.3,4.7l9.3,4.7L1216.5-170.7z"/>
	</g>
	<g id="XMLID_2270_" class="st5">
		<path id="XMLID_2271_" class="st7" d="M1432.3,97.9l14.8-7.4l14.8,7.4l-14.8,7.4L1432.3,97.9z M1447.2,113l12.1-6l2.8,1.4
			l-14.8,7.4l-14.8-7.4l2.8-1.4L1447.2,113z M1447.2,107.8l12.1-6l2.8,1.4l-14.8,7.4l-14.8-7.4l2.8-1.4L1447.2,107.8z M1456.5,97.9
			l-9.3-4.7l-9.3,4.7l9.3,4.7L1456.5,97.9z"/>
	</g>
	<g id="XMLID_2263_" class="st5">
		<path id="XMLID_2267_" class="st7" d="M1326.7,243.8h-7.9l-2.1,6.6h-2.8l7.3-21.6h3.1l7.3,21.6h-2.9L1326.7,243.8z M1326.1,241.6
			l-1-3.3c-0.8-2.4-1.5-4.8-2.1-7.3h-0.1c-0.7,2.5-1.4,4.9-2.1,7.3l-1.1,3.3H1326.1z"/>
		<path id="XMLID_2264_" class="st7" d="M1333.9,229.3c0-1.1,0.8-1.7,1.9-1.7s1.9,0.7,1.9,1.7c0,1-0.8,1.7-1.9,1.7
			S1333.9,230.4,1333.9,229.3z M1334.4,234.4h2.7v16h-2.7V234.4z"/>
	</g>
	<g id="XMLID_2257_" class="st5">
		<path id="XMLID_2260_" class="st7" d="M1676,366.9h6.7c4.8,0,8,1.6,8,6.4c0,4.6-3.3,6.7-8,6.7h-3.9v8.6h-2.8V366.9z M1682.3,377.7
			c3.8,0,5.6-1.4,5.6-4.5c0-3.1-1.9-4.2-5.6-4.2h-3.5v8.6H1682.3z"/>
		<path id="XMLID_2258_" class="st7" d="M1693.9,384.9c1.4,1.1,2.8,1.9,4.7,1.9c2.1,0,3.2-1.1,3.2-2.5c0-1.6-1.9-2.4-3.7-3
			c-2.3-0.8-4.8-1.9-4.8-4.6c0-2.6,2-4.6,5.5-4.6c2,0,3.8,0.8,5,1.8l-1.3,1.7c-1.1-0.8-2.2-1.4-3.7-1.4c-2,0-2.9,1.1-2.9,2.3
			c0,1.5,1.7,2.1,3.6,2.8c2.3,0.9,4.9,1.8,4.9,4.9c0,2.6-2.1,4.8-5.9,4.8c-2.3,0-4.5-1-6-2.2L1693.9,384.9z"/>
	</g>
	<g id="XMLID_2251_" class="st5">
		<path id="XMLID_2254_" class="st7" d="M1565.3,514h-7.9l-2.1,6.6h-2.8l7.3-21.6h3.1l7.3,21.6h-2.9L1565.3,514z M1564.6,511.8
			l-1-3.3c-0.8-2.4-1.5-4.8-2.1-7.3h-0.1c-0.7,2.5-1.4,4.9-2.1,7.3l-1.1,3.3H1564.6z"/>
		<path id="XMLID_2252_" class="st7" d="M1573,504.5h2.2l0.2,2.3h0.1c1.5-1.5,3.2-2.7,5.4-2.7c3.4,0,4.9,2.2,4.9,6.3v10.2h-2.7v-9.8
			c0-3-0.9-4.3-3-4.3c-1.6,0-2.8,0.9-4.4,2.5v11.6h-2.7V504.5z"/>
	</g>
	<g id="XMLID_2247_" class="st5">
		<path id="XMLID_2249_" class="st7" d="M851.7-43.4h-1.4c-3.8,0-6.9,3.1-6.9,6.9v2.9h-2.3c-0.2,0-0.4,0.2-0.4,0.4v3.5
			c0,0.2,0.2,0.4,0.4,0.4h2.3v10.7c0,0.2,0.2,0.4,0.4,0.4h3.5c0.2,0,0.4-0.2,0.4-0.4v-10.7h3.5c0.2,0,0.4-0.2,0.4-0.4v-3.5
			c0-0.2-0.2-0.4-0.4-0.4h-3.5v-2.9c0-1.4,1.1-2.5,2.5-2.5h1.4c0.2,0,0.4-0.2,0.4-0.4v-3.5C852.2-43.2,852-43.4,851.7-43.4
			L851.7-43.4z"/>
	</g>
	<g id="XMLID_2246_" class="st5">
		<path id="XMLID_2248_" class="st7" d="M1810.4,498.1c0.7,0,1.4,0.1,2,0.4c0.7,0.3,1.3,0.7,1.8,1.2c0.5,0.5,0.9,1.1,1.2,1.8
			c0.3,0.6,0.4,1.3,0.4,2s-0.1,1.4-0.4,2c-0.3,0.7-0.7,1.3-1.2,1.8l-10,10c-0.3,0.3-0.7,0.5-1.1,0.7c-0.4,0.2-0.8,0.2-1.2,0.2
			s-0.8-0.1-1.2-0.2c-0.4-0.2-0.8-0.4-1.1-0.7c-0.3-0.3-0.6-0.7-0.7-1.1c-0.2-0.4-0.2-0.8-0.2-1.2c0-0.4,0.1-0.8,0.2-1.2
			c0.2-0.4,0.4-0.8,0.7-1.1l9.2-9.2c0.2-0.2,0.5-0.3,0.8-0.3c0.3,0,0.5,0.1,0.8,0.3c0.2,0.2,0.3,0.5,0.3,0.8c0,0.3-0.1,0.6-0.3,0.8
			l-9.2,9.2c-0.2,0.2-0.3,0.5-0.3,0.8c0,0.3,0.1,0.6,0.3,0.8c0.2,0.2,0.5,0.3,0.8,0.3s0.5-0.1,0.8-0.3l10-10
			c0.6-0.6,0.9-1.4,0.9-2.3s-0.3-1.7-0.9-2.3c-0.6-0.6-1.4-0.9-2.3-0.9c-0.9,0-1.7,0.3-2.3,0.9l-10,9.9c-0.5,0.5-0.9,1.1-1.2,1.8
			c-0.3,0.6-0.4,1.3-0.4,2c0,0.7,0.1,1.4,0.4,2c0.3,0.7,0.7,1.3,1.2,1.8c0.5,0.5,1.1,0.9,1.8,1.2c0.7,0.3,1.3,0.4,2,0.4
			c0.7,0,1.4-0.1,2-0.4c0.7-0.3,1.3-0.7,1.8-1.2l9.9-9.9c0.2-0.2,0.5-0.3,0.8-0.3c0.3,0,0.5,0.1,0.8,0.3c0.2,0.2,0.3,0.5,0.3,0.8
			c0,0.3-0.1,0.6-0.3,0.8l-9.9,9.9c-0.7,0.7-1.6,1.3-2.5,1.7c-0.9,0.4-1.9,0.6-2.8,0.6c-1,0-1.9-0.2-2.8-0.6
			c-0.9-0.4-1.8-0.9-2.5-1.7c-0.7-0.7-1.3-1.6-1.7-2.5c-0.4-0.9-0.6-1.9-0.6-2.8c0-1,0.2-1.9,0.6-2.8c0.4-0.9,0.9-1.8,1.7-2.5h0
			l10-9.9c0.5-0.5,1.1-0.9,1.8-1.2C1809,498.3,1809.7,498.1,1810.4,498.1L1810.4,498.1z"/>
	</g>
	<g id="XMLID_2242_" class="st5">
		<path id="XMLID_2244_" class="st7" d="M966.5,362.7c0.3,0,0.5,0,0.8,0c-0.5,1.1-0.8,2.3-0.8,3.6c0,1.1,0.2,2.2,0.7,3.3
			c0.4,1,1,1.9,1.8,2.7s1.6,1.3,2.7,1.8c1,0.4,2.1,0.7,3.3,0.7c1.2,0,2.4-0.3,3.6-0.8c0,0.3,0,0.5,0,0.8c0,1.1-0.1,2.2-0.4,3.2
			c-0.3,1-0.7,2-1.2,2.9c-0.5,0.9-1.1,1.7-1.9,2.4c-0.7,0.7-1.5,1.4-2.4,1.9c-0.9,0.5-1.8,0.9-2.9,1.2c-1,0.3-2.1,0.4-3.2,0.4
			s-2.2-0.1-3.2-0.4c-1-0.3-2-0.7-2.9-1.2s-1.7-1.1-2.4-1.9s-1.4-1.5-1.9-2.4c-0.5-0.9-0.9-1.8-1.2-2.9c-0.3-1-0.4-2.1-0.4-3.2
			c0-1.1,0.1-2.2,0.4-3.2s0.7-2,1.2-2.9s1.1-1.7,1.9-2.4s1.5-1.4,2.4-1.9s1.8-0.9,2.9-1.2C964.3,362.8,965.4,362.7,966.5,362.7z
			 M964.1,365.4c-1,0.3-2,0.7-2.9,1.3c-0.9,0.6-1.7,1.3-2.3,2.1c-0.6,0.8-1.1,1.7-1.5,2.8c-0.4,1-0.5,2.1-0.5,3.2
			c0,1.3,0.3,2.5,0.8,3.7c0.5,1.2,1.2,2.2,2.1,3.1c0.9,0.9,1.9,1.5,3.1,2.1c1.2,0.5,2.4,0.8,3.7,0.8c1.1,0,2.2-0.2,3.2-0.5
			s1.9-0.9,2.8-1.5c0.8-0.6,1.5-1.4,2.1-2.3c0.6-0.9,1-1.9,1.3-2.9c-0.3,0-0.6,0-0.9,0c-1.5,0-2.9-0.3-4.2-0.9
			c-1.3-0.6-2.5-1.3-3.5-2.3c-1-1-1.7-2.1-2.3-3.5c-0.6-1.3-0.9-2.7-0.9-4.2C964,366,964.1,365.7,964.1,365.4L964.1,365.4z"/>
	</g>
	<g id="XMLID_2237_" class="st5">
		<path id="XMLID_2239_" class="st7" d="M1439.4,634.5h16c0.8,0,1.5,0.3,2.1,0.9c0.6,0.6,0.9,1.3,0.9,2.1v12c0,0.8-0.3,1.5-0.9,2.1
			c-0.6,0.6-1.3,0.9-2.1,0.9h-16c-0.8,0-1.5-0.3-2.1-0.9c-0.6-0.6-0.9-1.3-0.9-2.1v-12c0-0.8,0.3-1.5,0.9-2.1
			C1437.9,634.8,1438.6,634.5,1439.4,634.5z M1456.4,649.5v-10.9l-8.4,6.7c-0.2,0.1-0.4,0.2-0.6,0.2c-0.2,0-0.4-0.1-0.6-0.2
			l-8.4-6.7v10.9c0,0.3,0.1,0.5,0.3,0.7c0.2,0.2,0.4,0.3,0.7,0.3h16c0.3,0,0.5-0.1,0.7-0.3C1456.3,650,1456.4,649.8,1456.4,649.5z
			 M1455.4,636.5h-16c-0.1,0-0.2,0-0.3,0.1l8.3,6.7l8.3-6.7C1455.7,636.5,1455.5,636.5,1455.4,636.5z"/>
	</g>
	<g id="XMLID_2229_" class="st5">
		<path id="XMLID_2231_" class="st7" d="M1092.2,499.4c1.2,0,2.3,0.4,3.1,1.3c0.9,0.9,1.3,1.9,1.3,3.1s-0.4,2.3-1.3,3.1
			c-0.9,0.9-1.9,1.3-3.1,1.3h-2.2v4.4h2.2c1.2,0,2.3,0.4,3.1,1.3c0.9,0.9,1.3,1.9,1.3,3.1c0,1.2-0.4,2.3-1.3,3.1
			c-0.9,0.9-1.9,1.3-3.1,1.3s-2.3-0.4-3.1-1.3c-0.9-0.9-1.3-1.9-1.3-3.1v-2.2h-4.4v2.2c0,1.2-0.4,2.3-1.3,3.1
			c-0.9,0.9-1.9,1.3-3.1,1.3s-2.3-0.4-3.1-1.3c-0.9-0.9-1.3-1.9-1.3-3.1s0.4-2.3,1.3-3.1c0.9-0.9,1.9-1.3,3.1-1.3h2.2v-4.4h-2.2
			c-1.2,0-2.3-0.4-3.1-1.3c-0.9-0.9-1.3-1.9-1.3-3.1s0.4-2.3,1.3-3.1c0.9-0.9,1.9-1.3,3.1-1.3s2.3,0.4,3.1,1.3
			c0.9,0.9,1.3,1.9,1.3,3.1v2.2h4.4v-2.2c0-1.2,0.4-2.3,1.3-3.1C1089.9,499.8,1090.9,499.4,1092.2,499.4z M1081.1,517v-2.2h-2.2
			c-0.6,0-1.1,0.2-1.6,0.6c-0.4,0.4-0.6,1-0.6,1.6s0.2,1.1,0.6,1.6c0.4,0.4,1,0.6,1.6,0.6c0.6,0,1.1-0.2,1.6-0.6
			C1080.9,518.1,1081.1,517.6,1081.1,517z M1078.9,501.6c-0.6,0-1.1,0.2-1.6,0.6s-0.6,1-0.6,1.6s0.2,1.1,0.6,1.6s1,0.6,1.6,0.6h2.2
			v-2.2c0-0.6-0.2-1.1-0.6-1.6C1080.1,501.8,1079.5,501.6,1078.9,501.6z M1087.7,512.6v-4.4h-4.4v4.4H1087.7z M1092.2,514.8h-2.2
			v2.2c0,0.6,0.2,1.1,0.6,1.6c0.4,0.4,1,0.6,1.6,0.6c0.6,0,1.1-0.2,1.6-0.6c0.4-0.4,0.6-1,0.6-1.6s-0.2-1.1-0.6-1.6
			C1093.3,515,1092.8,514.8,1092.2,514.8z M1092.2,501.6c-0.6,0-1.1,0.2-1.6,0.6c-0.4,0.4-0.6,1-0.6,1.6v2.2h2.2
			c0.6,0,1.1-0.2,1.6-0.6c0.4-0.4,0.6-1,0.6-1.6s-0.2-1.1-0.6-1.6C1093.3,501.8,1092.8,501.6,1092.2,501.6z"/>
	</g>
	<g id="XMLID_2223_" class="st5">
		<path id="XMLID_2225_" class="st7" d="M2040.3,504.9h21.8c0.3,0,0.6,0.1,0.9,0.4s0.4,0.5,0.4,0.9c0,0.3-0.1,0.6-0.4,0.9
			s-0.5,0.4-0.9,0.4h-21.8c-0.3,0-0.6-0.1-0.9-0.4s-0.4-0.5-0.4-0.9c0-0.3,0.1-0.6,0.4-0.9S2039.9,504.9,2040.3,504.9z
			 M2040.3,519.5h17c0.3,0,0.6,0.1,0.9,0.4c0.2,0.2,0.4,0.5,0.4,0.9s-0.1,0.6-0.4,0.9c-0.2,0.2-0.5,0.4-0.9,0.4h-17
			c-0.3,0-0.6-0.1-0.9-0.4c-0.2-0.2-0.4-0.5-0.4-0.9s0.1-0.6,0.4-0.9C2039.7,519.6,2039.9,519.5,2040.3,519.5z M2040.3,514.6h21.8
			c0.3,0,0.6,0.1,0.9,0.4c0.2,0.2,0.4,0.5,0.4,0.9s-0.1,0.6-0.4,0.9c-0.2,0.2-0.5,0.4-0.9,0.4h-21.8c-0.3,0-0.6-0.1-0.9-0.4
			c-0.2-0.2-0.4-0.5-0.4-0.9s0.1-0.6,0.4-0.9C2039.7,514.7,2039.9,514.6,2040.3,514.6z M2040.3,509.8h17c0.3,0,0.6,0.1,0.9,0.4
			s0.4,0.5,0.4,0.9s-0.1,0.6-0.4,0.9s-0.5,0.4-0.9,0.4h-17c-0.3,0-0.6-0.1-0.9-0.4s-0.4-0.5-0.4-0.9s0.1-0.6,0.4-0.9
			S2039.9,509.8,2040.3,509.8z"/>
	</g>
	<g id="XMLID_2219_" class="st5">
		<path id="XMLID_2218_" class="st7" d="M2300.7,501.6c0-3.1-6-4.6-11.6-4.6c-5.6,0-11.6,1.4-11.6,4.5v17c0,3.1,6,4.6,11.6,4.6
			c5.4,0,11.2-1.4,11.6-4.3c0-0.1,0-0.1,0-0.2V501.6C2300.7,501.6,2300.7,501.6,2300.7,501.6L2300.7,501.6z M2298.5,518.6
			c0,0.7-3.3,2.4-9.4,2.4c-6.1,0-9.4-1.7-9.4-2.4v-14.2c0.6,0.3,1.3,0.6,2,0.8v5.6c0,0.6,0.5,1.1,1.1,1.1c0.6,0,1.1-0.5,1.1-1.1
			v-5.1c0.7,0.1,1.4,0.2,2.1,0.3v2.9c0,0.6,0.5,1.1,1.1,1.1c0.6,0,1.1-0.5,1.1-1.1v-2.7c0.3,0,0.6,0,0.9,0c0.4,0,0.9,0,1.3,0v5.3
			c0,0.6,0.5,1.1,1.1,1.1s1.1-0.4,1.1-1.1v-5.6c2.3-0.3,4.3-0.7,5.8-1.5L2298.5,518.6L2298.5,518.6z M2289.1,504
			c-6.1,0-9.4-1.7-9.4-2.4c0-0.7,3.3-2.4,9.4-2.4c6.1,0,9.4,1.7,9.4,2.4C2298.5,502.3,2295.2,504,2289.1,504L2289.1,504z"/>
	</g>
	<g id="XMLID_2214_" class="st5">
		<path id="XMLID_2213_" class="st7" d="M2542.8,517.7h-3.5v-13.4l3.9-3.9c0.1-0.1,0.1-0.2,0.1-0.4s0-0.3-0.1-0.4
			c-0.1-0.1-0.2-0.1-0.4-0.1s-0.3,0-0.4,0.1l-3.9,3.9h-13.4V500c0-0.1,0-0.3-0.1-0.4c-0.1-0.1-0.2-0.1-0.4-0.1h-3
			c-0.1,0-0.3,0-0.4,0.1c-0.1,0.1-0.1,0.2-0.1,0.4v3.5h-3.5c-0.1,0-0.3,0-0.4,0.1c-0.1,0.1-0.1,0.2-0.1,0.4v3c0,0.1,0,0.3,0.1,0.4
			c0.1,0.1,0.2,0.1,0.4,0.1h3.5v13.6c0,0.1,0,0.3,0.1,0.4c0.1,0.1,0.2,0.1,0.4,0.1h13.6v3.5c0,0.1,0,0.3,0.1,0.4
			c0.1,0.1,0.2,0.1,0.4,0.1h3c0.1,0,0.3,0,0.4-0.1c0.1-0.1,0.1-0.2,0.1-0.4v-3.5h3.5c0.1,0,0.3,0,0.4-0.1c0.1-0.1,0.1-0.2,0.1-0.4
			v-3c0-0.1,0-0.3-0.1-0.4C2543.1,517.8,2542.9,517.7,2542.8,517.7L2542.8,517.7z M2525.1,507.6h9.4l-9.4,9.4V507.6z M2535.2,517.7
			h-9.4l9.4-9.4V517.7z"/>
	</g>
	<g id="XMLID_2208_" class="st5">
		<path id="XMLID_2209_" class="st7" d="M1941.1,107.6h-3.5V94.1l3.9-3.9c0.1-0.1,0.1-0.2,0.1-0.4c0-0.1,0-0.3-0.1-0.4
			c-0.1-0.1-0.2-0.1-0.4-0.1c-0.1,0-0.3,0-0.4,0.1l-3.9,3.9h-13.4v-3.5c0-0.1,0-0.3-0.1-0.4c-0.1-0.1-0.2-0.1-0.4-0.1h-3
			c-0.1,0-0.3,0-0.4,0.1c-0.1,0.1-0.1,0.2-0.1,0.4v3.5h-3.5c-0.1,0-0.3,0-0.4,0.1c-0.1,0.1-0.1,0.2-0.1,0.4v3c0,0.1,0,0.3,0.1,0.4
			c0.1,0.1,0.2,0.1,0.4,0.1h3.5v13.6c0,0.1,0,0.3,0.1,0.4c0.1,0.1,0.2,0.1,0.4,0.1h13.6v3.5c0,0.1,0,0.3,0.1,0.4
			c0.1,0.1,0.2,0.1,0.4,0.1h3c0.1,0,0.3,0,0.4-0.1c0.1-0.1,0.1-0.2,0.1-0.4v-3.5h3.5c0.1,0,0.3,0,0.4-0.1c0.1-0.1,0.1-0.2,0.1-0.4
			v-3c0-0.1,0-0.3-0.1-0.4C1941.4,107.6,1941.3,107.6,1941.1,107.6L1941.1,107.6z M1923.5,97.5h9.4l-9.4,9.4V97.5z M1933.6,107.6
			h-9.4l9.4-9.4V107.6z"/>
	</g>
	<g id="XMLID_2184_" class="st5">
		<path id="XMLID_2185_" class="st7" d="M956.9,637.6c0-3.7,2-5.9,4.8-5.9s4.8,2.2,4.8,5.9c0,3.7-2,5.9-4.8,5.9
			S956.9,641.3,956.9,637.6z M963.1,637.6c0-2.5-0.7-3.2-1.4-3.2s-1.4,0.7-1.4,3.2c0,2.5,0.7,3.2,1.4,3.2S963.1,640.1,963.1,637.6z
			 M962.4,650.9l9.9-19.1h2.7l-9.9,19.1H962.4z M970.8,645c0-3.7,2-5.9,4.8-5.9s4.8,2.2,4.8,5.9c0,3.7-2,5.9-4.8,5.9
			S970.8,648.7,970.8,645z M977,645c0-2.5-0.7-3.2-1.4-3.2c-0.7,0-1.4,0.7-1.4,3.2s0.7,3.2,1.4,3.2C976.3,648.3,977,647.5,977,645z"
			/>
	</g>
	<g id="XMLID_2181_" class="st5">
		<path id="XMLID_2180_" class="st6" d="M2423.7,640.9l-13-11.6c0,0,0,0-0.1-0.1c-0.3-0.3-0.7-0.3-1,0l-13,11.6
			c-0.3,0.3-0.3,0.8-0.1,1.1c0.2,0.2,0.4,0.3,0.6,0.3c0.2,0,0.4-0.1,0.5-0.2l2.3-2.1v13.5c0,1.1,0.9,1.9,1.9,1.9h4.1
			c1,0,1.8-0.8,1.8-1.8v-6.9c0-0.2,0.1-0.3,0.3-0.3h4.1c0.2,0,0.3,0.1,0.3,0.3v6.9c0,1,0.8,1.8,1.8,1.8h4.1c1.1,0,1.9-1.1,1.9-2.4
			v-13l2.3,2.1c0.1,0.1,0.3,0.2,0.5,0.2c0.2,0,0.4-0.1,0.6-0.3C2424,641.7,2424,641.2,2423.7,640.9L2423.7,640.9z M2418.8,644.7v8.2
			c0,0.5-0.3,0.9-0.4,0.9h-4.1c-0.2,0-0.3-0.1-0.3-0.3v-6.9c0-1-0.8-1.8-1.8-1.8h-4.1c-1,0-1.8,0.8-1.8,1.8v6.9
			c0,0.2-0.1,0.3-0.3,0.3h-4.1c-0.2,0-0.4-0.2-0.4-0.4v-14.9l8.6-7.7l8.7,7.8V644.7z"/>
	</g>
	<g id="XMLID_2173_" class="st5">
		<path id="XMLID_2178_" class="st7" d="M2661.1,377.7h-10.6v3.5h6.5c-1,3.1-3.8,5.3-7.3,5.3c-4.2,0-7.6-3.4-7.6-7.6
			c0-4.2,3.4-7.6,7.6-7.6c2.1,0,4,0.9,5.4,2.3l2.6-2.8c-2.1-2-4.9-3.3-8-3.3c-6.3,0-11.4,5.1-11.4,11.4c0,6.3,5.1,11.4,11.4,11.4
			c5.5,0,10.3-3.9,11.4-9.1V377.7z"/>
		<path id="XMLID_2174_" class="st7" d="M2668,377.7h-2.2v-2.2h-1.9v2.2h-2.2v1.9h2.2v2.2h1.9v-2.2h2.2V377.7z"/>
	</g>
	<g id="XMLID_2163_" class="st5">
		<path id="XMLID_2170_" class="st7" d="M2530.2,224.7c-3.6,0-4.1,0-5.5,0.1c-1.4,0.1-2.4,0.3-3.2,0.6c-0.9,0.3-1.6,0.8-2.3,1.5
			c-0.7,0.7-1.2,1.5-1.5,2.3c-0.3,0.8-0.6,1.8-0.6,3.2c-0.1,1.4-0.1,1.9-0.1,5.5c0,3.6,0,4.1,0.1,5.5c0.1,1.4,0.3,2.4,0.6,3.2
			c0.3,0.9,0.8,1.6,1.5,2.3c0.7,0.7,1.5,1.2,2.3,1.5c0.8,0.3,1.8,0.6,3.2,0.6c1.4,0.1,1.9,0.1,5.5,0.1c3.6,0,4.1,0,5.5-0.1
			c1.4-0.1,2.4-0.3,3.2-0.6c0.9-0.3,1.6-0.8,2.3-1.5c0.7-0.7,1.2-1.5,1.5-2.3c0.3-0.8,0.6-1.8,0.6-3.2c0.1-1.4,0.1-1.9,0.1-5.5
			c0-3.6,0-4.1-0.1-5.5c-0.1-1.4-0.3-2.4-0.6-3.2c-0.3-0.9-0.8-1.6-1.5-2.3c-0.7-0.7-1.5-1.2-2.3-1.5c-0.8-0.3-1.8-0.6-3.2-0.6
			C2534.2,224.7,2533.8,224.7,2530.2,224.7L2530.2,224.7L2530.2,224.7z M2530.2,227.1c3.5,0,4,0,5.4,0.1c1.3,0.1,2,0.3,2.5,0.5
			c0.6,0.2,1.1,0.5,1.5,1c0.5,0.5,0.8,0.9,1,1.5c0.2,0.5,0.4,1.2,0.5,2.5c0.1,1.4,0.1,1.8,0.1,5.4c0,3.5,0,4-0.1,5.4
			c-0.1,1.3-0.3,2-0.5,2.5c-0.2,0.6-0.5,1.1-1,1.5c-0.5,0.5-0.9,0.8-1.5,1c-0.5,0.2-1.2,0.4-2.5,0.5c-1.4,0.1-1.8,0.1-5.4,0.1
			c-3.5,0-4,0-5.4-0.1c-1.3-0.1-2-0.3-2.5-0.5c-0.6-0.2-1.1-0.5-1.5-1c-0.5-0.5-0.8-0.9-1-1.5c-0.2-0.5-0.4-1.2-0.5-2.5
			c-0.1-1.4-0.1-1.8-0.1-5.4c0-3.5,0-4,0.1-5.4c0.1-1.3,0.3-2,0.5-2.5c0.2-0.6,0.5-1.1,1-1.5c0.5-0.5,0.9-0.8,1.5-1
			c0.5-0.2,1.2-0.4,2.5-0.5C2526.2,227.1,2526.6,227.1,2530.2,227.1"/>
		<path id="XMLID_2164_" class="st7" d="M2530.2,242.4c-2.4,0-4.4-2-4.4-4.4c0-2.4,2-4.4,4.4-4.4c2.4,0,4.4,2,4.4,4.4
			C2534.6,240.4,2532.6,242.4,2530.2,242.4L2530.2,242.4z M2530.2,231.1c-3.8,0-6.8,3-6.8,6.8c0,3.8,3,6.8,6.8,6.8
			c3.8,0,6.8-3,6.8-6.8C2537,234.2,2533.9,231.1,2530.2,231.1L2530.2,231.1z"/>
		<path id="XMLID_2161_" class="st7" d="M2538.8,230.9c0,0.9-0.7,1.6-1.6,1.6c-0.9,0-1.6-0.7-1.6-1.6s0.7-1.6,1.6-1.6
			C2538.1,229.3,2538.8,230,2538.8,230.9L2538.8,230.9z"/>
	</g>
	<g id="XMLID_2156_" class="st5">
		<path id="XMLID_2158_" class="st7" d="M1927.8,630.2c1.6,0,3.2,0.3,4.7,1s2.8,1.5,3.9,2.6c1.1,1.1,1.9,2.4,2.6,3.9
			c0.6,1.5,1,3.1,1,4.7c0,1.6-0.3,3.2-1,4.7c-0.6,1.5-1.5,2.8-2.6,3.9c-1.1,1.1-2.4,1.9-3.9,2.6s-3.1,1-4.7,1s-3.2-0.3-4.7-1
			s-2.8-1.5-3.9-2.6c-1.1-1.1-1.9-2.4-2.6-3.9c-0.6-1.5-1-3.1-1-4.7c0-1.6,0.3-3.2,1-4.7c0.6-1.5,1.5-2.8,2.6-3.9
			c1.1-1.1,2.4-1.9,3.9-2.6S1926.2,630.2,1927.8,630.2z M1927.8,632.4c-1.3,0-2.6,0.3-3.9,0.8c-1.2,0.5-2.3,1.2-3.2,2.1
			s-1.6,1.9-2.1,3.2c-0.5,1.2-0.8,2.5-0.8,3.9c0,1.3,0.3,2.6,0.8,3.9c0.5,1.2,1.2,2.3,2.1,3.2s1.9,1.6,3.2,2.1
			c1.2,0.5,2.5,0.8,3.9,0.8c1.3,0,2.6-0.3,3.9-0.8c1.2-0.5,2.3-1.2,3.2-2.1c0.9-0.9,1.6-1.9,2.1-3.2c0.5-1.2,0.8-2.5,0.8-3.9
			c0-1.3-0.3-2.6-0.8-3.9c-0.5-1.2-1.2-2.3-2.1-3.2c-0.9-0.9-1.9-1.6-3.2-2.1C1930.4,632.7,1929.2,632.4,1927.8,632.4z
			 M1927.8,634.6c0.3,0,0.6,0.1,0.8,0.3c0.2,0.2,0.3,0.5,0.3,0.8v6.2l3,3c0.2,0.2,0.3,0.5,0.3,0.8s-0.1,0.6-0.3,0.8
			c-0.2,0.2-0.5,0.3-0.8,0.3c-0.3,0-0.6-0.1-0.8-0.3l-3.3-3.3c-0.2-0.2-0.3-0.5-0.3-0.8v-6.6c0-0.3,0.1-0.6,0.3-0.8
			C1927.2,634.7,1927.5,634.6,1927.8,634.6z"/>
	</g>
	<g id="XMLID_2148_" class="st5">
		<path id="XMLID_2152_" class="st7" d="M1700.2,639.6c-2.2,0-3.9,1.8-3.9,3.9s1.8,3.9,3.9,3.9s3.9-1.8,3.9-3.9
			S1702.3,639.6,1700.2,639.6L1700.2,639.6z"/>
		<path id="XMLID_2150_" class="st7" d="M1675.4,639.6c-2.2,0-3.9,1.8-3.9,3.9s1.8,3.9,3.9,3.9s3.9-1.8,3.9-3.9
			S1677.6,639.6,1675.4,639.6L1675.4,639.6z"/>
		<path id="XMLID_2147_" class="st7" d="M1687.8,639.6c-2.2,0-3.9,1.8-3.9,3.9s1.8,3.9,3.9,3.9s3.9-1.8,3.9-3.9
			S1690,639.6,1687.8,639.6L1687.8,639.6z"/>
	</g>
	<g id="XMLID_2142_" class="st5">
		<path id="XMLID_2145_" class="st7" d="M1195.6,375.5c0.7,1.2,1.5,1.7,2.5,1.7c1.5,0,2.3-0.8,2.3-3.1v-10.9h2.9v11.2
			c0,3-1.5,5.4-4.9,5.4c-2.3,0-3.8-0.9-4.9-2.8L1195.6,375.5z"/>
		<path id="XMLID_2143_" class="st7" d="M1207.9,375.4c1.2,1.1,2.7,1.8,4.3,1.8c1.8,0,2.8-0.8,2.8-2.1c0-1.3-1-1.8-2.5-2.4l-2.2-1
			c-1.6-0.7-3.3-1.9-3.3-4.3c0-2.6,2.3-4.6,5.5-4.6c1.9,0,3.8,0.8,5,2.1l-1.5,1.8c-1-0.9-2.1-1.4-3.5-1.4c-1.5,0-2.5,0.7-2.5,1.9
			c0,1.3,1.2,1.7,2.6,2.3l2.2,0.9c1.9,0.8,3.3,2,3.3,4.4c0,2.6-2.2,4.8-5.9,4.8c-2.2,0-4.3-0.9-5.9-2.4L1207.9,375.4z"/>
	</g>
	<g id="XMLID_2134_">
		<g id="XMLID_2137_" class="st5">
			<g id="XMLID_2140_">
				<path id="XMLID_2141_" class="st7" d="M1938.1-159.1c-0.4,0-0.8-0.2-1-0.6c-0.4-0.6-0.2-1.3,0.4-1.7l6.8-4.3l-6.7-3.8
					c-0.6-0.3-0.8-1.1-0.5-1.7c0.3-0.6,1.1-0.8,1.7-0.5l8.5,4.8c0.4,0.2,0.6,0.6,0.6,1c0,0.4-0.2,0.8-0.6,1.1l-8.5,5.4
					C1938.5-159.1,1938.3-159.1,1938.1-159.1z"/>
			</g>
			<g id="XMLID_2138_">
				<path id="XMLID_2139_" class="st7" d="M1919.5-159.1c-0.2,0-0.4-0.1-0.6-0.2l-8.5-4.8c-0.4-0.2-0.6-0.6-0.6-1
					c0-0.4,0.2-0.8,0.6-1.1l8.5-5.4c0.6-0.4,1.3-0.2,1.7,0.4c0.4,0.6,0.2,1.3-0.4,1.7l-6.8,4.3l6.7,3.8c0.6,0.3,0.8,1.1,0.5,1.7
					C1920.4-159.3,1920-159.1,1919.5-159.1z"/>
			</g>
		</g>
		<g id="XMLID_2135_" class="st5">
			<path id="XMLID_2136_" class="st7" d="M1925.1-155.8c-0.1,0-0.3,0-0.4-0.1c-0.5-0.2-0.7-0.8-0.5-1.3l7.5-17.1
				c0.2-0.5,0.8-0.7,1.3-0.5c0.5,0.2,0.7,0.8,0.5,1.3l-7.5,17.1C1925.9-156,1925.5-155.8,1925.1-155.8z"/>
		</g>
	</g>
	<g id="XMLID_2127_" class="st5">
		<path id="XMLID_2130_" class="st16" d="M1569.1-36c0,0.8-0.6,1.4-1.4,1.4c-0.8,0-1.4-0.6-1.4-1.4c0-0.8,0.6-1.4,1.4-1.4
			C1568.5-37.4,1569.1-36.8,1569.1-36L1569.1-36z"/>
		<path id="XMLID_2128_" class="st16" d="M1567.7-30.8c-0.5,0-1,0.4-1,1v2.9c0,0.5,0.4,1,1,1c0.5,0,0.9-0.4,0.9-1v-2.9
			C1568.7-30.3,1568.2-30.8,1567.7-30.8L1567.7-30.8z"/>
	</g>
	<g id="XMLID_1996_" class="st5">
		<g id="XMLID_1999_">
			<path id="XMLID_2000_" class="st17" d="M1816.5,231.1h-0.2c-1,0-1.8,0.8-1.8,1.8v1.6h-0.2V233c0-1-0.8-1.8-1.8-1.8h-0.2
				c-1,0-1.8,0.8-1.8,1.8v1.6h-0.2V233c0-1-0.8-1.8-1.8-1.8h-0.2c-1,0-1.8,0.8-1.8,1.8v1.6h-0.1v-10.5c0-1-0.8-1.8-1.8-1.8h-0.2
				c-1,0-1.8,0.8-1.8,1.8v16c-0.5-0.6-0.9-1.1-1.3-1.6c-0.9-1.1-1.6-2-2.4-2.2c-0.9-0.2-1.7,0.1-2.1,0.7c-0.4,0.6-0.3,1.4,0.2,2.3
				c1,1.9,5.8,10.3,5.8,10.3c0.4,0.9,2.1,3.9,7.7,3.9v-0.2l0,0.2c4.1,0,6.1-1.9,7-3.6c1-1.8,1-3.5,1-3.6V233
				C1818.4,232,1817.5,231.1,1816.5,231.1L1816.5,231.1z"/>
		</g>
	</g>
	<g id="XMLID_1920_" class="st5">
		<g id="XMLID_1921_">
			<path id="XMLID_1922_" class="st7" d="M2069.9,236.3h-2.1l-3-7.4c-0.2-0.6-0.9-0.9-1.5-0.6c-0.6,0.2-0.9,0.9-0.6,1.5l2.6,6.6
				h-0.6l0,0h-9.9c-1.1,0-2.1,0.5-2.9,1.3c-0.7,0.8-1.1,1.8-0.9,2.9c0,0.4,0.1,0.8,0.1,1.1c-1.3-0.5-2.7-0.5-4,0
				c0-0.4,0.1-0.8,0.1-1.2c0.1-1.1-0.2-2.1-0.9-2.9c-0.7-0.8-1.7-1.3-2.9-1.3h-9.9l0,0h-0.5l2.6-6.6c0.2-0.6,0-1.2-0.6-1.5
				c-0.6-0.2-1.2,0-1.5,0.6l-3,7.4h-2.2c-0.6,0-1,0.5-1,1c0,0.6,0.5,1,1,1h0.5c-0.3,0.6-0.5,1.4-0.4,2.1c0.2,1.6,0.3,3.3,0.4,4.9
				c0.2,2.2,2.1,4.5,4.2,4.8c1.6,0.3,3.2,0.4,4.8,0.4c1.6,0,3.2-0.1,4.8-0.4c2.1-0.4,4-2.6,4.2-4.8c0-0.4,0.1-0.9,0.1-1.3
				c1.3-1,3.1-1.1,4.5-0.1c0,0.5,0.1,0.9,0.1,1.4c0.2,2.3,2.1,4.5,4.2,4.8c1.6,0.3,3.2,0.4,4.8,0.4c1.6,0,3.2-0.1,4.8-0.4
				c2.1-0.4,4-2.5,4.2-4.8c0.1-1.7,0.3-3.3,0.4-4.9c0.1-0.8-0.1-1.5-0.4-2.1h0.5c0.6,0,1-0.5,1-1
				C2070.9,236.7,2070.4,236.3,2069.9,236.3z M2042.2,248.2c-1.5,0.2-2.9,0.4-4.4,0.4c-1.5,0-3-0.1-4.4-0.4c-1.2-0.2-2.4-1.7-2.5-3
				c-0.1-1.7-0.3-3.3-0.4-5c0-0.5,0.1-1,0.4-1.4c0.3-0.4,0.8-0.6,1.4-0.6h11.2c0.5,0,1,0.2,1.4,0.6c0.3,0.4,0.5,0.8,0.4,1.4
				c-0.2,1.6-0.3,3.3-0.4,4.9C2044.6,246.6,2043.4,248,2042.2,248.2z M2067.3,245.2c-0.1,1.4-1.3,2.8-2.5,3c-2.9,0.5-5.9,0.5-8.8,0
				c-1.2-0.2-2.4-1.7-2.5-3c-0.1-1.7-0.3-3.3-0.4-4.9c0-0.5,0.1-1,0.4-1.4c0.3-0.4,0.8-0.6,1.3-0.6h11.2c0.5,0,1,0.2,1.4,0.6
				c0.3,0.4,0.5,0.8,0.4,1.4C2067.6,241.9,2067.5,243.6,2067.3,245.2z"/>
		</g>
	</g>
	<g id="XMLID_1819_">
		<g id="XMLID_1875_" class="st5">
			<g>
				<path id="XMLID_56_" class="st7" d="M837.7,225.5c0.7,0,1.3,0.2,1.7,0.7c0.4,0.5,0.6,1,0.7,1.7c0,0.7-0.2,1.3-0.7,1.7
					c-0.5,0.5-1.1,0.7-1.9,0.7h0c-0.8,0-1.4-0.2-1.9-0.7c-0.5-0.5-0.7-1-0.7-1.7c0-0.7,0.3-1.3,0.8-1.7
					C836.1,225.7,836.8,225.5,837.7,225.5L837.7,225.5z M835.1,232.2h5v14h-5V232.2z M858.1,238.2v8h-5v-7.5c0-1-0.2-1.7-0.6-2.3
					c-0.4-0.6-1-0.9-1.9-0.9c-0.7,0-1.3,0.2-1.7,0.5c-0.4,0.4-0.7,0.7-0.9,1.2c-0.1,0.2-0.1,0.3-0.1,0.5c0,0.2,0,0.4,0,0.6v7.8h-5
					c0-2.4,0-4.5,0-6.5v-4.7c0-0.7,0-1.3,0-1.8c0-0.5,0-0.8,0-1h5v2l0,0.1h0v-0.1c0.2-0.2,0.4-0.5,0.6-0.8c0.2-0.3,0.5-0.5,0.9-0.7
					c0.4-0.2,0.8-0.4,1.3-0.6c0.5-0.1,1.1-0.2,1.7-0.2c0.8,0,1.6,0.1,2.3,0.4c0.7,0.2,1.3,0.6,1.8,1.2c0.5,0.5,0.9,1.2,1.2,2
					C857.9,236.2,858.1,237.1,858.1,238.2L858.1,238.2z"/>
			</g>
		</g>
		<g id="XMLID_1859_" class="st5">
			<path id="XMLID_1861_" class="st7" d="M846.5-317.4c1.2,0,2.4,0.2,3.5,0.5c1.1,0.4,2.1,0.8,3,1.4c0.9,0.6,1.7,1.2,2.4,1.9
				c0.8,0.7,1.4,1.4,1.9,2.1s1,1.4,1.3,1.9c0.4,0.6,0.7,1.1,0.8,1.4l0.3,0.6c0,0.1-0.1,0.2-0.2,0.3c-0.1,0.1-0.2,0.4-0.5,0.9
				s-0.5,0.9-0.8,1.3c-0.3,0.4-0.7,1-1.1,1.5c-0.5,0.6-1,1.1-1.5,1.7s-1.1,1-1.8,1.6s-1.4,1-2.1,1.3c-0.7,0.4-1.5,0.7-2.5,0.9
				c-0.9,0.2-1.8,0.3-2.8,0.3c-1.2,0-2.4-0.2-3.5-0.5c-1.1-0.4-2.1-0.8-3-1.4s-1.7-1.2-2.4-1.9c-0.8-0.7-1.4-1.4-1.9-2.1
				c-0.5-0.7-1-1.3-1.3-1.9c-0.4-0.6-0.7-1.1-0.8-1.4l-0.3-0.5c0-0.1,0.1-0.2,0.2-0.3s0.2-0.4,0.5-0.9s0.5-0.9,0.8-1.3
				c0.3-0.4,0.7-1,1.1-1.6s1-1.2,1.5-1.7c0.5-0.5,1.1-1,1.8-1.6c0.7-0.5,1.4-1,2.1-1.3c0.7-0.4,1.5-0.7,2.5-0.9
				C844.6-317.2,845.5-317.3,846.5-317.4L846.5-317.4z M846.5-315.1c-0.8,0-1.6,0.1-2.4,0.3c-0.8,0.2-1.5,0.5-2.1,0.8
				c-0.6,0.3-1.2,0.7-1.8,1.2c-0.6,0.5-1.1,0.9-1.5,1.4c-0.4,0.5-0.9,1-1.3,1.5c-0.4,0.5-0.7,1-1,1.4s-0.5,0.8-0.7,1.1
				c0.2,0.4,0.4,0.7,0.7,1.1s0.6,0.8,1,1.4c0.4,0.5,0.8,1,1.3,1.5c0.4,0.5,0.9,0.9,1.5,1.4c0.6,0.5,1.2,0.9,1.8,1.2
				c0.6,0.3,1.3,0.6,2.1,0.8c0.8,0.2,1.6,0.3,2.4,0.3c0.8,0,1.6-0.1,2.4-0.3c0.8-0.2,1.5-0.5,2.1-0.8c0.6-0.3,1.2-0.7,1.8-1.2
				c0.6-0.5,1.1-0.9,1.5-1.4c0.4-0.5,0.9-1,1.3-1.5c0.4-0.5,0.7-1,1-1.4c0.2-0.4,0.5-0.8,0.7-1.1c-0.2-0.4-0.4-0.7-0.7-1.1
				c-0.2-0.4-0.6-0.8-1-1.4s-0.8-1-1.3-1.5c-0.4-0.5-0.9-0.9-1.5-1.4c-0.6-0.5-1.2-0.9-1.8-1.2s-1.3-0.6-2.1-0.8
				C848-315,847.3-315.1,846.5-315.1z M846.5-311.8c1.2,0,2.3,0.4,3.1,1.3c0.9,0.9,1.3,1.9,1.3,3.1c0,1.2-0.4,2.3-1.3,3.1
				s-1.9,1.3-3.1,1.3c-1.2,0-2.3-0.4-3.1-1.3c-0.9-0.9-1.3-1.9-1.3-3.1c0-1.2,0.4-2.3,1.3-3.1C844.2-311.4,845.2-311.8,846.5-311.8z
				 M846.5-309.6c-0.6,0-1.1,0.2-1.6,0.6c-0.4,0.4-0.6,1-0.6,1.6c0,0.6,0.2,1.1,0.6,1.6c0.4,0.4,1,0.6,1.6,0.6
				c0.6,0,1.1-0.2,1.6-0.6c0.4-0.4,0.6-1,0.6-1.6c0-0.6-0.2-1.1-0.6-1.6C847.6-309.4,847.1-309.6,846.5-309.6z"/>
		</g>
		<path id="XMLID_1820_" class="st13" d="M859.8,507h-2.1c0-3.4-0.2-7.4-0.2-7.6c0-0.3-0.2-0.6-0.5-0.8c-0.3-0.2-0.6-0.2-0.9,0
			c0,0-2.2,1.1-4.9,1.1c-1.5,0-2.9-0.4-4.2-1.1c-0.3-0.2-0.7-0.2-1,0c-1.2,0.7-2.6,1.1-4.2,1.1c-2.7,0-4.9-1.1-4.9-1.1
			c-0.3-0.2-0.6-0.2-0.9,0c-0.3,0.2-0.5,0.5-0.5,0.8c0,0.2-0.2,4.2-0.2,7.6h-2.1c-0.5,0-1,0.4-1,1s0.4,1,1,1h2.1
			c0,0.9,0.1,1.7,0.2,2.3c1.6,9,10.4,11,10.8,11c0.1,0,0.1,0,0.2,0c0.1,0,0.1,0,0.2,0c0.4-0.1,9.2-2,10.8-11
			c0.1-0.6,0.2-1.4,0.2-2.3h2.1c0.5,0,1-0.4,1-1S860.3,507,859.8,507z M837.4,510.9c-0.4-2-0.2-7.4-0.1-10c1.1,0.4,2.7,0.8,4.4,0.8
			c1.3,0,2.5-0.2,3.7-0.7v19C843.2,519.2,838.5,516.8,837.4,510.9z M855.5,510.9c-1.1,5.9-5.8,8.3-8.1,9.1v-19
			c1.1,0.4,2.4,0.7,3.7,0.7c1.8,0,3.4-0.4,4.4-0.8C855.7,503.4,855.9,508.8,855.5,510.9z"/>
	</g>
	<g id="XMLID_270_" class="st5">
		<path id="XMLID_1566_" class="st7" d="M1326.1,502.2c2.9,0,5.7,0.5,8.4,1.5c2.7,1,5.2,2.5,7.4,4.4c0.3,0.3,0.5,0.6,0.5,1.1
			c0,0.4-0.1,0.7-0.4,0.9l-0.1,0.1c-0.3,0.3-0.6,0.4-1,0.4c-0.4,0-0.7-0.1-0.9-0.4c-2-1.7-4.1-3-6.5-3.9c-2.4-0.9-4.9-1.3-7.4-1.3
			c-2.5,0-5,0.4-7.4,1.3c-2.4,0.9-4.6,2.2-6.5,3.9c-0.3,0.2-0.6,0.4-0.9,0.4c-0.4,0-0.8-0.2-1.1-0.5c-0.2-0.3-0.4-0.6-0.4-0.9
			c0-0.4,0.2-0.8,0.5-1.1c2.2-2,4.7-3.4,7.4-4.4C1320.4,502.7,1323.2,502.2,1326.1,502.2z M1326.1,519c1.3,0,2.5,0.3,3.5,1
			c0.2,0.1,0.4,0.3,0.5,0.5c0.1,0.2,0.2,0.4,0.2,0.7s-0.1,0.5-0.2,0.7c-0.1,0.1-0.1,0.2-0.2,0.3c-0.3,0.3-0.6,0.4-1,0.4
			c-0.3,0-0.5-0.1-0.7-0.2c-0.7-0.4-1.4-0.6-2.1-0.6c-0.8,0-1.5,0.2-2.1,0.6c-0.2,0.1-0.5,0.2-0.7,0.2c-0.5,0-0.9-0.2-1.2-0.7
			c-0.1-0.2-0.2-0.5-0.2-0.7c0-0.5,0.2-0.9,0.7-1.2C1323.6,519.3,1324.8,519,1326.1,519L1326.1,519z M1326.1,510.6
			c1.8,0,3.5,0.3,5.2,0.9s3.2,1.5,4.6,2.6c0.3,0.3,0.5,0.6,0.5,1.1c0,0.3-0.1,0.6-0.3,0.9c0,0.1-0.1,0.1-0.1,0.1
			c-0.3,0.3-0.6,0.4-1,0.4c-0.3,0-0.6-0.1-0.9-0.3c-1.1-0.9-2.4-1.6-3.8-2.1c-1.4-0.5-2.8-0.7-4.2-0.7s-2.8,0.2-4.2,0.7
			c-1.4,0.5-2.6,1.2-3.8,2.1c-0.3,0.2-0.6,0.3-0.9,0.3c-0.4,0-0.8-0.2-1.1-0.5c-0.2-0.3-0.3-0.6-0.3-0.9c0-0.4,0.2-0.8,0.5-1.1
			c1.4-1.1,2.9-2,4.6-2.6C1322.6,510.9,1324.3,510.6,1326.1,510.6L1326.1,510.6z"/>
	</g>
</g>
</svg>
