<?xml version="1.0" encoding="utf-8"?>
<!-- Generator: Adobe Illustrator 19.0.0, SVG Export Plug-In . SVG Version: 6.00 Build 0)  -->
<svg version="1.1" id="Layer_1" xmlns="http://www.w3.org/2000/svg" xmlns:xlink="http://www.w3.org/1999/xlink" x="0px" y="0px"
	 viewBox="739 74.2 277.6 210.9" style="enable-background:new 739 74.2 277.6 210.9;" xml:space="preserve">
<style type="text/css">
	.st0{fill:#232323;}
	.st1{fill:none;}
	.st2{fill:#8FC439;}
	.st3{opacity:0.2;fill:#8FC439;}
	.st4{fill:#FFFFFF;}
</style>
<g id="XMLID_2295_">
	<g id="XMLID_2351_">
		<path id="XMLID_2352_" class="st0" d="M808.2,281.8c16.3-1.6,16.3-28,16.3-28c-11.7,10.8-38.5,11.7-38.5,11.7
			S792.3,283.4,808.2,281.8z"/>
	</g>
	<path id="XMLID_2350_" class="st0" d="M840.3,204.3L805.5,218h-5.3h-30.7c-1.7,0-3.1,1.8-3.1,3.5c0,1.7,1.4,3.5,3.1,3.5h10.6
		c-0.5,0-0.7,1.3-0.7,2.3c0,3.3,2.7,5.8,6,5.8c3.3,0,6-2.3,6-5.6c0-1-0.3-2.5-0.7-2.5h9.5h5.3l37.4-13.2c1.5-0.5,2.5-2.2,2.5-3.8
		C845.4,205.4,842.7,203.3,840.3,204.3z"/>
	<circle id="XMLID_2349_" class="st0" cx="826.4" cy="226.2" r="6"/>
	<path id="XMLID_2348_" class="st1" d="M847.3,215h-27.5c-1,0-2,0.5-2.6,1.3c-0.6,0.7-0.9,1.8-0.8,2.8c0.3,3.5,0.7,7.4,1.1,12.2
		c0.3,2.9,2.9,6.1,5.4,6.5c7,1.2,14.4,1.2,21.5,0c2.5-0.4,5.1-3.6,5.4-6.5c0.4-4.3,0.7-8.1,1-11.5l0.1-0.7c0.1-1-0.2-2.1-0.8-2.8
		C849.4,215.5,848.4,215,847.3,215z"/>
	<path id="XMLID_2347_" class="st1" d="M791.5,215h-27.5c-1,0-2,0.5-2.6,1.3c-0.6,0.7-0.9,1.7-0.8,2.7c0.4,4.2,0.8,8.4,1.1,12.3
		c0.3,2.9,2.9,6.1,5.4,6.5c7,1.2,14.4,1.2,21.5,0c2.4-0.4,5.1-3.7,5.4-6.5c0.4-4.8,0.8-8.7,1.1-12.2l0-0.1c0.1-1-0.2-1.9-0.8-2.6
		C793.5,215.5,792.5,215,791.5,215z"/>
	<path id="XMLID_2343_" class="st2" d="M860.5,211.1c0-1.9-1.6-4.1-3.5-4.1h-37.2c-3,0-5.8,1.9-7.8,4.1c-1.9,2.2-2.9,5.3-2.6,8.2
		l0.1,1.5l-0.3,0c-2.4-0.6-4.9-0.5-7.2,0.1l-0.3,0.1l0.1-1.4c0.3-3-0.6-6.4-2.5-8.6c-2-2.2-4.8-4.1-7.9-4.1h-37.2
		c-1.9,0-3.5,2.2-3.5,4.1c0,1.7,1.3,3.5,3,3.8l0.2,0.2l-0.1,0.3c-0.4,1.4-0.6,2.8-0.5,4.2c0.4,4.2,0.8,8.3,1.1,12.2
		c0.5,5.9,5.6,11.8,11.2,12.8c7.8,1.3,16.1,1.3,23.9,0c5.5-1,10.6-6.8,11.1-12.8l0.3-2.8l0.1-0.1c2.7-1.9,6.3-1.9,9-0.2l0.1,0.1
		l0.3,3c0.5,5.9,5.6,11.8,11.2,12.8c3.9,0.7,7.9,1,11.9,1c4,0,8-0.3,12-1c5.6-1,10.6-6.7,11.1-12.8c0.4-4.1,0.7-8.2,1.1-12.2
		c0.1-1.4,0-2.8-0.5-4.2l-0.1-0.2l0.2-0.3C859.2,214.6,860.5,212.8,860.5,211.1z M795,218.9L795,218.9c-0.3,3.6-0.7,7.5-1.1,12.3
		c-0.2,2.8-3,6.1-5.4,6.5c-7,1.2-14.5,1.2-21.5,0c-2.5-0.4-5.2-3.7-5.4-6.5c-0.3-3.9-0.7-8.1-1.1-12.3c-0.1-1,0.2-1.9,0.8-2.6
		c0.7-0.7,1.6-1.3,2.6-1.3h27.5c1.1,0,2.1,0.5,2.7,1.3C794.8,217,795.1,217.9,795,218.9z M850.8,219.7c-0.3,3.5-0.7,7.3-1,11.5
		c-0.3,2.9-2.9,6.1-5.4,6.5c-7.1,1.2-14.5,1.2-21.5,0c-2.5-0.4-5.2-3.7-5.4-6.5c-0.4-4.8-0.8-8.7-1.1-12.2c-0.1-1,0.2-2,0.8-2.7
		c0.7-0.7,1.6-1.3,2.6-1.3h27.5c1.1,0,2,0.5,2.7,1.2c0.6,0.7,0.9,1.8,0.8,2.8L850.8,219.7z"/>
	<path id="XMLID_2342_" class="st0" d="M847,132c-0.8-1.5-3-0.9-3,0.8c-0.2,14.1-7.2,18.9-16.7,18.9c4.8-1.4,8.1-4.6,8.9-10.9
		c0.1-0.5-0.7-0.7-0.9-0.2c-2.9,9.6-13.6,10.1-25.2,7.4c-18.3-6.6-37.1-19.8-37.1-19.8s-24-14.6-29,9.2
		c-3.9,18.6,6.9,47.8,11.9,59.9c0.6,1.4,2.5,1,2.7-0.4c5.5-56.8,73.9,41.1,96,5.8C869.6,178.7,854.3,145.3,847,132z"/>
	<path id="XMLID_2341_" class="st3" d="M910,237.7c23.7-21.8-41.8-48.4-48.3-78.2c-10.1-45.9,45.8-84.9,81.3-80.7
		c94,11.1,55.8,150.9-31.9,159.8"/>
	<path id="XMLID_2340_" class="st2" d="M878.6,211c31.3-7.3-12.5-62.7-3.6-91.8c13.8-44.9,81.6-51.3,110.5-30.2
		c76.3,55.9-25.7,158.9-106.4,123.4"/>
	<g id="XMLID_2296_">
		<path id="XMLID_2337_" class="st4" d="M889,136.3c-0.2-1.1-0.6-2.6-0.9-4.1c-0.2-1.1-0.4-2.3-0.6-3.5l-0.2-0.8
			c0-0.2-0.1-0.3-0.1-0.5c-0.1,0-0.1,0-0.2,0c-0.6,0-1.1-0.2-1.5-0.5l-1.4-1c-0.8-0.2-1.5-0.8-1.9-1.8c-0.1-0.2-0.2-0.5-0.3-1.1
			c-0.1-0.6-0.3-1.5-0.3-2.1c-0.2-2,0.5-3,2.6-3.5c0.6-0.1,1.4-0.3,2.1-0.3c0.6-0.1,1.1-0.1,1.6-0.3l6.3-1.3c0.5-0.1,1-0.2,1.5-0.1
			c0.9,0,1.7,0.3,2.2,1l1.4,1c0.5,0.3,0.8,0.8,1.1,1.4c0.1,0.2,0.2,0.4,0.2,0.7l0.4,2c0.1,0.3,0.1,0.7,0,1c-0.1,1.1-0.8,1.9-1.9,2.4
			l-1.2,0.3l-0.6,0.1l0.6,3.8l0.5,3.4c0.1,1,0.3,2,0.4,2.9l0.4,2.7l0.8,4.7c0,0.2,0.1,0.6,0.1,0.8l0.2,0.8c0.2,1,0.4,2,0.7,3.1
			c0.1,0.3,0.1,0.6,0.1,1.1c0,1.4-0.8,2.6-2.2,2.9c-0.9,0.2-1.8,0.4-2.7,0.3l0,0c-0.7,0-1.3-0.2-1.8-0.5l-1.6-1.1
			c-0.8-0.3-1.4-1-1.7-2c-0.2-0.9-0.4-1.9-0.6-2.8l-0.2-0.9c0-0.3-0.1-0.5-0.1-0.6c-0.3-2-0.7-4-1.3-6.9L889,136.3z M892.2,143.5
			c0.1,0.3,0.1,0.6,0.1,0.8c0.2,1.1,0.4,2.2,0.7,3.3c0.2,0.7,0.7,1.1,1.5,1.1c0.8,0,1.5-0.1,2.2-0.3c0.6-0.1,0.9-0.6,0.9-1.3
			c0-0.3-0.1-0.6-0.1-0.8c-0.2-1-0.5-2.1-0.7-3.1c-0.1-0.5-0.2-1.1-0.3-1.6l-0.8-4.7l-0.4-2.8c-0.1-0.9-0.2-1.9-0.4-2.9l-0.5-3.3
			l-0.6-3.8c0-0.2-0.1-0.4-0.1-0.7c0-0.5,0.2-0.9,0.7-1c0.4-0.1,0.8-0.2,1.2-0.3l1-0.3c0.5-0.2,0.7-0.5,0.7-1c0-0.2,0-0.4,0-0.5
			l-0.4-2c0-0.2-0.1-0.3-0.2-0.5c-0.2-0.5-0.6-0.8-1.1-0.7c-0.4,0-0.7,0-1.1,0.1l-6.3,1.3c-0.7,0.2-1.3,0.2-2,0.3
			c-0.6,0-1.2,0.1-1.8,0.2c-0.9,0.2-1.3,0.7-1.2,1.6c0,0.6,0.2,1.3,0.3,1.9c0.1,0.3,0.1,0.5,0.2,0.8c0.2,0.5,0.6,0.8,1.1,0.8
			c0.5,0,1-0.1,1.5-0.2c0.3-0.1,0.6-0.1,0.9-0.1c0.5,0,0.8,0.2,0.9,0.6c0.1,0.2,0.1,0.4,0.2,0.6c0.1,0.5,0.2,1,0.3,1.5
			c0.3,1.7,0.5,3.5,0.9,5.2c0.4,1.9,0.8,3.7,1,4.8C891.4,139.5,891.8,141.5,892.2,143.5z"/>
		<path id="XMLID_2333_" class="st4" d="M903.1,138.2l-0.1-0.5c-0.1-0.3-0.1-0.6-0.2-1l-0.2-1.2c0-0.1,0-0.3,0-0.4
			c0-0.2-0.1-0.4-0.1-0.5l-0.1-0.6c-0.1-0.4-0.2-1-0.3-1.4c0-0.2,0-0.4-0.1-0.6l-0.4-1.9c0,0,0-0.1,0-0.2l0-0.1
			c-0.1-0.6-0.4-1.5-0.4-2c-0.3-1.5-0.5-3.2-0.7-4.7c-0.1-0.7-0.2-1.5-0.3-2.2l-0.4-2.9l0-0.2c0-0.1-0.1-0.3-0.1-0.5
			c0-1.2,0.5-2.3,1.6-2.9c0.3-0.2,0.7-0.4,1.2-0.5c0.7-0.3,1.5-0.5,2.2-0.7c1-0.2,2-0.4,3-0.5c2.3-0.2,4.3,0.5,6.1,2l0.3,0.3
			l0.9,0.6c0.3,0.2,0.5,0.4,0.8,0.6c0.9,0.8,1.8,1.8,2.4,3c0.2,0.5,0.4,1,0.5,1.4c0.2,0.7,0.4,1.5,0.6,2.3c0.1,0.7,0.2,1.4,0.3,1.9
			c0.2,2.2-0.5,4.1-1.6,5.9l0,0l-0.5,0.8l0.8,1.5c0.5,1.1,1.1,2.2,1.5,3.4c0.4,0.9,0.9,1.9,1.4,2.8l2.3,4.2l0.1,0
			c0.3,0.4,0.5,1,0.6,1.6c0.2,1-0.3,1.9-1.5,2.5l-0.5,0.2l-0.7,0.2c-0.5,0.2-1,0.3-1.4,0.5c-0.3,0.1-0.5,0.2-0.9,0.3
			c-0.8,0.1-1.5,0-2.1-0.4l-1.5-1c-0.2-0.1-0.5-0.2-0.7-0.3c-0.1,1-0.7,1.7-1.7,2.2c-0.9,0.4-1.8,0.7-2.8,0.9c-0.8,0.2-1.5,0-2-0.4
			l-1.4-1c-0.9-0.3-1.5-1-1.9-2l-0.2-0.4l-0.1-0.3c0-0.1-0.1-0.2-0.1-0.4l-0.1-0.7c-0.3-1.4-0.7-3.5-1-4.9
			C903.4,139.8,903.2,139,903.1,138.2z M904.7,137.5c0.5,2.4,1,4.8,1.5,7.3c0.1,0.5,0.2,0.9,0.3,1.4l0.1,0.3
			c0.2,0.6,0.7,0.8,1.3,0.7c0.9-0.2,1.7-0.4,2.5-0.8c0.6-0.3,0.9-0.8,0.8-1.5c-0.1-0.3-0.1-0.7-0.2-1c-0.3-1-0.5-1.9-0.8-2.9
			c-0.4-1.8-0.8-3.5-1.2-5.3c-0.2-0.7-0.3-1.4-0.4-2c-0.1-0.3,0-0.6,0.1-0.8c0.1-0.2,0.3-0.3,0.5-0.2c0.2,0.1,0.3,0.2,0.5,0.3
			l0.3,0.5c0.9,1.7,1.7,3.5,2.5,5.2c0.9,2,1.7,3.9,2.6,5.9c0.1,0.2,0.2,0.5,0.4,0.7c0.3,0.4,0.7,0.5,1.2,0.5c0.1,0,0.3-0.1,0.5-0.2
			c0.7-0.3,1.4-0.5,2.2-0.8l0.4-0.2c0.4-0.2,0.5-0.5,0.4-0.9c0-0.4-0.2-0.6-0.4-0.9c-0.8-1.4-1.6-2.8-2.4-4.2c-0.6-1-1.1-2-1.5-3.1
			c-0.4-1.1-0.9-2.2-1.4-3.2l-0.8-1.6c-0.3-0.5-0.2-1,0.1-1.4l0.6-0.9c1-1.5,1.5-3.2,1.4-5c-0.1-1.3-0.4-2.6-0.8-3.9
			c-0.1-0.4-0.2-0.7-0.4-1.1c-0.5-1-1.2-1.8-2-2.5c-1.4-1.2-3-1.7-4.8-1.6c-1,0.1-1.9,0.3-2.9,0.4c-0.7,0.1-1.4,0.4-2,0.6
			c-0.3,0.1-0.6,0.2-0.9,0.4c-0.6,0.3-0.8,0.8-0.7,1.4c0,0.1,0,0.3,0,0.4l0.4,2.9c0.1,0.8,0.2,1.5,0.3,2.2c0.3,2.2,0.5,4.4,1.1,6.5
			c0,0.2,0,0.4,0.1,0.6c0.1,0.8,0.3,1.6,0.4,2.4c0.2,0.8,0.4,1.7,0.5,2.5c0.1,0.6,0.2,1.1,0.3,1.6
			C904.6,136.7,904.7,137.1,904.7,137.5L904.7,137.5z M906.9,123.4l-0.3-1.7l-0.1-1c0-0.6,0.3-1.1,0.9-1.3c1.1-0.5,2.3-0.2,2.9,0.9
			c1.2,1.9,1.5,3.9,0.3,6c-0.4,0.8-1.1,1.2-1.9,1.5c-0.7,0.2-1.1,0-1.3-0.7c-0.1-0.2-0.1-0.5-0.1-0.6L906.9,123.4z"/>
		<path id="XMLID_2329_" class="st4" d="M921.6,137.7l-0.1-1.5l-0.7-5.8l-0.2-2.7l-0.1-1.7l-0.1-1.6c-0.1-0.6-0.1-1.3-0.2-2l-0.2-2
			l-0.1-0.5c0-0.1-0.1-0.3-0.1-0.5c-0.2-1.5-0.4-3.1-0.6-4.6c-0.1-0.5-0.1-1.1,0-1.4c0.1-1.2,0.8-2.2,1.9-2.7l0.5-0.2
			c1-0.3,2.1-0.6,3.4-0.8c0.4-0.1,1-0.2,1.4-0.2c0.7-0.1,1.5-0.1,2.2,0.1c0.9,0.2,1.7,0.5,2.2,1.2l1.4,0.9c0,0,0,0-0.1,0l0.1,0
			c0.4,0.4,0.7,0.7,1,1.3l0.1,0l0.5,1.1l0.7,2.1c0.5,1.4,1.1,3.1,1.6,4.5c0.3,0.8,0.5,1.8,0.7,2.7l0.4,1.3l0.4,1.4
			c0.2,0.6,0.3,1.1,0.3,1.3c0.2,0.7,0.4,1.4,0.7,2c0.4,1.1,0.8,2.3,1.1,3.5c0.3,1.2,0.7,2.4,1,3.5l0.4,1.3c0.3,1,0.5,2.1,0.8,3l0,0
			c0.2,0.5,0.1,0.8,0.2,1.1c0,0,0,0.1,0,0.2c0,1.3-0.5,2.1-1.4,2.6c-0.3,0.2-0.8,0.4-1.1,0.4l-0.4,0.1c-0.7,0.1-1.3,0.2-2.1,0.1
			c-0.6-0.1-1-0.2-1.5-0.5l-1.4-1c-0.8-0.3-1.4-0.8-1.8-1.7c-0.1-0.3-0.4-0.9-0.5-1.2c-0.4-1.2-0.8-2.7-1.1-4l-0.2-0.5l0.1,1.3
			c0,0.4,0.1,0.8,0.1,1l0.6,3.3c0,0.2,0.1,0.7,0.1,1.2c0.1,1.6-0.7,2.6-2.3,3l-1.5,0.3c-1.1,0.1-1.9,0-2.4-0.4l-1.5-1
			c-1.1-0.3-1.5-1.3-1.8-2.7l0,0c0-0.1-0.1-0.1-0.1-0.2L921.6,137.7z M923.9,141.8c0.2,0.9,0.5,1.4,1.8,1.3l1.3-0.2
			c0.7-0.2,1-0.6,1-1.3c0-0.3-0.1-0.7-0.1-1l-0.6-3.3c-0.1-0.3-0.1-0.7-0.1-1.1l-0.4-4.8l-0.3-2.9c0-0.2,0-0.4,0-0.7
			c0.1-0.3,0.2-0.5,0.5-0.7c0.3-0.2,0.5-0.2,0.8-0.3c0.3-0.1,0.7-0.1,1.1-0.1c0.8,0,1.1,0.2,1.4,1c0.1,0.1,0.1,0.2,0.1,0.3l1.5,5.5
			c0.1,0.6,0.3,1.2,0.5,1.7c0.5,1.6,0.9,3.3,1.4,4.9c0.1,0.3,0.2,0.7,0.4,1c0.2,0.5,0.6,0.8,1.2,0.9c0.7,0.1,1.3-0.1,2-0.2
			c0.2,0,0.4-0.1,0.6-0.3c0.3-0.2,0.6-0.5,0.6-0.9c0-0.3,0-0.6-0.1-0.9c-0.3-1-0.5-2.1-0.8-3.1c-0.5-1.6-1-3.2-1.4-4.9
			c-0.5-1.8-1.1-3.6-1.7-5.4c-0.3-0.9-0.5-1.8-0.8-2.8c-0.4-1.3-0.6-2.6-1.1-3.9c-0.7-2.2-1.5-4.3-2.3-6.5c-0.1-0.3-0.3-0.6-0.4-0.9
			c-0.3-0.6-0.8-0.9-1.4-1c-0.6-0.1-1.2-0.1-1.7-0.1c-1.5,0.2-2.9,0.5-4.3,1l-0.5,0.2c-0.5,0.2-0.8,0.6-0.9,1.2c0,0.3-0.1,0.7,0,1
			c0.2,1.5,0.4,3.1,0.6,4.6c0,0.4,0.1,0.7,0.2,1l0.4,4l0.2,3.3l0.2,2.7l0.7,5.8l0.1,1.5l0.5,4.2
			C923.8,141.7,923.8,141.7,923.9,141.8z M924.9,117.2c0-0.3,0-0.5,0.1-0.8c0.3-0.7,1.2-0.8,1.7-0.3c0.2,0.2,0.3,0.5,0.4,0.7
			l0.7,2.1l0.4,1.4c0.1,0.3,0.1,0.6,0.1,0.9c0,0.2-0.1,0.5-0.3,0.6c-0.4,0.3-0.9,0.5-1.4,0.5c-0.4,0-0.7-0.2-0.9-0.6
			c-0.1-0.3-0.2-0.5-0.2-0.8l-0.3-1.4L924.9,117.2z"/>
		<path id="XMLID_2323_" class="st4" d="M936.9,119.1c-0.3-1.6-0.8-4-1.1-5.4c-0.2-0.8-0.3-1.7-0.4-2.4c-0.1-1.6,0.6-2.9,1.9-3.6
			c0.7-0.4,1.6-0.7,2.5-1l0.1,0c0,0,0.1,0,0.1-0.1c0.2-0.1,0.5-0.2,0.9-0.2c2.3-0.5,4.6-0.3,6.8,0.3c1.2,0.4,2.2,1,3,1.7l1,0.7
			c1.2,0.8,2,1.9,2.5,3.3c0.3,0.7,0.4,1.3,0.5,1.9c0.1,0.7,0.2,1.4,0.2,2.2l0,0c0,1.3-0.3,2.5-0.7,3.5l0,0l-0.1,0.2
			c1,0.7,1.7,1.5,2.2,2.5c0.8,1.5,1.4,3.4,1.6,5c0.1,0.8,0.2,1.6,0.3,2.4c0.2,1.4,0.1,3,0,4.3c-0.1,1-0.4,2-0.7,2.9
			c-0.8,2.1-2.3,3.4-4.3,4.2c-1.5,0.6-3.3,1-4.8,1.2c-0.3,0.1-0.5,0.1-0.8,0.2l-1.3,0.2c-0.9,0.1-1.6,0-2.2-0.4l-1.5-1
			c-0.9-0.3-1.4-1-1.8-2.1c-0.1-0.3-0.2-0.7-0.3-1.2c0-0.1-0.1-0.2-0.1-0.2l0-0.2l-1.4-6.8l-0.8-3.9L936.9,119.1z M940,126.8
			l0.8,3.9l1.4,6.8c0.1,0.5,0.2,1,0.4,1.5c0.2,0.8,0.6,1.1,1.4,1l0.3-0.1c0.6-0.1,1.1-0.3,1.7-0.4c1.5-0.2,3-0.6,4.5-1.1
			c1.6-0.6,2.7-1.7,3.3-3.3c0.3-0.8,0.6-1.6,0.6-2.5c0.1-1.3,0.1-2.6,0-4l-0.3-2.5c-0.1-1.6-0.6-3-1.4-4.4c-0.5-0.9-1.1-1.6-2-2.1
			l-0.2-0.1c-0.4-0.3-0.5-0.6-0.3-1.1c0.1-0.3,0.3-0.6,0.4-0.8c0.4-0.9,0.6-1.9,0.6-2.9c0-1.2-0.2-2.3-0.6-3.4
			c-0.6-1.6-1.7-2.7-3.4-3.2c-1.9-0.6-3.9-0.7-6-0.3c-0.4,0.1-0.8,0.2-1.2,0.3c-0.7,0.2-1.4,0.5-2.1,0.8c-0.8,0.4-1.1,1-1,1.9
			c0.1,0.7,0.1,1.5,0.3,2.2c0.3,1.8,0.7,3.6,1.1,5.4L940,126.8z M941.8,113.8c0-0.1,0-0.1,0-0.2c-0.1-0.9,0.2-1.3,1.1-1.4
			c0.5-0.1,1.1-0.1,1.6-0.1c0.7,0,1.2,0.3,1.6,0.9c0.8,1,1.1,2.2,0.8,3.4c-0.1,0.7-0.5,1.2-1.2,1.5c-0.5,0.2-1.1,0.4-1.7,0.6
			c-0.2,0-0.3,0-0.5,0c-0.4,0-0.6-0.2-0.8-0.5c-0.1-0.2-0.2-0.4-0.2-0.6L941.8,113.8z M943.8,124.5c-0.2-1,0.2-1.5,1.2-1.7
			c0.6-0.1,1.2-0.3,1.8-0.2c0.7,0.1,1.2,0.3,1.6,0.9c0.3,0.4,0.6,0.8,0.7,1.3c0.5,1.3,0.9,2.7,1,4.2c0.1,0.5,0.1,1,0.1,1.5
			c0,1.1-0.4,1.9-1.3,2.6c-0.6,0.4-1.2,0.8-1.9,1.1c-0.2,0.1-0.4,0.1-0.5,0.2c-0.5,0.1-0.8,0-1-0.5c-0.1-0.3-0.2-0.6-0.2-0.9
			L943.8,124.5z M948.5,131c0.1-0.1,0.1-0.3,0.1-0.5c0-0.1,0-0.3,0-0.5l0-0.7c0-0.5-0.1-0.9-0.2-1.4c-0.1-0.7-0.3-1.5-0.6-2.1
			l-0.1,0L948.5,131z"/>
		<path id="XMLID_2319_" class="st4" d="M957.7,130.9l-0.1-1.5l-0.7-5.8l-0.2-2.7l-0.1-1.7l-0.1-1.6c-0.1-0.6-0.1-1.3-0.2-2l-0.2-2
			L956,113c0-0.1-0.1-0.3-0.1-0.5c-0.2-1.5-0.4-3.1-0.6-4.6c-0.1-0.5-0.1-1.1,0-1.4c0.1-1.2,0.8-2.2,1.9-2.7l0.5-0.2
			c1-0.3,2.1-0.6,3.4-0.8c0.4-0.1,1-0.2,1.4-0.2c0.7-0.1,1.5-0.1,2.2,0.1c0.9,0.2,1.7,0.5,2.2,1.2l1.4,0.9c0,0,0,0-0.1,0l0.1,0
			c0.4,0.4,0.7,0.7,1,1.3l0.1,0l0.5,1.1l0.7,2.1c0.5,1.4,1.1,3.1,1.6,4.5c0.3,0.8,0.5,1.8,0.7,2.7l0.4,1.3l0.4,1.4
			c0.2,0.6,0.3,1.1,0.3,1.3c0.2,0.7,0.4,1.4,0.7,2c0.4,1.1,0.8,2.3,1.1,3.5c0.3,1.2,0.7,2.4,1,3.5l0.4,1.3c0.3,1,0.5,2.1,0.8,3l0,0
			c0.2,0.5,0.1,0.8,0.2,1.1c0,0,0,0.1,0,0.2c0,1.3-0.5,2.1-1.4,2.6c-0.3,0.2-0.8,0.4-1.1,0.4l-0.4,0.1c-0.7,0.1-1.3,0.2-2.1,0.1
			c-0.6-0.1-1-0.2-1.5-0.5l-1.4-1c-0.8-0.3-1.4-0.8-1.8-1.7c-0.1-0.3-0.4-0.9-0.5-1.2c-0.4-1.2-0.8-2.7-1.1-4l-0.2-0.5l0.1,1.3
			c0,0.4,0.1,0.8,0.1,1l0.6,3.3c0,0.2,0.1,0.7,0.1,1.2c0.1,1.6-0.7,2.6-2.3,3l-1.5,0.3c-1.1,0.1-1.9,0-2.4-0.4l-1.5-1
			c-1.1-0.3-1.5-1.3-1.8-2.7l0,0c0-0.1-0.1-0.1-0.1-0.2L957.7,130.9z M960,135c0.2,0.9,0.5,1.4,1.8,1.3l1.3-0.2c0.7-0.2,1-0.6,1-1.3
			c0-0.3-0.1-0.7-0.1-1l-0.6-3.3c-0.1-0.3-0.1-0.7-0.1-1.1l-0.4-4.8l-0.3-2.9c0-0.2,0-0.4,0-0.7c0.1-0.3,0.2-0.5,0.5-0.7
			c0.3-0.2,0.5-0.2,0.8-0.3c0.3-0.1,0.7-0.1,1.1-0.1c0.8,0,1.1,0.2,1.4,1c0.1,0.1,0.1,0.2,0.1,0.3l1.5,5.5c0.1,0.6,0.3,1.2,0.5,1.7
			c0.5,1.6,0.9,3.3,1.4,4.9c0.1,0.3,0.2,0.7,0.4,1c0.2,0.5,0.6,0.8,1.2,0.9c0.7,0.1,1.3-0.1,2-0.2c0.2,0,0.4-0.1,0.6-0.3
			c0.3-0.2,0.6-0.5,0.6-0.9c0-0.3,0-0.6-0.1-0.9c-0.3-1-0.5-2.1-0.8-3.1c-0.5-1.6-1-3.2-1.4-4.9c-0.5-1.8-1.1-3.6-1.7-5.4
			c-0.3-0.9-0.5-1.8-0.8-2.8c-0.4-1.3-0.6-2.6-1.1-3.9c-0.7-2.2-1.5-4.3-2.3-6.5c-0.1-0.3-0.3-0.6-0.4-0.9c-0.3-0.6-0.8-0.9-1.4-1
			c-0.6-0.1-1.2-0.1-1.7-0.1c-1.5,0.2-2.9,0.5-4.3,1l-0.5,0.2c-0.5,0.2-0.8,0.6-0.9,1.2c0,0.3-0.1,0.7,0,1c0.2,1.5,0.4,3.1,0.6,4.6
			c0,0.4,0.1,0.7,0.2,1l0.4,4l0.2,3.3l0.2,2.7l0.7,5.8l0.1,1.5l0.5,4.2C959.9,134.9,959.9,134.9,960,135z M961,110.4
			c0-0.3,0-0.5,0.1-0.8c0.3-0.7,1.2-0.8,1.7-0.3c0.2,0.2,0.3,0.5,0.4,0.7l0.7,2.1l0.4,1.4c0.1,0.3,0.1,0.6,0.1,0.9
			c0,0.2-0.1,0.5-0.3,0.6c-0.4,0.3-0.9,0.5-1.4,0.5c-0.4,0-0.7-0.2-0.9-0.6c-0.1-0.3-0.2-0.5-0.2-0.8l-0.3-1.4L961,110.4z"/>
		<path id="XMLID_2316_" class="st4" d="M899.1,175.3l0.2,0.1l-0.3-1.6c-0.4-1.5-0.8-3.3-1.1-4.9c0-0.2-0.1-0.5-0.2-0.8
			c-0.1-0.3-0.3-1.3-0.4-1.7c-0.3-1.3-0.7-3.5-0.9-4.7l-0.7-2.9c-0.1-0.4-0.1-1.1-0.1-1.5c0.1-1.1,0.7-2,1.8-2.7l0,0c0,0,0,0,0.1,0
			c0.1-0.1,0.4-0.2,0.6-0.2c0.9-0.2,2.1-0.3,2.9-0.2c0.8,0.2,1.4,0.6,2,1.1l1.5,1c0.6,0.4,1.1,1,1.3,1.8c0.3,1.1,0.6,2.3,0.9,3.4
			l0.4,1.6c0.2,0.6,0.3,1.1,0.3,1.3c0.3,0.8,0.4,1.6,0.6,2.2c0.2,0.8,0.3,1.9,0.4,2.7c0.2,0.8,0.3,1.7,0.4,2.6l0.4,2.2
			c0.4,1.8,0.6,3.8,0.8,5.5c0.1,1.3,0.1,2.8,0,4.2c-0.1,1-0.4,2-0.8,2.9c-0.7,1.4-1.8,2.4-3.2,3c-0.9,0.4-1.9,0.6-2.9,0.6
			c-0.7,0-1.4-0.1-2.1-0.3l0,0c-0.8-0.2-1.5-0.6-2.3-1.1l-0.9-0.6c-0.4-0.2-0.8-0.4-1.2-0.7c-0.9-0.6-1.6-1.4-2-2.2
			c-0.4-0.8-0.7-1.7-1-2.6l-1.1-3.5c-0.1-0.3-0.2-0.7-0.2-1.1c-0.2-1.6,0.5-2.8,2.2-3.4c0.5-0.2,1.1-0.3,1.7-0.5
			C897.1,174.2,898.3,174.4,899.1,175.3z M901.7,177.3l0.3,2.2c0,0.4,0,0.8-0.1,1.1c-0.1,0.5-0.4,0.9-0.8,1.2
			c-0.4,0.3-1,0.2-1.3-0.2c-0.2-0.2-0.3-0.4-0.4-0.6c-0.4-1-0.8-2-1-3.1c-0.1-0.3-0.2-0.6-0.3-0.9c-0.2-0.9-0.9-1-1.5-0.8
			c-0.5,0.1-1.1,0.3-1.6,0.4c-0.7,0.2-1.1,0.8-1,1.6c0,0.2,0.1,0.5,0.2,0.7l0.9,3c0.3,0.9,0.6,1.8,1,2.6c0.4,0.6,0.8,1.2,1.5,1.6
			c0.5,0.4,1.1,0.7,1.8,0.8c0.5,0.2,1.1,0.3,1.7,0.3c0.8,0,1.6-0.2,2.3-0.5c1-0.4,1.8-1.1,2.3-2.2c0.4-0.7,0.6-1.5,0.6-2.3
			c0.1-1.3,0.1-2.6,0-4c-0.1-1.8-0.4-3.6-0.7-5.4l-0.4-2.1l-0.4-2.7c-0.2-1.5-0.4-3.1-0.9-4.6c-0.2-0.4-0.3-0.9-0.4-1.4
			c-0.5-1.6-0.9-3.3-1.4-5c-0.2-0.7-0.6-1.1-1.3-1.2c-0.7-0.1-1.5-0.1-2.2,0.1c-0.1,0-0.3,0.1-0.4,0.2c-0.5,0.2-0.7,0.6-0.7,1.1
			c0,0.3,0,0.7,0.1,1l0.7,2.9c0.3,1.6,0.6,3.2,0.9,4.8c0.1,0.5,0.2,1.1,0.3,1.6c0.4,1.9,0.9,3.8,1.3,5.6
			C901,174.7,901.3,176,901.7,177.3L901.7,177.3z"/>
		<path id="XMLID_2313_" class="st4" d="M909.3,175.8l-0.8-3.9c0,0,0-0.1-0.1-0.1l0-0.2c-0.4-1.8-0.8-3.6-1.2-5.4
			c-0.5-2-0.9-4.4-1.3-6.4c-0.2-1-0.4-2.2-0.5-3.2c-0.1-0.3-0.1-0.8-0.1-1c0-1.5,0.6-2.9,2.5-3.3c0.4-0.1,0.9-0.2,1.4-0.3l1.8-0.3
			l1.2-0.1l0.2,0c0.6-0.1,1.3-0.2,2-0.2c0.4,0,0.7,0,1.1,0.1c0.7,0.1,1.4,0.5,1.8,1l1.5,1c0.5,0.3,0.8,0.7,1,1.4
			c0.2,0.5,0.3,1,0.4,1.5c0.1,0.5,0.2,1,0.2,1.7c0,1.1-0.5,2-1.4,2.5c-0.4,0.2-0.7,0.4-1.2,0.6l-1.3,0.5l0,0.1l0.6,2.8
			c0.8,0.1,1.4,0.4,1.9,0.9l1.5,1c0.5,0.3,0.9,0.8,1.1,1.5c0.2,0.5,0.3,0.9,0.3,1.3c0.1,0.6,0.3,1.4,0.3,2l0.1,0.4
			c0.3,1.4-0.4,2.7-1.9,3.3c-0.2,0.1-0.4,0.2-0.6,0.2l-0.4,0.1l0.4,2c0.2,0,0.4,0,0.6,0c0.9,0,1.7,0.4,2.3,1.1l1.4,0.9
			c0.5,0.3,0.9,0.8,1.2,1.4l0.3,0.8c0.1,0.4,0.3,0.9,0.4,1.3l0.1,0c0.6,2.1,0,3.4-1.9,4c-0.5,0.1-1.1,0.2-1.6,0.3
			c-0.6,0-1.2,0.1-1.7,0.3c-1.1,0.3-2.1,0.6-2.9,1c-0.4,0.1-0.6,0.2-1,0.3l-0.3,0.1c-0.7,0.1-1.3,0-1.8-0.4l-1.5-1
			c-0.8-0.2-1.3-0.8-1.7-1.6c-0.1-0.3-0.3-1-0.4-1.4L909.3,175.8z M912.7,183.7c0.1,0.3,0.2,0.7,0.3,1c0.2,0.5,0.6,0.7,1.1,0.6
			c0.3-0.1,0.6-0.1,0.9-0.2c1-0.5,2-0.8,3.1-1.1c0.7-0.2,1.4-0.3,2.1-0.4c0.4,0,0.9-0.1,1.3-0.2c0.9-0.2,1.1-0.8,0.9-1.6
			c0-0.1-0.1-0.2-0.1-0.2c-0.2-0.4-0.3-0.8-0.5-1.3c-0.1-0.3-0.2-0.6-0.3-0.9c-0.2-0.5-0.6-0.7-1.2-0.7c-0.4,0-0.7,0-1.1,0.1
			c-0.5,0.2-1,0.3-1.6,0.3c-0.6,0-0.9-0.3-1.1-0.8c-0.1-0.2-0.1-0.5-0.1-0.8l-0.6-3.1c-0.1-0.4-0.2-0.8-0.2-1.2
			c-0.1-0.6,0.1-1,0.7-1.2c0.3-0.1,0.6-0.2,0.8-0.3c0.2-0.1,0.4-0.1,0.5-0.1c0.8-0.3,1.1-0.9,1-1.4l-0.1-0.5
			c-0.1-0.6-0.2-1.3-0.3-1.9c-0.1-0.3-0.1-0.6-0.3-1c-0.2-0.6-0.7-0.9-1.4-0.9l-1,0.1c-0.2,0-0.4,0-0.6,0c-0.4,0-0.6-0.2-0.8-0.5
			l-0.2-0.6c-0.1-0.3-0.2-0.7-0.2-1c-0.3-1.2-0.6-2.5-0.8-3.7c0-0.2-0.1-0.4-0.1-0.6c0-0.4,0.1-0.8,0.5-1.1c0.2-0.1,0.4-0.2,0.6-0.3
			l1.5-0.6c0.3-0.1,0.6-0.3,0.9-0.4c0.4-0.2,0.6-0.6,0.6-1c-0.1-0.9-0.2-1.8-0.5-2.6c-0.2-0.4-0.5-0.7-1-0.8
			c-0.2-0.1-0.4-0.1-0.7-0.1c-0.7,0.1-1.4,0.2-2.1,0.3l-1.2,0.1c-1,0.2-2,0.3-2.9,0.5c-0.9,0.2-1.1,0.8-1.2,1.5c0,0.2,0,0.5,0.1,0.8
			c0.2,1,0.3,2.1,0.5,3.1c0.4,2.1,0.8,4.2,1.3,6.3c0.4,1.8,0.8,3.6,1.2,5.5c0,0.1,0.1,0.2,0.1,0.3l0.8,3.9L912.7,183.7z"/>
		<path id="XMLID_2310_" class="st4" d="M944.7,180.8c-0.8-0.2-1.4-0.9-1.8-1.7c0,0.4,0,0.7,0,1.1l0,0c-0.1,2.2-0.9,3-3.1,3.4l0,0
			c-0.3,0.1-0.8,0.1-1.1,0.1c-0.8,0.1-1.6-0.1-2.1-0.5l-1.6-1.1c0,0,0,0-0.1,0c0,1.7-0.8,2.7-2.6,3.1l-1.4,0.3
			c-0.2,0-0.3,0.1-0.5,0.1c-0.9,0-1.6-0.2-2.2-0.6l-1.3-0.9c-1.1-0.3-1.8-1.2-2.2-2.6l-1.3-7.1c0-0.2-0.1-0.3-0.1-0.5
			c-0.1-0.3-0.2-1.1-0.3-1.3c-0.2-1-0.5-2.5-0.7-3.4l-2.6-13.6c-0.1-0.6-0.2-1.2-0.1-1.8c0.2-1.3,0.9-2.1,2.3-2.5
			c0.8-0.1,1.7-0.3,2.3-0.4c0.6-0.1,1.3-0.2,1.8-0.4c0.6-0.1,1.3-0.3,1.9-0.4c1.3-0.2,2.3,0.1,3.1,1l1.3,0.9
			c0.4,0.3,0.7,0.7,1.1,1.2l0.1-1.3c0-0.3,0.1-0.8,0.2-1.2c0.3-1.1,0.9-2,2.1-2.4c0.4-0.1,0.8-0.3,1.3-0.4c0.6-0.1,1.3-0.3,2.1-0.6
			l0,0c0.4-0.2,0.7-0.3,1.2-0.4c1.3-0.3,2.5,0,3.3,1l1.4,0.9c0.5,0.3,0.9,0.8,1.2,1.5l0,0.1c0.1,0.2,0.2,0.4,0.2,0.6
			c0.8,2.4,1.5,4.8,2,7.1l1.1,5.1l1.2,6.4c0.2,1.2,0.5,2.3,0.7,3.5c0.1,0.6,0.3,1.2,0.4,1.8c0.2,0.9,0.4,1.9,0.5,2.9
			c0.1,0.4,0.1,0.7,0,1.2c-0.1,1.4-0.7,2.5-2.1,2.9c-0.6,0.2-1.3,0.3-2,0.4c-0.8,0.1-1.5-0.1-2-0.5L944.7,180.8z M940,160.1
			c0.3,0.6,0.5,1.2,0.6,1.8c0.4,1.9,1,3.7,1.6,5.6c0.3,1.1,0.7,2.1,0.9,3.2c0.5,2,0.8,4,1.1,6c0.1,0.5,0.2,1,0.3,1.5
			c0.2,0.7,0.7,1,1.4,1c0.6-0.1,1.1-0.2,1.7-0.3c0.7-0.2,1-0.7,1-1.4c0-0.3,0-0.5,0-0.8c-0.1-0.9-0.3-1.9-0.5-2.8
			c-0.4-1.8-0.8-3.5-1.1-5.3c-0.4-2.1-0.8-4.3-1.2-6.4l-1.1-5.1c-0.5-2.4-1.2-4.8-2-7.1c0-0.2-0.1-0.4-0.2-0.6
			c-0.3-0.7-0.9-1-1.7-0.8c-0.4,0.1-0.7,0.2-1.1,0.4c-0.7,0.2-1.5,0.5-2.3,0.6c-0.4,0.1-0.8,0.2-1.2,0.4c-0.5,0.2-0.8,0.6-0.9,1.1
			c-0.1,0.3-0.1,0.6-0.1,0.9c-0.1,1.5-0.1,3-0.2,4.5v3.8c0,1,0,2-0.1,3c0,0.6-0.1,1.1-0.2,1.7c0,0.2-0.1,0.4-0.3,0.5
			c-0.2-0.1-0.3-0.3-0.4-0.5l-0.3-0.9l-0.6-2.3c-0.3-0.8-0.5-1.7-0.8-2.5l-2-5.5c-0.1-0.4-0.3-0.8-0.5-1.2c-0.4-0.7-0.9-0.9-1.7-0.8
			c-0.6,0.1-1.1,0.2-1.7,0.4c-0.7,0.2-1.3,0.3-2,0.4c-0.7,0.1-1.5,0.2-2.2,0.3c-0.5,0.1-0.8,0.5-0.9,1c-0.1,0.4,0,0.9,0.1,1.3
			l2.6,13.6c0.2,1.1,0.5,2.2,0.7,3.3c0.2,0.8,0.4,1.7,0.5,2.5l1.2,6.5c0.3,1.1,0.8,1.5,1.9,1.4c0.1,0,0.1,0,0.2,0l1.3-0.2
			c0.9-0.2,1.3-0.7,1.3-1.6c0-0.1,0-0.3,0-0.4c0-0.3-0.1-0.7-0.1-1c-0.5-2.6-1-5.3-1.5-7.9l-0.1-0.3c-0.2-1.6-0.5-3.1-0.8-4.7
			c-0.1-0.6-0.3-1.2-0.3-1.8c-0.1-0.3-0.2-0.9,0.1-1c0.1,0,0.2,0.1,0.3,0.2c0.2,0.3,0.4,0.6,0.5,0.9c0.5,1.1,0.9,2.2,1.3,3.3
			l1.6,4.3c0.3,0.9,0.7,1.8,1,2.7c0.5,1.3,0.9,2.6,1.3,3.9c0.1,0.4,0.3,0.7,0.5,1.1c0.3,0.7,0.9,0.9,1.6,0.9l1-0.1
			c1.2-0.2,1.6-0.6,1.7-1.9c0-0.4,0-0.8,0-1.3l0.1-7.1l0-2.9c0-1.4,0-2.8,0-4.2c0-0.9,0-1.8,0.1-2.7
			C939.3,160.2,939.5,159.3,940,160.1z"/>
		<path id="XMLID_2305_" class="st4" d="M947.9,158.8c-0.1-0.5-0.2-1.1-0.3-1.6l-0.1-0.6l-0.2-1.6l-0.1-0.8c0-0.1,0-0.2,0-0.3
			c-0.3-1.7-0.2-3.4,0.2-5c0.5-1.9,1.7-3.6,3.5-4.6c0.7-0.3,1.5-0.6,2.2-0.8c1-0.2,2-0.4,3-0.3c1.7,0.1,3.3,0.8,4.6,1.9l1.2,0.8
			c0.7,0.5,1.4,1.2,2,2l0,0c0.7,1,1.1,2,1.5,3.1c0.5,1.7,1.1,3.5,1.5,5.3c0.5,2,1,4.2,1.5,6.2c0.1,0.5,0.2,1,0.4,1.5l0.4,1.7
			c0.1,0.8,0.3,1.7,0.4,2.4c0.1,0.7,0.2,1.4,0.2,2.1l0,0.2c0.1,1.1,0,2.2-0.3,3.3l0,0c-0.6,2.3-2.1,4.1-4.3,5.2
			c-0.7,0.3-1.4,0.5-2.2,0.7c-0.7,0.1-1.4,0.2-2.1,0.2c-0.5,0-0.7,0-0.9-0.1c-1.4-0.3-2.6-0.8-3.6-1.5l-1.1-0.7l0,0
			c-1.8-0.9-3.3-2.4-4.1-4.5c-0.4-0.9-0.6-1.8-0.9-2.7c-0.3-1.2-0.7-2.5-1-3.8c-0.1-0.3-0.2-0.9-0.3-1.2l-0.6-3.4
			C948.1,160.8,947.9,159.7,947.9,158.8z M950.5,163.8c0.2,0.7,0.3,1.4,0.4,2.1c0.3,1.3,0.6,2.5,1,3.8c0.2,0.8,0.5,1.6,0.8,2.4
			c0.9,2.5,2.9,3.8,5.4,4.4c0.2,0,0.4,0.1,0.6,0.1c1.2,0,2.4-0.2,3.6-0.7c1.7-0.8,2.9-2.2,3.4-4.1c0.3-0.9,0.3-1.8,0.2-2.7
			c-0.1-0.7-0.1-1.4-0.2-2.2c-0.1-0.8-0.3-1.6-0.4-2.3c-0.2-1.1-0.6-2.2-0.8-3.2c-0.4-2-0.9-4.1-1.4-6.1c-0.4-1.7-0.9-3.5-1.4-5.2
			c-0.3-0.9-0.7-1.8-1.2-2.6c-1-1.5-2.5-2.4-4.3-2.5c-0.9,0-1.8,0.1-2.6,0.3c-0.6,0.1-1.1,0.3-1.6,0.6c-1.4,0.8-2.2,2-2.6,3.5
			c-0.4,1.4-0.4,2.8-0.2,4.2c0.1,0.4,0.1,0.8,0.2,1.2l0.2,1.5c0.1,0.8,0.3,1.5,0.4,2.2c0.1,1.5,0.5,2.8,0.7,4.3L950.5,163.8z
			 M959.3,163.6c0.3,1.3,0.5,2.6,0.8,3.9c0.1,0.4,0.1,0.8,0,1.2c-0.1,0.3-0.1,0.6-0.3,0.9c-0.1,0.2-0.3,0.4-0.5,0.6
			c-0.3,0.2-0.7,0.3-1,0.2c-0.3-0.1-0.5-0.3-0.8-0.5c-0.6-0.6-0.9-1.3-1-2.1l-0.4-1.9c-0.2-0.6-0.3-1.3-0.5-1.9
			c-0.1-0.3-0.2-0.7-0.3-1c-0.3-1.2-0.4-2.4-0.7-3.5c-0.4-1.8-0.6-3.5-0.9-5.4c-0.1-0.6-0.1-1.2-0.2-1.7c0-0.3,0-0.6,0.1-0.9
			c0.1-0.4,0.4-0.7,0.8-0.9c0.4-0.1,0.8,0,1.1,0.1c0.3,0.2,0.5,0.4,0.7,0.8c0.2,0.4,0.5,0.8,0.6,1.3c0.3,1.1,0.6,2.1,0.9,3.1
			L959.3,163.6z M957,162.7l0.4,0.3l0,0L957,162.7z"/>
		<path id="XMLID_2302_" class="st4" d="M974.7,175.2c-0.1-0.1-0.2-0.1-0.3-0.2l-1-0.7c-0.3-0.1-0.5-0.3-0.8-0.4
			c-1.7-1.1-3.1-2.6-3.9-4.7c-0.3-0.8-0.7-1.8-0.9-2.7c-0.1-0.4-0.2-1-0.2-1.4c0-1.1,0.6-2.2,1.6-2.8c0.7-0.5,1.6-0.7,2.3-0.9
			l-1.5-1.3c-0.5-0.4-1-0.9-1.5-1.4c-0.5-0.5-1.1-1.2-1.4-1.9c-0.6-1.1-1.2-2.5-1.3-4c0,0,0-0.1,0-0.2l-0.1-1l0-0.6l0,0l0-1
			c0-0.6-0.1-1.2-0.1-1.8c0-0.1,0-0.2,0-0.3c0-1.4,0.2-2.7,0.6-3.8c0.5-1.2,1.2-2.2,2.4-2.9c1.2-0.7,2.4-1.2,4-1.5
			c1.3-0.2,2.6-0.1,3.9,0.3c0.8,0.3,1.6,0.8,2.3,1.4l1.2,0.8c0.8,0.6,1.5,1.3,2,2.1c0.6,1,1,2,1.2,3.1l0.3,1.2
			c0.1,0.7,0.3,1.5,0.2,2.4c-0.1,1-0.4,1.8-1.3,2.5l0,0c-0.9,0.6-1.8,1.1-2.9,1.3c-0.2,0-0.3,0.1-0.5,0.1l0.3,0.2
			c0.5,0.3,0.9,0.7,1.3,1.1l1.1,1.2l1.5,1.6c0.5,0.5,1.1,1.4,1.5,2.2c0.5,0.9,1,1.8,1.3,2.9c0.2,0.5,0.3,1.2,0.4,1.8
			c0.2,1.1,0.3,2.3,0.1,3.5c-0.3,1.7-0.9,3.2-2,4.6c-1,1.2-2.2,1.9-3.7,2.2C978.7,176.6,976.6,176.3,974.7,175.2z M979.4,146.6
			c-0.2-0.9-0.5-1.8-1-2.6c-0.6-1-1.4-1.7-2.6-2.1c-1-0.4-2-0.4-3.1-0.3c-1.2,0.2-2.3,0.7-3.4,1.3c-0.8,0.4-1.3,1.1-1.6,2
			c-0.4,1-0.6,2-0.6,3.1c0,1,0.1,2,0.1,3c0,0.6,0,1.2,0.1,1.8c0.1,1.2,0.6,2.3,1.1,3.3c0.2,0.6,0.6,1,1,1.4c0.5,0.5,1,0.9,1.4,1.3
			c1.5,1.4,3,2.8,4.4,4.3c0.4,0.5,0.8,1,1.1,1.5c0.2,0.5,0.4,0.9,0.5,1.4c0.1,0.7-0.1,1.4-0.6,2c-0.3,0.3-0.9,0.5-1.3,0.1
			c-0.3-0.2-0.5-0.5-0.7-0.8c-0.5-0.9-1-1.9-1.3-3c0-0.2-0.1-0.5-0.2-0.7c-0.2-0.4-0.5-0.6-1-0.5c-0.7,0.1-1.4,0.3-2,0.7
			c-0.5,0.2-0.7,0.7-0.6,1.2c0,0.3,0,0.6,0.1,0.9c0.3,0.8,0.5,1.7,0.9,2.5c0.6,1.6,1.7,2.9,3.2,3.8c1.5,0.9,3.2,1.2,5,0.8
			c1.1-0.2,2-0.7,2.7-1.6c0.9-1.1,1.4-2.4,1.6-3.8c0.3-1.5,0-3-0.5-4.4c-0.3-1-0.8-2-1.3-2.9c-0.3-0.5-0.7-1.1-1.1-1.5l-1.5-1.6
			l-1.1-1.2c-0.4-0.4-0.8-0.7-1.3-1c-0.6-0.4-1.2-0.8-1.7-1.2c-1.5-1.3-2.2-3-2.1-5c0-0.5,0.1-0.9,0.4-1.3c0.4-0.7,1.1-0.9,1.8-0.3
			c0.1,0.1,0.3,0.3,0.3,0.4c0.2,0.3,0.3,0.5,0.4,0.8c0.3,0.6,0.4,1.3,0.6,2c0.1,0.3,0.1,0.6,0.2,0.8c0.2,0.6,0.6,0.7,1.2,0.6
			c0.8-0.1,1.5-0.5,2.2-1c0.4-0.3,0.6-0.8,0.6-1.3c0.1-0.7-0.1-1.3-0.2-1.9L979.4,146.6z"/>
		<path id="XMLID_2297_" class="st4" d="M984.4,153c-1.1-0.3-1.8-1.2-2.1-2.4c-0.2-0.8-0.4-1.6-0.6-2.5c-0.1-0.4-0.2-1-0.2-1.5
			c0-0.1-0.1-0.3,0-0.4c0-0.1,0-0.2,0-0.2c0-0.1,0-0.2,0-0.3c-0.1-0.5-0.1-1.3-0.1-1.3l0,0c-0.1-2.3,0.7-4.2,2.3-5.7
			c1.3-1.2,2.8-2.1,4.6-2.6l1.6-0.4c1-0.2,2.3-0.3,3.4-0.3c1.6,0.1,2.9,0.7,4.2,1.7l0.6,0.5l0.9,0.6l0.5,0.4
			c1.4,1.1,2.4,2.6,3.1,4.1c0.4,1,0.8,2,0.9,2.9c0.1,0.7,0.2,1.3,0.2,1.8l0,0c0,0.1,0,0.2,0,0.3c0,0.7,0.1,1.5,0,1.9
			c-0.1,1.3-0.6,2.6-1.5,3.6l-0.7,0.8l-0.6,0.6l0,0c-0.6,0.6-1.2,1.3-1.8,1.9l0,0l-0.5,0.7l0,0c-0.5,0.7-0.7,1.5-0.5,2.3l0.2,1.1
			c0,0.2,0.1,0.7,0.1,0.9c0,1-0.4,2-1.3,2.6l1.2,0.8c0.6,0.4,1,1.1,1.3,1.9l0.5,1.8l0.1,0.7c0.1,1.9-0.6,2.9-2.4,3.4
			c-0.8,0.2-1.6,0.3-2.5,0.3c-0.7,0-1.3-0.2-1.8-0.6l-1.4-0.9c-0.8-0.3-1.4-0.8-1.9-1.7c-0.1-0.2-0.3-0.6-0.4-1.1
			c-0.2-0.5-0.3-1.2-0.5-1.9c-0.2-1.3,0.2-2.3,1-3l-0.2-0.2c-0.8-0.3-1.5-0.9-1.8-1.9c-0.1-0.4-0.2-0.8-0.3-1.4l-0.1-0.5
			c-0.2-0.8-0.3-1.8-0.4-2.5c-0.1-1,0.1-2.1,0.5-3l-0.5,0c-0.8,0-1.5-0.2-2-0.5L984.4,153z M988.6,146.2c-0.1-0.6-0.1-1.1-0.1-1.7
			c0.1-1.7,1.9-2.7,3.4-2c0.6,0.3,1.1,0.7,1.5,1.2c0.7,1,1.2,2.1,1.4,3.3c0.1,0.8,0,1.5-0.3,2.3c-0.3,0.5-0.6,1-1,1.4l-1.2,1.2
			c-0.5,0.5-1,0.9-1.4,1.5c-0.9,1.1-1.3,2.4-1.3,3.8c0,0.9,0.2,1.9,0.4,2.8c0.1,0.4,0.2,0.8,0.3,1.2c0.2,0.5,0.5,0.8,1.1,0.8
			c0.3,0,0.7,0,1-0.1l0.6-0.2c0.4-0.1,0.7-0.3,1.1-0.5c0.5-0.2,0.7-0.7,0.7-1.3c0-0.3-0.1-0.6-0.2-0.8l-0.2-0.8
			c-0.2-1.3,0-2.4,0.7-3.5c0.2-0.3,0.4-0.7,0.7-1l1.8-1.9c0.4-0.4,0.8-0.8,1.2-1.3c0.7-0.8,1-1.7,1.1-2.7c0.1-0.7,0-1.3,0-2
			c-0.1-1.5-0.4-2.8-1-4.2c-0.7-1.3-1.5-2.6-2.6-3.5c-1-0.8-2-1.2-3.3-1.3c-1-0.1-1.9,0-2.8,0.2l-1.6,0.5c-1.5,0.4-2.7,1.2-3.8,2.2
			c-1.2,1.2-1.9,2.6-1.8,4.4c0,0.7,0.1,1.4,0.2,2.1c0.2,1.3,0.4,2.5,0.8,3.7c0.2,0.7,0.7,1.2,1.6,1.2c0.9-0.1,1.7-0.2,2.5-0.5
			c0.1,0,0.3-0.1,0.4-0.1c0.5-0.2,0.8-0.6,0.7-1.2c0-0.3-0.1-0.6-0.1-0.9c-0.1-0.4-0.2-0.8-0.3-1.1
			C988.7,147.1,988.6,146.7,988.6,146.2z M996,165.8c-0.3-0.8-0.8-1.3-1.6-1.3c-0.8,0-1.5,0.1-2.3,0.4c-0.6,0.3-1,0.8-0.8,1.6
			c0.1,0.6,0.2,1.1,0.4,1.6c0.1,0.3,0.2,0.6,0.3,0.8c0.3,0.6,0.8,0.9,1.4,0.9c0.7,0,1.3-0.1,2-0.3c0.9-0.2,1.2-0.7,1.2-1.7l-0.1-0.5
			L996,165.8z M992.6,149.1c0.1-0.2,0.2-0.3,0.3-0.5c0.2-0.4,0.2-0.8,0.2-1.2c-0.1-0.6-0.3-1.2-0.6-1.7c-0.1,0.1-0.2,0.3-0.2,0.4
			l0,0c0,0.4,0.1,0.9,0.1,1.4c0,0.4,0.1,0.7,0.2,1C992.5,148.6,992.5,148.8,992.6,149.1z"/>
	</g>
</g>
</svg>
