<?xml version="1.0" encoding="utf-8"?>
<!-- Generator: Adobe Illustrator 19.0.0, SVG Export Plug-In . SVG Version: 6.00 Build 0)  -->
<svg version="1.1" id="Capa_1" xmlns="http://www.w3.org/2000/svg" xmlns:xlink="http://www.w3.org/1999/xlink" x="0px" y="0px"
	 viewBox="0 0 175 51.7" style="enable-background:new 0 0 175 51.7;" xml:space="preserve">
<style type="text/css">
	.st0{fill:#232323;}
</style>
<g id="XMLID_17_">
	<path id="XMLID_24_" class="st0" d="M172.7,25c-0.9-2.1-2.3-3.9-3.8-5.5c-1.5-1.6-3.4-2.8-5.5-3.7c-2.1-0.9-4.4-1.4-6.7-1.4
		c-2.4,0-4.6,0.5-6.7,1.4s-3.9,2.1-5.5,3.7c-1.6,1.6-2.8,3.4-3.7,5.5c-0.9,2.1-1.4,4.3-1.4,6.7v1.6c0-2.5-0.4-5-1.4-7.2
		c-1-2.3-2.2-4.2-3.9-5.9c-1.7-1.7-3.6-3-5.9-4c-2.3-1-4.7-1.5-7.3-1.5c-2.6,0-5,0.5-7.2,1.5c-2.3,1-4.2,2.3-5.9,4
		c-1.7,1.7-3,3.7-4,5.9c-0.4,0.9-0.7,1.9-0.9,2.9c-0.2-1.4-0.6-2.8-1.1-4.1c-0.9-2-2.1-3.8-3.6-5.3c-1.5-1.5-3.3-2.7-5.3-3.6
		c-2-0.9-4.2-1.3-6.5-1.3c-2.3,0-4.5,0.4-6.5,1.3c-2,0.9-3.8,2.1-5.3,3.6c-1.5,1.5-2.7,3.3-3.6,5.3c0,0.1,0.1,0.2,0.1,0.3
		c0.1-0.8,0.3-1.7,0.3-2.5V15h-9.3l0,8c0,1-0.2,1.7-0.6,2.6c-0.4,0.9-0.9,1.5-1.6,2.2c-0.7,0.7-1.5,1.1-2.4,1.5
		c-0.9,0.4-1.9,0.5-3,0.5c-1,0-2-0.2-2.9-0.6c-0.9-0.4-1.7-0.9-2.4-1.6c-0.7-0.7-1.2-1.3-1.6-2.3c-0.4-0.9-0.6-1.7-0.6-2.7l0-7.6
		h-8.8V0h-10v33.2c0,1.3-0.1,2.5-0.6,3.6c-0.5,1.1-1.1,2.1-1.9,3c-0.8,0.8-1.8,1.5-2.9,2c-1.1,0.5-2.4,0.7-3.7,0.7
		c-1.3,0-2.5-0.2-3.6-0.7c-1.1-0.5-2.1-1.2-3-2c-0.8-0.8-1.5-1.8-2-3c-0.5-1.1-0.7-2.3-0.7-3.6c0-1.3,0.2-2.5,0.7-3.7
		c0.5-1.1,1.2-2.1,2-3c0.8-0.8,1.8-1.9,3-2.4c1.1-0.5,2.3-1.1,3.6-1.1h3.2v-8h-3.2c-2.6,0-5,0.3-7.2,1.2c-2.3,1-4.2,2.2-5.9,3.9
		c-1.7,1.7-3,3.6-4,5.9c-1,2.3-1.4,4.6-1.4,7.2c0,2.6,0.5,5,1.4,7.2c1,2.3,2.3,4.2,4,5.9c1.7,1.7,3.6,3,5.9,4c2.3,1,4.7,1.4,7.2,1.4
		c2.6,0,5-0.5,7.3-1.4c2.3-1,4.2-2.3,5.9-4c1.7-1.7,3.1-3.6,4.1-5.9c1-2.3,1.6-4.7,1.6-7.2l-0.1-10.7c0,2.4,0.4,4.3,1.3,6.4
		c0.9,2,2.1,3.7,3.6,5.3c1.5,1.5,2.8,2.7,4.9,3.6c0.7,0.3,0.8,0.6,1.8,0.8V51h10V38.3c1-0.2,1.1-0.4,1.6-0.6c2-0.9,3.9-2.1,5.4-3.6
		c1.5-1.5,2.7-3.2,3.5-5.2c-0.1,0.8,0,22.2,0,22.2h9.4v-4.7c1,0.6,2.1,1,3.3,1.3c1.3,0.3,2.5,0.5,3.8,0.5c2.3,0,4.4-0.4,6.4-1.3
		c2-0.9,3.8-2.1,5.3-3.6c1.5-1.5,2.7-3.3,3.5-5.3c0.3-0.7,0.6-1.5,0.8-2.3c0.2,1.7,0.6,3.3,1.3,4.9c1,2.3,2.3,4.2,4,5.9
		c1.7,1.7,3.6,2.5,5.9,3.5c2.3,1,4.7,1.1,7.2,1.1h1.4v-8.6l-1.9,0c-1.3,0-2.2-0.2-3.3-0.7c-1.1-0.5-2-1.1-2.8-2
		c-0.8-0.8-1.4-1.8-1.9-2.9c-0.5-1.1-0.7-2.3-0.7-3.6c0-1.3,0.3-2.5,0.8-3.6c0.5-1.1,1.2-2.1,2-3c0.8-0.8,1.8-1.5,3-2
		c1.1-0.5,2.3-0.7,3.6-0.7c1.3,0,2.5,0.2,3.7,0.7c1.1,0.5,2.1,1.2,3,2c0.8,0.8,1,1.8,1.5,3c0.5,1.1,0.2,2.3,0.2,3.6V51h10h10V31.7
		c0-1.1-0.2-2.2,0.2-3.1c0.4-1,0.8-1.8,1.5-2.5c0.7-0.7,1.5-1.3,2.5-1.7c1-0.4,2-0.6,3.1-0.6c1.1,0,2.1,0.2,3.1,0.6
		c1,0.4,1.8,1,2.6,1.7c0.7,0.7,1.2,1.6,1.6,2.5c0.4,1,0.5,2,0.5,3.1V51h10V31.7C174.3,29.3,173.6,27.1,172.7,25z M93.3,34.3
		c-0.4,0.9-0.9,1.7-1.6,2.4c-0.7,0.7-1.5,1.2-2.4,1.6c-0.9,0.4-1.9,0.6-2.9,0.6c-1.1,0-2-0.2-3-0.6c-0.9-0.4-1.7-0.9-2.4-1.6
		c-0.7-0.7-1.2-1.5-1.6-2.4c-0.4-0.9-0.6-1.9-0.6-2.9c0-1.1,0.2-2,0.6-3c0.4-0.9,0.9-1.7,1.6-2.4c0.7-0.7,1.5-1.2,2.4-1.6
		c0.9-0.4,1.9-0.6,3-0.6c1,0,2,0.2,2.9,0.6c0.9,0.4,1.7,0.9,2.4,1.6c0.7,0.7,1.2,1.5,1.6,2.4c0.4,0.9,0.6,1.9,0.6,3
		C93.8,32.4,93.6,33.4,93.3,34.3z"/>
</g>
</svg>
