<?xml version="1.0" encoding="utf-8"?>
<!-- Generator: Adobe Illustrator 19.0.0, SVG Export Plug-In . SVG Version: 6.00 Build 0)  -->
<svg version="1.1" id="Capa_1" xmlns="http://www.w3.org/2000/svg" xmlns:xlink="http://www.w3.org/1999/xlink" x="0px" y="0px"
	 viewBox="0 0 368 345.5" style="enable-background:new 0 0 368 345.5;" xml:space="preserve">
<style type="text/css">
	.st0{fill:none;}
	.st1{fill:#FFFFFF;}
	.st2{fill:#232323;}
</style>
<g id="XMLID_24_">
	<g id="XMLID_270_">
		<path id="XMLID_364_" class="st0" d="M193.2,290c-1.4-1.4-3.1-2.5-4.9-3.3c-1.9-0.8-3.9-1.2-6-1.2c-2.2,0-4.2,0.4-6.1,1.2
			c-1.9,0.8-3.6,1.9-5,3.3c-1.4,1.4-2.5,3.1-3.3,5s-1.2,3.9-1.2,6.1c0,2.1,0.4,4.1,1.2,6c0.8,1.9,1.9,3.6,3.3,5
			c1.4,1.4,3.1,2.5,5,3.4c1.9,0.8,3.9,1.3,6.1,1.3c2.1,0,4.1-0.4,6-1.3c1.9-0.8,3.5-2,4.9-3.4c1.4-1.4,2.5-3.1,3.3-5
			c0.8-1.9,1.2-3.9,1.2-6c0-2.2-0.4-4.2-1.2-6.1C195.8,293.1,194.6,291.4,193.2,290z"/>
		<path id="XMLID_271_" class="st1" d="M360.3,287.8c-1.9-4.3-4.4-8.1-7.5-11.4c-3.2-3.2-6.9-5.8-11.3-7.7c-4.3-1.9-9-2.8-13.8-2.8
			c-5,0-9.6,0.9-13.9,2.8s-8.1,4.4-11.3,7.7c-3.2,3.2-5.8,7-7.6,11.4c-1.9,4.3-2.7,9-2.7,13.8v3.3c0-5.3-0.8-10.3-2.8-15
			c-2-4.7-4.7-8.8-8.1-12.3c-3.5-3.5-7.5-6.3-12.2-8.3c-4.7-2-9.7-3-15-3c-5.3,0-10.3,1-15,3c-4.7,2-8.7,4.8-12.2,8.3
			c-3.5,3.5-6.2,7.6-8.2,12.3c-0.8,2-1.5,4-1.9,6c-0.4-2.9-1.2-5.7-2.3-8.4c-1.8-4.2-4.3-7.9-7.4-11s-6.8-5.6-11-7.5
			c-4.2-1.8-8.7-2.8-13.5-2.8c-4.8,0-9.3,0.9-13.6,2.8c-4.2,1.8-7.9,4.3-11,7.5c-3.2,3.2-5.6,6.8-7.4,11c-0.1,0.2-0.3,0.4-0.4,0.6
			c0.2-1.7,0.1-3.4,0.1-5.1V267h-18l0.1,16.6c0,2.1-0.4,3.5-1.2,5.4c-0.8,1.9-1.9,3.2-3.3,4.6c-1.4,1.4-3.1,2.3-5,3.1
			c-1.9,0.8-3.9,1.1-6.1,1.1c-2.1,0-4.1-0.5-6-1.3c-1.9-0.8-3.5-1.9-4.9-3.4c-1.4-1.4-2.5-2.8-3.3-4.7c-0.8-1.9-1.1-3.7-1.1-5.7
			l0-15.9H82v-30H62v67.8c0,2.6-0.2,5.1-1.2,7.5c-1,2.3-2.2,4.4-4,6.1c-1.7,1.7-3.7,3.1-6.1,4.1c-2.4,1-4.9,1.5-7.6,1.5
			c-2.6,0-5.1-0.5-7.5-1.5c-2.3-1-4.4-2.4-6.1-4.1c-1.7-1.7-3.1-3.8-4.1-6.1c-1-2.3-1.5-4.8-1.5-7.5c0-2.7,0.5-5.2,1.5-7.6
			c1-2.4,2.4-4.4,4.2-6.2c1.7-1.7,3.8-3.3,6.1-4.3c2.3-1,4.8-1.7,7.5-1.7H49v-18h-5.8c-5.3,0-10.3,0.6-15,2.6
			c-4.7,2-8.7,4.6-12.2,8.1c-3.5,3.5-6.2,7.5-8.2,12.2c-2,4.7-3,9.6-3,14.9c0,5.3,1,10.3,3,15c2,4.7,4.7,8.7,8.2,12.2
			c3.5,3.5,7.5,6.2,12.2,8.2c4.7,2,9.7,3,15,3c5.3,0,10.4-1,15-3c4.7-2,8.8-4.7,12.3-8.2c3.5-3.5,6.4-7.5,8.4-12.2
			c2-4.7,3.2-9.7,3.2-15l-0.3-22.1c0,5,0.9,8.9,2.7,13.2c1.8,4.2,4.3,7.7,7.4,10.9c3.1,3.2,6.5,5.6,10.7,7.4
			c1.5,0.6,2.3,1.2,4.3,1.6V343h20v-27.7c1-0.3,2-0.7,3-1.2c4.2-1.8,7.9-4.3,11-7.5c3.1-3.1,5.4-6.1,7.2-10.1
			c-0.2,1.6-0.1,46.5-0.1,46.5H168v-11c2,1.2,4.1,2.1,6.8,2.7c2.6,0.6,5,1,7.9,1c4.8,0,9.1-0.9,13.3-2.7c4.2-1.8,7.8-4.3,10.9-7.4
			c3.1-3.1,5.5-6.8,7.3-11c0.7-1.5,1.1-3.1,1.6-4.7c0.4,3.5,1.3,6.9,2.7,10.2c2,4.7,4.7,8.7,8.2,12.2c3.5,3.5,7.5,5.9,12.2,8
			c4.7,2,9.7,2.9,15,2.9h5.2v-19.1l-5.2,0c-2.6,0-5.1-0.3-7.5-1.3c-2.3-1-4.4-2.3-6.1-4.1c-1.7-1.7-3.1-3.7-4.2-6.1
			c-1-2.3-1.5-4.8-1.5-7.5c0-2.6,0.5-5.1,1.5-7.5c1-2.3,2.4-4.4,4.1-6.1c1.7-1.7,3.8-3.1,6.1-4.1c2.3-1,4.8-1.5,7.5-1.5
			c2.7,0,5.2,0.5,7.6,1.5c2.4,1,4.4,2.4,6.2,4.1c1.7,1.7,2.5,3.8,3.5,6.1c1,2.3,0.9,4.8,0.9,7.5v38h19.9H312v-41.3
			c0-2.3-0.2-4.5,0.7-6.5c0.9-2,1.8-3.8,3.3-5.3c1.5-1.5,3.2-2.7,5.2-3.5c2-0.9,4.1-1.3,6.4-1.3c2.3,0,4.4,0.4,6.4,1.3
			c2,0.9,3.8,2,5.3,3.5c1.5,1.5,2.1,3.2,3,5.3c0.9,2,0.7,4.2,0.7,6.5V343h20v-41.3C363,296.8,362.1,292.2,360.3,287.8z M196.6,307.1
			c-0.8,1.9-1.9,3.6-3.3,5c-1.4,1.4-3.1,2.5-4.9,3.4c-1.9,0.8-3.9,1.3-6,1.3c-2.2,0-4.2-0.4-6.1-1.3c-1.9-0.8-3.6-2-5-3.4
			c-1.4-1.4-2.5-3.1-3.3-5c-0.8-1.9-1.2-3.9-1.2-6c0-2.2,0.4-4.2,1.2-6.1s1.9-3.6,3.3-5c1.4-1.4,3.1-2.5,5-3.3
			c1.9-0.8,3.9-1.2,6.1-1.2c2.1,0,4.1,0.4,6,1.2c1.9,0.8,3.5,1.9,4.9,3.3c1.4,1.4,2.5,3.1,3.3,5c0.8,1.9,1.2,3.9,1.2,6.1
			C197.8,303.2,197.4,305.2,196.6,307.1z"/>
	</g>
	<g id="XMLID_228_">
		<path id="XMLID_229_" class="st2" d="M192.5,219c22.2-2.1,22.2-38.2,22.2-38.2c-16,14.8-52.5,16-52.5,16S170.7,221.1,192.5,219z"
			/>
	</g>
	<path id="XMLID_227_" class="st2" d="M236.3,112.3L188.8,131h-7.2h-41.9c-2.3,0-4.2,2.2-4.2,4.5c0,2.3,1.9,4.5,4.2,4.5h14.5
		c-0.6,1-1,2.1-1,3.5c0,4.5,3.7,8,8.2,8c4.5,0,8.2-3.4,8.2-7.9c0-1.4-0.4-2.6-1-3.6h13h7.2l51-17.8c2.1-0.7,3.5-2.8,3.5-5
		C243.3,113.6,239.6,111,236.3,112.3z"/>
	<circle id="XMLID_224_" class="st2" cx="217.3" cy="143" r="8.2"/>
	<path id="XMLID_192_" class="st0" d="M245.9,127h-37.6c-1.4,0-2.7,0.7-3.6,1.7c-0.8,1-1.2,2.4-1.1,3.8c0.4,4.8,0.9,10,1.5,16.6
		c0.3,3.9,4,8.3,7.4,8.9c9.6,1.6,19.7,1.6,29.3,0c3.4-0.6,7-5,7.3-8.9c0.5-5.8,1-11,1.4-15.8l0.1-0.9c0.1-1.4-0.3-2.8-1.1-3.7
		C248.7,127.7,247.4,127,245.9,127z"/>
	<path id="XMLID_191_" class="st0" d="M169.6,127H132c-1.4,0-2.7,0.7-3.6,1.7c-0.8,0.9-1.2,2.3-1.1,3.6c0.5,5.7,1,11.4,1.5,16.8
		c0.4,3.9,4,8.3,7.4,8.9c9.6,1.6,19.7,1.6,29.3,0c3.3-0.6,7-5.1,7.3-8.9c0.6-6.5,1.1-11.9,1.5-16.7l0-0.1c0.1-1.4-0.2-2.6-1.1-3.6
		C172.4,127.7,171.1,127,169.6,127z"/>
	<path id="XMLID_26_" class="st1" d="M263.9,122.6c0-2.6-2.1-4.6-4.8-4.6h-50.9c-4.1,0-7.9,1.6-10.6,4.6c-2.7,3-3.9,6.7-3.5,10.8
		l0.2,1.9l-0.4-0.1c-3.2-0.8-6.6-0.8-9.8,0l-0.4,0.1l0.2-1.9c0.4-4-0.8-7.7-3.5-10.7c-2.7-3-6.5-4.6-10.7-4.6h-50.8
		c-2.6,0-4.8,2-4.8,4.6c0,2.4,1.8,4.3,4.1,4.6l0.3,0l-0.1,0.3c-0.6,1.9-0.8,3.8-0.6,5.7c0.5,5.7,1,11.3,1.5,16.7
		c0.7,8.1,7.7,16.1,15.2,17.5c10.7,1.8,22,1.8,32.6,0c7.5-1.3,14.5-9.3,15.2-17.5l0.3-3.8l0.1-0.1c3.6-2.5,8.6-2.6,12.3-0.3l0.1,0.1
		l0.4,4.1c0.7,8.1,7.7,16.1,15.2,17.5c5.4,0.9,10.9,1.4,16.3,1.4c5.4,0,10.9-0.5,16.3-1.4c7.6-1.4,14.4-9.2,15.2-17.5
		c0.5-5.6,1-11.2,1.5-16.6c0.2-1.9,0-3.9-0.6-5.7l-0.1-0.3l0.3,0C262.1,126.9,263.9,125,263.9,122.6z M174.4,132.3l0,0.1
		c-0.4,4.8-0.9,10.1-1.5,16.7c-0.3,3.8-4,8.3-7.3,8.9c-9.6,1.6-19.8,1.7-29.3,0c-3.4-0.6-7-5-7.4-8.9c-0.5-5.4-1-11.1-1.5-16.8
		c-0.1-1.4,0.3-2.6,1.1-3.5c0.9-1,2.2-1.7,3.6-1.7h37.6c1.5,0,2.8,0.7,3.7,1.7C174.2,129.7,174.5,130.9,174.4,132.3z M250.6,133.3
		c-0.4,4.8-0.9,9.9-1.4,15.8c-0.4,4-3.9,8.3-7.3,8.9c-9.6,1.6-19.8,1.7-29.3,0c-3.4-0.6-7.1-5-7.4-8.9c-0.6-6.6-1.1-11.9-1.5-16.7
		c-0.1-1.4,0.3-2.8,1.1-3.7c0.9-1,2.2-1.7,3.6-1.7h37.6c1.5,0,2.8,0.7,3.7,1.7c0.9,1,1.3,2.4,1.1,3.8L250.6,133.3z"/>
	<path id="XMLID_25_" class="st2" d="M245.5,13.5c-1.1-2-4.1-1.2-4.1,1.1c-0.2,19.2-9.8,25.8-22.8,25.8c6.5-1.8,11.1-6.3,12.2-14.8
		c0.1-0.7-1-0.9-1.2-0.2c-3.9,13.1-18.6,13.8-34.4,10.1c-25-9-50.7-27.1-50.7-27.1s-32.7-20-39.6,12.5c-5.3,25.4,9.5,65.3,16.3,81.8
		c0.8,1.8,3.5,1.4,3.7-0.6c7.5-77.6,101,56.1,131.1,8C276.3,77.3,255.4,31.7,245.5,13.5z"/>
</g>
</svg>
