<?xml version="1.0" encoding="utf-8"?>
<!-- Generator: Adobe Illustrator 19.0.0, SVG Export Plug-In . SVG Version: 6.00 Build 0)  -->
<svg version="1.1" id="Capa_1" xmlns="http://www.w3.org/2000/svg" xmlns:xlink="http://www.w3.org/1999/xlink" x="0px" y="0px"
	 viewBox="0 0 445 177" style="enable-background:new 0 0 445 177;" xml:space="preserve">
<style type="text/css">
	.st0{fill:none;}
	.st1{fill:#FFFFFF;}
	.st2{fill:#232323;}
</style>
<g id="XMLID_83_">
	<g id="XMLID_79_">
		<path id="XMLID_81_" class="st0" d="M306.5,88.7c-1.1-1.1-2.4-2-3.9-2.6c-1.5-0.6-3.1-1-4.7-1c-1.7,0-3.3,0.3-4.8,1
			c-1.5,0.6-2.8,1.5-3.9,2.6c-1.1,1.1-2,2.4-2.6,3.9s-1,3.1-1,4.8c0,1.7,0.3,3.3,1,4.8c0.6,1.5,1.5,2.8,2.6,3.9
			c1.1,1.1,2.4,2,3.9,2.7c1.5,0.7,3.1,1,4.8,1c1.7,0,3.3-0.3,4.7-1c1.5-0.7,2.8-1.6,3.9-2.7c1.1-1.1,2-2.4,2.6-3.9
			c0.6-1.5,1-3.1,1-4.8c0-1.7-0.3-3.3-1-4.8C308.5,91.1,307.6,89.8,306.5,88.7z"/>
		<path id="XMLID_110_" class="st1" d="M438.8,87c-1.5-3.4-3.5-6.4-6-9c-2.5-2.6-5.5-4.6-8.9-6.1c-3.4-1.5-7.1-2.2-11-2.2
			c-3.9,0-7.6,0.7-11,2.2c-3.4,1.5-6.4,3.5-9,6.1c-2.6,2.6-4.4,5.6-5.9,9c-1.5,3.4-2,7.1-2,11v2.6c0-4.2-0.8-8.1-2.4-11.8
			c-1.6-3.7-3.8-7-6.5-9.7c-2.7-2.8-6-5-9.7-6.6c-3.7-1.6-7.7-2.4-11.9-2.4s-8.2,0.8-11.9,2.4c-3.7,1.6-6.9,3.8-9.7,6.6
			c-2.7,2.8-4.9,6-6.5,9.7c-0.7,1.6-1.1,3.2-1.5,4.8c-0.3-2.3-0.9-4.5-1.8-6.7c-1.4-3.3-3.4-6.2-5.8-8.7s-5.4-4.5-8.7-5.9
			c-3.3-1.5-6.9-2.2-10.7-2.2c-3.8,0-7.4,0.7-10.7,2.2c-3.3,1.5-6.3,3.4-8.7,5.9c-2.5,2.5-4.5,5.4-5.9,8.7c-0.1,0.2,0.1,0.3,0,0.5
			c0.2-1.4,0.5-2.7,0.5-4V70h-15l0.1,13.4c0,1.7-0.3,2.9-1,4.4c-0.6,1.5-1.5,2.6-2.6,3.7c-1.1,1.1-2.4,1.9-3.9,2.5
			c-1.5,0.6-3.1,0.9-4.8,0.9c-1.7,0-3.3-0.3-4.7-1c-1.5-0.6-2.8-1.5-3.9-2.7c-1.1-1.1-2-2.2-2.6-3.7c-0.6-1.5-0.9-3.2-0.9-4.7
			l0-12.8H218V46h-16v54.4c0,2.1,0.2,4.1-0.6,5.9c-0.8,1.9-1.6,3.5-3,4.8c-1.4,1.4-2.9,2.5-4.7,3.3c-1.9,0.8-3.8,1.2-6,1.2
			c-2.1,0-4-0.4-5.9-1.2c-1.9-0.8-3.5-1.9-4.8-3.3c-1.4-1.4-2.5-3-3.3-4.8c-0.8-1.9-1.2-3.8-1.2-5.9c0-2.1,0.4-4.1,1.2-6
			c0.8-1.9,1.9-3.5,3.3-4.9c1.4-1.4,3-3,4.8-3.8c1.9-0.8,3.8-1.7,5.9-1.7h4.3V70h-4.3c-4.2,0-8.2,0.7-11.9,2.3
			c-3.7,1.6-6.9,3.8-9.7,6.5c-2.7,2.8-4.9,6-6.5,9.7c-1.6,3.7-2.4,7.7-2.4,11.8c0,4.2,0.8,8.2,2.4,11.9c1.6,3.7,3.7,6.9,6.5,9.7
			c2.7,2.7,6,4.9,9.7,6.5c3.7,1.6,7.6,2.4,11.9,2.4c4.2,0,8.2-0.8,11.9-2.4c3.7-1.6,7-3.7,9.7-6.5c2.7-2.7,5.1-6,6.7-9.7
			c1.6-3.7,2.6-7.6,2.6-11.9l-0.2-17.5c0,4,0.7,7.1,2.1,10.4c1.4,3.3,3.4,6.1,5.8,8.6c2.5,2.5,5,4.4,8.4,5.9
			c1.2,0.5,1.3,0.9,3.3,1.3V130h16v-21.3c1-0.3,1.6-0.6,2.4-0.9c3.3-1.5,6.2-3.4,8.7-5.9c2.4-2.4,4.3-5.1,5.7-8.4
			c-0.2,1.2-0.1,36.5-0.1,36.5H286v-8.1c2,0.9,3.5,1.6,5.6,2.1c2.1,0.5,4.1,0.8,6.4,0.8c3.8,0,7.3-0.7,10.6-2.1
			c3.3-1.4,6.2-3.4,8.7-5.8c2.5-2.5,4.4-5.4,5.8-8.7c0.5-1.2,0.9-2.5,1.2-3.8c0.3,2.8,1,5.5,2.1,8c1.6,3.7,3.7,6.9,6.5,9.7
			c2.7,2.7,6,4.4,9.7,6c3.7,1.6,7.6,1.9,11.9,1.9h3.6v-14.5l-3.8,0c-2.1,0-3.9-0.3-5.8-1.1c-1.9-0.8-3.4-1.8-4.8-3.2
			c-1.4-1.4-2.4-3-3.3-4.8c-0.8-1.9-1.2-3.8-1.2-5.9c0-2.1,0.4-4,1.2-5.9c0.8-1.9,1.9-3.5,3.3-4.8c1.4-1.4,3-2.5,4.9-3.3
			c1.9-0.8,3.8-1.2,5.9-1.2c2.1,0,4.2,0.4,6,1.2c1.9,0.8,3.5,1.9,4.9,3.3c1.4,1.4,1.5,3,2.3,4.8c0.8,1.9,0.3,3.8,0.3,5.9V130h16.6
			H400V97.9c0-1.8,0.1-3.6,0.8-5.2c0.7-1.6,1.5-3,2.8-4.2c1.2-1.2,2.6-2.1,4.2-2.8c1.6-0.7,3.3-1,5.1-1c1.8,0,3.5,0.3,5.1,1
			c1.6,0.7,3,1.6,4.2,2.8c1.2,1.2,1.6,2.6,2.3,4.2c0.7,1.6,0.5,3.3,0.5,5.2V130h16V97.9C441,94.1,440.2,90.4,438.8,87z M309.1,102.3
			c-0.6,1.5-1.5,2.8-2.6,3.9c-1.1,1.1-2.4,2-3.9,2.7c-1.5,0.7-3.1,1-4.7,1c-1.7,0-3.3-0.3-4.8-1c-1.5-0.7-2.8-1.6-3.9-2.7
			c-1.1-1.1-2-2.4-2.6-3.9c-0.6-1.5-1-3.1-1-4.8c0-1.7,0.3-3.3,1-4.8s1.5-2.8,2.6-3.9c1.1-1.1,2.4-2,3.9-2.6c1.5-0.6,3.1-1,4.8-1
			c1.7,0,3.3,0.3,4.7,1c1.5,0.6,2.8,1.5,3.9,2.6c1.1,1.1,2,2.4,2.6,3.9c0.6,1.5,1,3.1,1,4.8C310.1,99.2,309.8,100.8,309.1,102.3z"/>
	</g>
	<g id="XMLID_82_">
		<g id="XMLID_239_">
			<path id="XMLID_240_" class="st2" d="M73.3,172.4c17.2-1.7,17.2-29.6,17.2-29.6c-12.4,11.5-40.7,12.4-40.7,12.4
				S56.4,174,73.3,172.4z"/>
		</g>
		<path id="XMLID_241_" class="st2" d="M107.7,89.6L70.9,104h-5.6H32.8c-1.8,0-3.3,1.7-3.3,3.5c0,1.8,1.5,3.5,3.3,3.5H44
			c-0.5,1-0.8,1.7-0.8,2.8c0,3.5,2.9,6.3,6.4,6.3c3.5,0,6.4-2.7,6.4-6.2c0-1.1-0.3-1.8-0.8-2.8h10h5.6l39.5-13.7
			c1.6-0.5,2.7-2.2,2.7-3.9C113.1,90.7,110.3,88.6,107.7,89.6z"/>
		<circle id="XMLID_242_" class="st2" cx="92.5" cy="113.5" r="6.4"/>
		<path id="XMLID_127_" class="st0" d="M115.1,101H86c-1.1,0-2.1,0.6-2.8,1.4c-0.7,0.7-1,1.9-0.9,3c0.3,3.7,0.7,7.8,1.2,12.9
			c0.3,3,3.1,6.4,5.7,6.9c7.4,1.3,15.3,1.3,22.7,0c2.6-0.5,5.4-3.8,5.7-6.9c0.4-4.5,0.8-8.5,1.1-12.2l0.1-0.7c0.1-1.1-0.2-2.2-0.9-3
			C117.3,101.6,116.3,101,115.1,101z"/>
		<path id="XMLID_131_" class="st0" d="M56,101H26.9c-1.1,0-2.1,0.6-2.8,1.4c-0.7,0.7-1,1.8-0.9,2.8c0.4,4.4,0.8,8.9,1.2,13
			c0.3,3,3.1,6.4,5.7,6.9c7.4,1.3,15.3,1.3,22.7,0c2.6-0.5,5.4-4,5.7-6.9c0.4-5.1,0.8-9.2,1.2-12.9l0-0.1c0.1-1.1-0.2-2.1-0.9-2.8
			C58.2,101.6,57.2,101,56,101z"/>
		<path id="XMLID_190_" class="st1" d="M129.1,97.2c0-2-1.7-4.2-3.7-4.2H86c-3.2,0-6.1,1.8-8.2,4.1c-2.1,2.3-3,5.5-2.7,8.6l0.1,1.6
			l-0.3,0c-2.5-0.6-5.1-0.5-7.6,0.1l-0.3,0.1l0.1-1.5c0.3-3.1-0.6-6.6-2.7-8.9c-2.1-2.3-5-4.2-8.3-4.2H16.8c-2,0-3.7,2.1-3.7,4.2
			c0,1.8,1.4,3.6,3.2,3.9l0.3,0.2l-0.1,0.3c-0.5,1.4-0.6,3-0.5,4.5c0.4,4.4,0.8,8.8,1.2,12.9c0.6,6.3,6,12.5,11.8,13.5
			c8.3,1.4,17,1.4,25.3,0c5.8-1,11.2-7.2,11.8-13.5l0.3-2.9l0.1-0.1c2.8-2,6.7-2,9.5-0.2l0.1,0.1l0.3,3.1c0.6,6.3,6,12.5,11.8,13.5
			c4.2,0.7,8.4,1.1,12.6,1.1c4.2,0,8.5-0.4,12.7-1.1c5.9-1.1,11.2-7.1,11.8-13.5c0.4-4.3,0.8-8.7,1.2-12.9c0.1-1.5,0-3-0.5-4.5
			l-0.1-0.2l0.2-0.3C127.7,100.8,129.1,99,129.1,97.2z M59.7,105.2L59.7,105.2c-0.3,3.8-0.7,7.9-1.2,13c-0.3,3-3.1,6.5-5.7,6.9
			c-7.4,1.3-15.3,1.3-22.7,0c-2.6-0.5-5.5-3.9-5.7-6.9c-0.4-4.2-0.8-8.6-1.2-13c-0.1-1.1,0.2-2.1,0.9-2.8c0.7-0.8,1.7-1.4,2.8-1.4
			H56c1.2,0,2.2,0.6,2.9,1.4C59.6,103.1,59.8,104.1,59.7,105.2z M118.8,106c-0.3,3.7-0.7,7.7-1.1,12.2c-0.3,3.1-3,6.4-5.7,6.9
			c-7.5,1.3-15.3,1.3-22.7,0c-2.6-0.5-5.5-3.9-5.7-6.9c-0.5-5.1-0.8-9.2-1.2-12.9c-0.1-1.1,0.2-2.2,0.9-2.9c0.7-0.8,1.7-1.4,2.8-1.4
			h29.1c1.1,0,2.2,0.6,2.8,1.4c0.7,0.7,1,1.9,0.9,3L118.8,106z"/>
		<path id="XMLID_248_" class="st2" d="M114.8,13.2c-0.8-1.5-3.2-0.9-3.2,0.8c-0.2,14.9-7.6,20-17.7,20c5-1.4,8.6-4.9,9.4-11.5
			c0.1-0.6-0.8-0.7-0.9-0.2C99.4,32.5,88,33,75.8,30.2c-19.3-7-39.3-21-39.3-21S11.1-6.3,5.8,19c-4.1,19.6,7.3,50.6,12.6,63.4
			c0.6,1.4,2.7,1.1,2.8-0.4c5.8-60.1,78.2,43.5,101.6,6.2C138.7,62.7,122.5,27.3,114.8,13.2z"/>
	</g>
</g>
</svg>
